M48
; DRILL file {KiCad 5.1.9} date Wed Mar 17 14:57:50 2021
; FORMAT={-:-/ absolute / inch / decimal}
; #@! TF.CreationDate,2021-03-17T14:57:50+01:00
; #@! TF.GenerationSoftware,Kicad,Pcbnew,5.1.9
; #@! TF.FileFunction,Plated,1,2,PTH
FMAT,2
INCH
T1C0.0079
T2C0.0118
T3C0.0197
T4C0.0256
T5C0.0394
T6C0.0866
%
G90
G05
T1
X4.5424Y-3.938
X4.5857Y-3.938
T2
X3.154Y-3.602
X3.212Y-3.484
X3.2545Y-3.7844
X3.2905Y-4.247
X3.314Y-3.654
X3.378Y-3.538
X3.382Y-4.4
X3.3906Y-3.6847
X3.41Y-3.482
X3.484Y-4.2938
X3.488Y-3.434
X3.509Y-4.1397
X3.5799Y-3.5934
X3.5938Y-3.6694
X3.7046Y-4.7841
X3.7133Y-4.6281
X3.7404Y-3.7196
X3.7614Y-3.6958
X3.7649Y-3.7747
X3.8086Y-3.7821
X3.85Y-3.5498
X3.9981Y-3.9087
X4.0525Y-3.5777
X4.0656Y-3.8769
X4.0683Y-3.2782
X4.1009Y-3.5946
X4.1358Y-3.5511
X4.155Y-3.6305
X4.1689Y-4.5252
X4.3283Y-4.31
X4.4501Y-4.4458
X4.46Y-3.38
X4.4765Y-4.2511
X4.4767Y-4.3797
X4.5017Y-4.0345
X4.57Y-4.456
X4.57Y-4.51
X4.572Y-4.198
X4.5954Y-4.0121
X4.6366Y-3.5688
X4.709Y-3.9039
X4.736Y-4.24
T3
X3.8663Y-3.8663
X3.8663Y-4.0077
X4.0077Y-3.8663
X4.0077Y-4.0077
T4
X4.276Y-3.908
X4.276Y-3.958
X4.276Y-4.008
X4.276Y-4.058
X4.276Y-4.108
T5
X4.802Y-3.242
X4.802Y-3.342
X4.802Y-3.442
X4.802Y-3.542
X4.802Y-3.642
T6
X3.1496Y-4.6457
X3.3071Y-3.1102
X4.5669Y-3.1102
X4.7244Y-4.6457
T0
M30
