G04 #@! TF.GenerationSoftware,KiCad,Pcbnew,5.1.9*
G04 #@! TF.CreationDate,2021-03-17T15:02:41+01:00*
G04 #@! TF.ProjectId,Y11025HL-WIFI,59313130-3235-4484-9c2d-574946492e6b,rev?*
G04 #@! TF.SameCoordinates,Original*
G04 #@! TF.FileFunction,Paste,Top*
G04 #@! TF.FilePolarity,Positive*
%FSLAX45Y45*%
G04 Gerber Fmt 4.5, Leading zero omitted, Abs format (unit mm)*
G04 Created by KiCad (PCBNEW 5.1.9) date 2021-03-17 15:02:41*
%MOMM*%
%LPD*%
G01*
G04 APERTURE LIST*
%ADD10R,1.060000X0.650000*%
%ADD11R,3.000000X2.000000*%
%ADD12R,1.700000X0.900000*%
%ADD13R,2.500000X1.000000*%
%ADD14R,1.000000X1.800000*%
%ADD15R,0.450000X1.450000*%
%ADD16R,2.000000X3.800000*%
%ADD17R,2.000000X1.500000*%
G04 APERTURE END LIST*
G36*
G01*
X10065433Y-9550456D02*
X10020178Y-9595711D01*
G75*
G02*
X9984823Y-9595711I-17678J17678D01*
G01*
X9939567Y-9550456D01*
G75*
G02*
X9939567Y-9515101I17678J17678D01*
G01*
X9984823Y-9469846D01*
G75*
G02*
X10020178Y-9469846I17678J-17678D01*
G01*
X10065433Y-9515101D01*
G75*
G02*
X10065433Y-9550456I-17678J-17678D01*
G01*
G37*
G36*
G01*
X10165842Y-9450047D02*
X10120587Y-9495302D01*
G75*
G02*
X10085232Y-9495302I-17678J17678D01*
G01*
X10039977Y-9450047D01*
G75*
G02*
X10039977Y-9414692I17678J17678D01*
G01*
X10085232Y-9369437D01*
G75*
G02*
X10120587Y-9369437I17678J-17678D01*
G01*
X10165842Y-9414692D01*
G75*
G02*
X10165842Y-9450047I-17678J-17678D01*
G01*
G37*
G36*
G01*
X10266251Y-9349638D02*
X10220996Y-9394893D01*
G75*
G02*
X10185641Y-9394893I-17678J17678D01*
G01*
X10140386Y-9349638D01*
G75*
G02*
X10140386Y-9314283I17678J17678D01*
G01*
X10185641Y-9269027D01*
G75*
G02*
X10220996Y-9269027I17678J-17678D01*
G01*
X10266251Y-9314283D01*
G75*
G02*
X10266251Y-9349638I-17678J-17678D01*
G01*
G37*
G36*
G01*
X9965023Y-9450047D02*
X9919768Y-9495302D01*
G75*
G02*
X9884413Y-9495302I-17678J17678D01*
G01*
X9839158Y-9450047D01*
G75*
G02*
X9839158Y-9414692I17678J17678D01*
G01*
X9884413Y-9369437D01*
G75*
G02*
X9919768Y-9369437I17678J-17678D01*
G01*
X9965023Y-9414692D01*
G75*
G02*
X9965023Y-9450047I-17678J-17678D01*
G01*
G37*
G36*
G01*
X10065433Y-9349638D02*
X10020178Y-9394893D01*
G75*
G02*
X9984823Y-9394893I-17678J17678D01*
G01*
X9939567Y-9349638D01*
G75*
G02*
X9939567Y-9314283I17678J17678D01*
G01*
X9984823Y-9269027D01*
G75*
G02*
X10020178Y-9269027I17678J-17678D01*
G01*
X10065433Y-9314283D01*
G75*
G02*
X10065433Y-9349638I-17678J-17678D01*
G01*
G37*
G36*
G01*
X10165842Y-9249228D02*
X10120587Y-9294483D01*
G75*
G02*
X10085232Y-9294483I-17678J17678D01*
G01*
X10039977Y-9249228D01*
G75*
G02*
X10039977Y-9213873I17678J17678D01*
G01*
X10085232Y-9168618D01*
G75*
G02*
X10120587Y-9168618I17678J-17678D01*
G01*
X10165842Y-9213873D01*
G75*
G02*
X10165842Y-9249228I-17678J-17678D01*
G01*
G37*
G36*
G01*
X9864614Y-9349638D02*
X9819359Y-9394893D01*
G75*
G02*
X9784004Y-9394893I-17678J17678D01*
G01*
X9738749Y-9349638D01*
G75*
G02*
X9738749Y-9314283I17678J17678D01*
G01*
X9784004Y-9269027D01*
G75*
G02*
X9819359Y-9269027I17678J-17678D01*
G01*
X9864614Y-9314283D01*
G75*
G02*
X9864614Y-9349638I-17678J-17678D01*
G01*
G37*
G36*
G01*
X9965023Y-9249228D02*
X9919768Y-9294483D01*
G75*
G02*
X9884413Y-9294483I-17678J17678D01*
G01*
X9839158Y-9249228D01*
G75*
G02*
X9839158Y-9213873I17678J17678D01*
G01*
X9884413Y-9168618D01*
G75*
G02*
X9919768Y-9168618I17678J-17678D01*
G01*
X9965023Y-9213873D01*
G75*
G02*
X9965023Y-9249228I-17678J-17678D01*
G01*
G37*
G36*
G01*
X10065433Y-9148819D02*
X10020178Y-9194074D01*
G75*
G02*
X9984823Y-9194074I-17678J17678D01*
G01*
X9939567Y-9148819D01*
G75*
G02*
X9939567Y-9113464I17678J17678D01*
G01*
X9984823Y-9068209D01*
G75*
G02*
X10020178Y-9068209I17678J-17678D01*
G01*
X10065433Y-9113464D01*
G75*
G02*
X10065433Y-9148819I-17678J-17678D01*
G01*
G37*
G36*
G01*
X10106798Y-9701423D02*
X10096192Y-9712030D01*
G75*
G02*
X10085585Y-9712030I-5303J5303D01*
G01*
X10023713Y-9650158D01*
G75*
G02*
X10023713Y-9639552I5303J5303D01*
G01*
X10034320Y-9628945D01*
G75*
G02*
X10044926Y-9628945I5303J-5303D01*
G01*
X10106798Y-9690817D01*
G75*
G02*
X10106798Y-9701423I-5303J-5303D01*
G01*
G37*
G36*
G01*
X10152760Y-9655461D02*
X10142154Y-9666068D01*
G75*
G02*
X10131547Y-9666068I-5303J5303D01*
G01*
X10069675Y-9604196D01*
G75*
G02*
X10069675Y-9593590I5303J5303D01*
G01*
X10080282Y-9582983D01*
G75*
G02*
X10090888Y-9582983I5303J-5303D01*
G01*
X10152760Y-9644855D01*
G75*
G02*
X10152760Y-9655461I-5303J-5303D01*
G01*
G37*
G36*
G01*
X10198722Y-9609499D02*
X10188116Y-9620106D01*
G75*
G02*
X10177509Y-9620106I-5303J5303D01*
G01*
X10115637Y-9558234D01*
G75*
G02*
X10115637Y-9547628I5303J5303D01*
G01*
X10126244Y-9537021D01*
G75*
G02*
X10136850Y-9537021I5303J-5303D01*
G01*
X10198722Y-9598893D01*
G75*
G02*
X10198722Y-9609499I-5303J-5303D01*
G01*
G37*
G36*
G01*
X10244684Y-9563537D02*
X10234077Y-9574144D01*
G75*
G02*
X10223471Y-9574144I-5303J5303D01*
G01*
X10161599Y-9512272D01*
G75*
G02*
X10161599Y-9501666I5303J5303D01*
G01*
X10172206Y-9491059D01*
G75*
G02*
X10182812Y-9491059I5303J-5303D01*
G01*
X10244684Y-9552931D01*
G75*
G02*
X10244684Y-9563537I-5303J-5303D01*
G01*
G37*
G36*
G01*
X10290646Y-9517576D02*
X10280039Y-9528182D01*
G75*
G02*
X10269433Y-9528182I-5303J5303D01*
G01*
X10207561Y-9466310D01*
G75*
G02*
X10207561Y-9455704I5303J5303D01*
G01*
X10218168Y-9445097D01*
G75*
G02*
X10228774Y-9445097I5303J-5303D01*
G01*
X10290646Y-9506969D01*
G75*
G02*
X10290646Y-9517576I-5303J-5303D01*
G01*
G37*
G36*
G01*
X10336608Y-9471614D02*
X10326001Y-9482220D01*
G75*
G02*
X10315395Y-9482220I-5303J5303D01*
G01*
X10253523Y-9420348D01*
G75*
G02*
X10253523Y-9409742I5303J5303D01*
G01*
X10264130Y-9399135D01*
G75*
G02*
X10274736Y-9399135I5303J-5303D01*
G01*
X10336608Y-9461007D01*
G75*
G02*
X10336608Y-9471614I-5303J-5303D01*
G01*
G37*
G36*
G01*
X10382570Y-9425652D02*
X10371963Y-9436258D01*
G75*
G02*
X10361357Y-9436258I-5303J5303D01*
G01*
X10299485Y-9374386D01*
G75*
G02*
X10299485Y-9363780I5303J5303D01*
G01*
X10310092Y-9353173D01*
G75*
G02*
X10320698Y-9353173I5303J-5303D01*
G01*
X10382570Y-9415045D01*
G75*
G02*
X10382570Y-9425652I-5303J-5303D01*
G01*
G37*
G36*
G01*
X10382570Y-9248875D02*
X10320698Y-9310747D01*
G75*
G02*
X10310092Y-9310747I-5303J5303D01*
G01*
X10299485Y-9300140D01*
G75*
G02*
X10299485Y-9289534I5303J5303D01*
G01*
X10361357Y-9227662D01*
G75*
G02*
X10371963Y-9227662I5303J-5303D01*
G01*
X10382570Y-9238268D01*
G75*
G02*
X10382570Y-9248875I-5303J-5303D01*
G01*
G37*
G36*
G01*
X10336608Y-9202913D02*
X10274736Y-9264785D01*
G75*
G02*
X10264130Y-9264785I-5303J5303D01*
G01*
X10253523Y-9254178D01*
G75*
G02*
X10253523Y-9243572I5303J5303D01*
G01*
X10315395Y-9181700D01*
G75*
G02*
X10326001Y-9181700I5303J-5303D01*
G01*
X10336608Y-9192306D01*
G75*
G02*
X10336608Y-9202913I-5303J-5303D01*
G01*
G37*
G36*
G01*
X10290646Y-9156951D02*
X10228774Y-9218823D01*
G75*
G02*
X10218168Y-9218823I-5303J5303D01*
G01*
X10207561Y-9208216D01*
G75*
G02*
X10207561Y-9197610I5303J5303D01*
G01*
X10269433Y-9135738D01*
G75*
G02*
X10280039Y-9135738I5303J-5303D01*
G01*
X10290646Y-9146345D01*
G75*
G02*
X10290646Y-9156951I-5303J-5303D01*
G01*
G37*
G36*
G01*
X10244684Y-9110989D02*
X10182812Y-9172861D01*
G75*
G02*
X10172206Y-9172861I-5303J5303D01*
G01*
X10161599Y-9162254D01*
G75*
G02*
X10161599Y-9151648I5303J5303D01*
G01*
X10223471Y-9089776D01*
G75*
G02*
X10234077Y-9089776I5303J-5303D01*
G01*
X10244684Y-9100383D01*
G75*
G02*
X10244684Y-9110989I-5303J-5303D01*
G01*
G37*
G36*
G01*
X10198722Y-9065027D02*
X10136850Y-9126899D01*
G75*
G02*
X10126244Y-9126899I-5303J5303D01*
G01*
X10115637Y-9116292D01*
G75*
G02*
X10115637Y-9105686I5303J5303D01*
G01*
X10177509Y-9043814D01*
G75*
G02*
X10188116Y-9043814I5303J-5303D01*
G01*
X10198722Y-9054421D01*
G75*
G02*
X10198722Y-9065027I-5303J-5303D01*
G01*
G37*
G36*
G01*
X10152760Y-9019065D02*
X10090888Y-9080937D01*
G75*
G02*
X10080282Y-9080937I-5303J5303D01*
G01*
X10069675Y-9070331D01*
G75*
G02*
X10069675Y-9059724I5303J5303D01*
G01*
X10131547Y-8997852D01*
G75*
G02*
X10142154Y-8997852I5303J-5303D01*
G01*
X10152760Y-9008459D01*
G75*
G02*
X10152760Y-9019065I-5303J-5303D01*
G01*
G37*
G36*
G01*
X10106798Y-8973103D02*
X10044926Y-9034975D01*
G75*
G02*
X10034320Y-9034975I-5303J5303D01*
G01*
X10023713Y-9024369D01*
G75*
G02*
X10023713Y-9013762I5303J5303D01*
G01*
X10085585Y-8951890D01*
G75*
G02*
X10096192Y-8951890I5303J-5303D01*
G01*
X10106798Y-8962497D01*
G75*
G02*
X10106798Y-8973103I-5303J-5303D01*
G01*
G37*
G36*
G01*
X9981287Y-9024369D02*
X9970680Y-9034975D01*
G75*
G02*
X9960074Y-9034975I-5303J5303D01*
G01*
X9898202Y-8973103D01*
G75*
G02*
X9898202Y-8962497I5303J5303D01*
G01*
X9908808Y-8951890D01*
G75*
G02*
X9919415Y-8951890I5303J-5303D01*
G01*
X9981287Y-9013762D01*
G75*
G02*
X9981287Y-9024369I-5303J-5303D01*
G01*
G37*
G36*
G01*
X9935325Y-9070331D02*
X9924718Y-9080937D01*
G75*
G02*
X9914112Y-9080937I-5303J5303D01*
G01*
X9852240Y-9019065D01*
G75*
G02*
X9852240Y-9008459I5303J5303D01*
G01*
X9862846Y-8997852D01*
G75*
G02*
X9873453Y-8997852I5303J-5303D01*
G01*
X9935325Y-9059724D01*
G75*
G02*
X9935325Y-9070331I-5303J-5303D01*
G01*
G37*
G36*
G01*
X9889363Y-9116292D02*
X9878756Y-9126899D01*
G75*
G02*
X9868150Y-9126899I-5303J5303D01*
G01*
X9806278Y-9065027D01*
G75*
G02*
X9806278Y-9054421I5303J5303D01*
G01*
X9816885Y-9043814D01*
G75*
G02*
X9827491Y-9043814I5303J-5303D01*
G01*
X9889363Y-9105686D01*
G75*
G02*
X9889363Y-9116292I-5303J-5303D01*
G01*
G37*
G36*
G01*
X9843401Y-9162254D02*
X9832794Y-9172861D01*
G75*
G02*
X9822188Y-9172861I-5303J5303D01*
G01*
X9760316Y-9110989D01*
G75*
G02*
X9760316Y-9100383I5303J5303D01*
G01*
X9770923Y-9089776D01*
G75*
G02*
X9781529Y-9089776I5303J-5303D01*
G01*
X9843401Y-9151648D01*
G75*
G02*
X9843401Y-9162254I-5303J-5303D01*
G01*
G37*
G36*
G01*
X9797439Y-9208216D02*
X9786832Y-9218823D01*
G75*
G02*
X9776226Y-9218823I-5303J5303D01*
G01*
X9714354Y-9156951D01*
G75*
G02*
X9714354Y-9146345I5303J5303D01*
G01*
X9724961Y-9135738D01*
G75*
G02*
X9735567Y-9135738I5303J-5303D01*
G01*
X9797439Y-9197610D01*
G75*
G02*
X9797439Y-9208216I-5303J-5303D01*
G01*
G37*
G36*
G01*
X9751477Y-9254178D02*
X9740871Y-9264785D01*
G75*
G02*
X9730264Y-9264785I-5303J5303D01*
G01*
X9668392Y-9202913D01*
G75*
G02*
X9668392Y-9192306I5303J5303D01*
G01*
X9678999Y-9181700D01*
G75*
G02*
X9689605Y-9181700I5303J-5303D01*
G01*
X9751477Y-9243572D01*
G75*
G02*
X9751477Y-9254178I-5303J-5303D01*
G01*
G37*
G36*
G01*
X9705515Y-9300140D02*
X9694909Y-9310747D01*
G75*
G02*
X9684302Y-9310747I-5303J5303D01*
G01*
X9622430Y-9248875D01*
G75*
G02*
X9622430Y-9238268I5303J5303D01*
G01*
X9633037Y-9227662D01*
G75*
G02*
X9643643Y-9227662I5303J-5303D01*
G01*
X9705515Y-9289534D01*
G75*
G02*
X9705515Y-9300140I-5303J-5303D01*
G01*
G37*
G36*
G01*
X9705515Y-9374386D02*
X9643643Y-9436258D01*
G75*
G02*
X9633037Y-9436258I-5303J5303D01*
G01*
X9622430Y-9425652D01*
G75*
G02*
X9622430Y-9415045I5303J5303D01*
G01*
X9684302Y-9353173D01*
G75*
G02*
X9694909Y-9353173I5303J-5303D01*
G01*
X9705515Y-9363780D01*
G75*
G02*
X9705515Y-9374386I-5303J-5303D01*
G01*
G37*
G36*
G01*
X9751477Y-9420348D02*
X9689605Y-9482220D01*
G75*
G02*
X9678999Y-9482220I-5303J5303D01*
G01*
X9668392Y-9471614D01*
G75*
G02*
X9668392Y-9461007I5303J5303D01*
G01*
X9730264Y-9399135D01*
G75*
G02*
X9740871Y-9399135I5303J-5303D01*
G01*
X9751477Y-9409742D01*
G75*
G02*
X9751477Y-9420348I-5303J-5303D01*
G01*
G37*
G36*
G01*
X9797439Y-9466310D02*
X9735567Y-9528182D01*
G75*
G02*
X9724961Y-9528182I-5303J5303D01*
G01*
X9714354Y-9517576D01*
G75*
G02*
X9714354Y-9506969I5303J5303D01*
G01*
X9776226Y-9445097D01*
G75*
G02*
X9786832Y-9445097I5303J-5303D01*
G01*
X9797439Y-9455704D01*
G75*
G02*
X9797439Y-9466310I-5303J-5303D01*
G01*
G37*
G36*
G01*
X9843401Y-9512272D02*
X9781529Y-9574144D01*
G75*
G02*
X9770923Y-9574144I-5303J5303D01*
G01*
X9760316Y-9563537D01*
G75*
G02*
X9760316Y-9552931I5303J5303D01*
G01*
X9822188Y-9491059D01*
G75*
G02*
X9832794Y-9491059I5303J-5303D01*
G01*
X9843401Y-9501666D01*
G75*
G02*
X9843401Y-9512272I-5303J-5303D01*
G01*
G37*
G36*
G01*
X9889363Y-9558234D02*
X9827491Y-9620106D01*
G75*
G02*
X9816885Y-9620106I-5303J5303D01*
G01*
X9806278Y-9609499D01*
G75*
G02*
X9806278Y-9598893I5303J5303D01*
G01*
X9868150Y-9537021D01*
G75*
G02*
X9878756Y-9537021I5303J-5303D01*
G01*
X9889363Y-9547628D01*
G75*
G02*
X9889363Y-9558234I-5303J-5303D01*
G01*
G37*
G36*
G01*
X9935325Y-9604196D02*
X9873453Y-9666068D01*
G75*
G02*
X9862846Y-9666068I-5303J5303D01*
G01*
X9852240Y-9655461D01*
G75*
G02*
X9852240Y-9644855I5303J5303D01*
G01*
X9914112Y-9582983D01*
G75*
G02*
X9924718Y-9582983I5303J-5303D01*
G01*
X9935325Y-9593590D01*
G75*
G02*
X9935325Y-9604196I-5303J-5303D01*
G01*
G37*
G36*
G01*
X9981287Y-9650158D02*
X9919415Y-9712030D01*
G75*
G02*
X9908808Y-9712030I-5303J5303D01*
G01*
X9898202Y-9701423D01*
G75*
G02*
X9898202Y-9690817I5303J5303D01*
G01*
X9960074Y-9628945D01*
G75*
G02*
X9970680Y-9628945I5303J-5303D01*
G01*
X9981287Y-9639552D01*
G75*
G02*
X9981287Y-9650158I-5303J-5303D01*
G01*
G37*
G36*
G01*
X8829265Y-10261600D02*
X8778015Y-10261600D01*
G75*
G02*
X8756140Y-10239725I0J21875D01*
G01*
X8756140Y-10195975D01*
G75*
G02*
X8778015Y-10174100I21875J0D01*
G01*
X8829265Y-10174100D01*
G75*
G02*
X8851140Y-10195975I0J-21875D01*
G01*
X8851140Y-10239725D01*
G75*
G02*
X8829265Y-10261600I-21875J0D01*
G01*
G37*
G36*
G01*
X8829265Y-10419100D02*
X8778015Y-10419100D01*
G75*
G02*
X8756140Y-10397225I0J21875D01*
G01*
X8756140Y-10353475D01*
G75*
G02*
X8778015Y-10331600I21875J0D01*
G01*
X8829265Y-10331600D01*
G75*
G02*
X8851140Y-10353475I0J-21875D01*
G01*
X8851140Y-10397225D01*
G75*
G02*
X8829265Y-10419100I-21875J0D01*
G01*
G37*
G36*
G01*
X9039635Y-10174100D02*
X9090885Y-10174100D01*
G75*
G02*
X9112760Y-10195975I0J-21875D01*
G01*
X9112760Y-10239725D01*
G75*
G02*
X9090885Y-10261600I-21875J0D01*
G01*
X9039635Y-10261600D01*
G75*
G02*
X9017760Y-10239725I0J21875D01*
G01*
X9017760Y-10195975D01*
G75*
G02*
X9039635Y-10174100I21875J0D01*
G01*
G37*
G36*
G01*
X9039635Y-10331600D02*
X9090885Y-10331600D01*
G75*
G02*
X9112760Y-10353475I0J-21875D01*
G01*
X9112760Y-10397225D01*
G75*
G02*
X9090885Y-10419100I-21875J0D01*
G01*
X9039635Y-10419100D01*
G75*
G02*
X9017760Y-10397225I0J21875D01*
G01*
X9017760Y-10353475D01*
G75*
G02*
X9039635Y-10331600I21875J0D01*
G01*
G37*
D10*
X10906800Y-9416800D03*
X10906800Y-9321800D03*
X10906800Y-9226800D03*
X10686800Y-9226800D03*
X10686800Y-9416800D03*
G36*
G01*
X10902100Y-8049920D02*
X10952100Y-8049920D01*
G75*
G02*
X10974600Y-8072420I0J-22500D01*
G01*
X10974600Y-8117420D01*
G75*
G02*
X10952100Y-8139920I-22500J0D01*
G01*
X10902100Y-8139920D01*
G75*
G02*
X10879600Y-8117420I0J22500D01*
G01*
X10879600Y-8072420D01*
G75*
G02*
X10902100Y-8049920I22500J0D01*
G01*
G37*
G36*
G01*
X10902100Y-8204920D02*
X10952100Y-8204920D01*
G75*
G02*
X10974600Y-8227420I0J-22500D01*
G01*
X10974600Y-8272420D01*
G75*
G02*
X10952100Y-8294920I-22500J0D01*
G01*
X10902100Y-8294920D01*
G75*
G02*
X10879600Y-8272420I0J22500D01*
G01*
X10879600Y-8227420D01*
G75*
G02*
X10902100Y-8204920I22500J0D01*
G01*
G37*
G36*
G01*
X11488000Y-11791300D02*
X11438000Y-11791300D01*
G75*
G02*
X11415500Y-11768800I0J22500D01*
G01*
X11415500Y-11723800D01*
G75*
G02*
X11438000Y-11701300I22500J0D01*
G01*
X11488000Y-11701300D01*
G75*
G02*
X11510500Y-11723800I0J-22500D01*
G01*
X11510500Y-11768800D01*
G75*
G02*
X11488000Y-11791300I-22500J0D01*
G01*
G37*
G36*
G01*
X11488000Y-11636300D02*
X11438000Y-11636300D01*
G75*
G02*
X11415500Y-11613800I0J22500D01*
G01*
X11415500Y-11568800D01*
G75*
G02*
X11438000Y-11546300I22500J0D01*
G01*
X11488000Y-11546300D01*
G75*
G02*
X11510500Y-11568800I0J-22500D01*
G01*
X11510500Y-11613800D01*
G75*
G02*
X11488000Y-11636300I-22500J0D01*
G01*
G37*
G36*
G01*
X11176400Y-8204920D02*
X11226400Y-8204920D01*
G75*
G02*
X11248900Y-8227420I0J-22500D01*
G01*
X11248900Y-8272420D01*
G75*
G02*
X11226400Y-8294920I-22500J0D01*
G01*
X11176400Y-8294920D01*
G75*
G02*
X11153900Y-8272420I0J22500D01*
G01*
X11153900Y-8227420D01*
G75*
G02*
X11176400Y-8204920I22500J0D01*
G01*
G37*
G36*
G01*
X11176400Y-8049920D02*
X11226400Y-8049920D01*
G75*
G02*
X11248900Y-8072420I0J-22500D01*
G01*
X11248900Y-8117420D01*
G75*
G02*
X11226400Y-8139920I-22500J0D01*
G01*
X11176400Y-8139920D01*
G75*
G02*
X11153900Y-8117420I0J22500D01*
G01*
X11153900Y-8072420D01*
G75*
G02*
X11176400Y-8049920I22500J0D01*
G01*
G37*
G36*
G01*
X11440600Y-10322000D02*
X11490600Y-10322000D01*
G75*
G02*
X11513100Y-10344500I0J-22500D01*
G01*
X11513100Y-10389500D01*
G75*
G02*
X11490600Y-10412000I-22500J0D01*
G01*
X11440600Y-10412000D01*
G75*
G02*
X11418100Y-10389500I0J22500D01*
G01*
X11418100Y-10344500D01*
G75*
G02*
X11440600Y-10322000I22500J0D01*
G01*
G37*
G36*
G01*
X11440600Y-10477000D02*
X11490600Y-10477000D01*
G75*
G02*
X11513100Y-10499500I0J-22500D01*
G01*
X11513100Y-10544500D01*
G75*
G02*
X11490600Y-10567000I-22500J0D01*
G01*
X11440600Y-10567000D01*
G75*
G02*
X11418100Y-10544500I0J22500D01*
G01*
X11418100Y-10499500D01*
G75*
G02*
X11440600Y-10477000I22500J0D01*
G01*
G37*
G36*
G01*
X11660400Y-9362840D02*
X11660400Y-9412840D01*
G75*
G02*
X11637900Y-9435340I-22500J0D01*
G01*
X11592900Y-9435340D01*
G75*
G02*
X11570400Y-9412840I0J22500D01*
G01*
X11570400Y-9362840D01*
G75*
G02*
X11592900Y-9340340I22500J0D01*
G01*
X11637900Y-9340340D01*
G75*
G02*
X11660400Y-9362840I0J-22500D01*
G01*
G37*
G36*
G01*
X11815400Y-9362840D02*
X11815400Y-9412840D01*
G75*
G02*
X11792900Y-9435340I-22500J0D01*
G01*
X11747900Y-9435340D01*
G75*
G02*
X11725400Y-9412840I0J22500D01*
G01*
X11725400Y-9362840D01*
G75*
G02*
X11747900Y-9340340I22500J0D01*
G01*
X11792900Y-9340340D01*
G75*
G02*
X11815400Y-9362840I0J-22500D01*
G01*
G37*
G36*
G01*
X8824360Y-10725000D02*
X8874360Y-10725000D01*
G75*
G02*
X8896860Y-10747500I0J-22500D01*
G01*
X8896860Y-10792500D01*
G75*
G02*
X8874360Y-10815000I-22500J0D01*
G01*
X8824360Y-10815000D01*
G75*
G02*
X8801860Y-10792500I0J22500D01*
G01*
X8801860Y-10747500D01*
G75*
G02*
X8824360Y-10725000I22500J0D01*
G01*
G37*
G36*
G01*
X8824360Y-10570000D02*
X8874360Y-10570000D01*
G75*
G02*
X8896860Y-10592500I0J-22500D01*
G01*
X8896860Y-10637500D01*
G75*
G02*
X8874360Y-10660000I-22500J0D01*
G01*
X8824360Y-10660000D01*
G75*
G02*
X8801860Y-10637500I0J22500D01*
G01*
X8801860Y-10592500D01*
G75*
G02*
X8824360Y-10570000I22500J0D01*
G01*
G37*
G36*
G01*
X12243400Y-9510160D02*
X12243400Y-9560160D01*
G75*
G02*
X12220900Y-9582660I-22500J0D01*
G01*
X12175900Y-9582660D01*
G75*
G02*
X12153400Y-9560160I0J22500D01*
G01*
X12153400Y-9510160D01*
G75*
G02*
X12175900Y-9487660I22500J0D01*
G01*
X12220900Y-9487660D01*
G75*
G02*
X12243400Y-9510160I0J-22500D01*
G01*
G37*
G36*
G01*
X12088400Y-9510160D02*
X12088400Y-9560160D01*
G75*
G02*
X12065900Y-9582660I-22500J0D01*
G01*
X12020900Y-9582660D01*
G75*
G02*
X11998400Y-9560160I0J22500D01*
G01*
X11998400Y-9510160D01*
G75*
G02*
X12020900Y-9487660I22500J0D01*
G01*
X12065900Y-9487660D01*
G75*
G02*
X12088400Y-9510160I0J-22500D01*
G01*
G37*
G36*
G01*
X8312900Y-11262000D02*
X8312900Y-11212000D01*
G75*
G02*
X8335400Y-11189500I22500J0D01*
G01*
X8380400Y-11189500D01*
G75*
G02*
X8402900Y-11212000I0J-22500D01*
G01*
X8402900Y-11262000D01*
G75*
G02*
X8380400Y-11284500I-22500J0D01*
G01*
X8335400Y-11284500D01*
G75*
G02*
X8312900Y-11262000I0J22500D01*
G01*
G37*
G36*
G01*
X8157900Y-11262000D02*
X8157900Y-11212000D01*
G75*
G02*
X8180400Y-11189500I22500J0D01*
G01*
X8225400Y-11189500D01*
G75*
G02*
X8247900Y-11212000I0J-22500D01*
G01*
X8247900Y-11262000D01*
G75*
G02*
X8225400Y-11284500I-22500J0D01*
G01*
X8180400Y-11284500D01*
G75*
G02*
X8157900Y-11262000I0J22500D01*
G01*
G37*
G36*
G01*
X11412000Y-8758800D02*
X11412000Y-8868800D01*
G75*
G02*
X11387000Y-8893800I-25000J0D01*
G01*
X11087000Y-8893800D01*
G75*
G02*
X11062000Y-8868800I0J25000D01*
G01*
X11062000Y-8758800D01*
G75*
G02*
X11087000Y-8733800I25000J0D01*
G01*
X11387000Y-8733800D01*
G75*
G02*
X11412000Y-8758800I0J-25000D01*
G01*
G37*
G36*
G01*
X11952000Y-8758800D02*
X11952000Y-8868800D01*
G75*
G02*
X11927000Y-8893800I-25000J0D01*
G01*
X11627000Y-8893800D01*
G75*
G02*
X11602000Y-8868800I0J25000D01*
G01*
X11602000Y-8758800D01*
G75*
G02*
X11627000Y-8733800I25000J0D01*
G01*
X11927000Y-8733800D01*
G75*
G02*
X11952000Y-8758800I0J-25000D01*
G01*
G37*
G36*
G01*
X8331780Y-9134240D02*
X8331780Y-9184240D01*
G75*
G02*
X8309280Y-9206740I-22500J0D01*
G01*
X8264280Y-9206740D01*
G75*
G02*
X8241780Y-9184240I0J22500D01*
G01*
X8241780Y-9134240D01*
G75*
G02*
X8264280Y-9111740I22500J0D01*
G01*
X8309280Y-9111740D01*
G75*
G02*
X8331780Y-9134240I0J-22500D01*
G01*
G37*
G36*
G01*
X8176780Y-9134240D02*
X8176780Y-9184240D01*
G75*
G02*
X8154280Y-9206740I-22500J0D01*
G01*
X8109280Y-9206740D01*
G75*
G02*
X8086780Y-9184240I0J22500D01*
G01*
X8086780Y-9134240D01*
G75*
G02*
X8109280Y-9111740I22500J0D01*
G01*
X8154280Y-9111740D01*
G75*
G02*
X8176780Y-9134240I0J-22500D01*
G01*
G37*
G36*
G01*
X7779520Y-10712800D02*
X7779520Y-10602800D01*
G75*
G02*
X7804520Y-10577800I25000J0D01*
G01*
X8104520Y-10577800D01*
G75*
G02*
X8129520Y-10602800I0J-25000D01*
G01*
X8129520Y-10712800D01*
G75*
G02*
X8104520Y-10737800I-25000J0D01*
G01*
X7804520Y-10737800D01*
G75*
G02*
X7779520Y-10712800I0J25000D01*
G01*
G37*
G36*
G01*
X8319520Y-10712800D02*
X8319520Y-10602800D01*
G75*
G02*
X8344520Y-10577800I25000J0D01*
G01*
X8644520Y-10577800D01*
G75*
G02*
X8669520Y-10602800I0J-25000D01*
G01*
X8669520Y-10712800D01*
G75*
G02*
X8644520Y-10737800I-25000J0D01*
G01*
X8344520Y-10737800D01*
G75*
G02*
X8319520Y-10712800I0J25000D01*
G01*
G37*
G36*
G01*
X7886130Y-8886225D02*
X7886130Y-8834975D01*
G75*
G02*
X7908005Y-8813100I21875J0D01*
G01*
X7951755Y-8813100D01*
G75*
G02*
X7973630Y-8834975I0J-21875D01*
G01*
X7973630Y-8886225D01*
G75*
G02*
X7951755Y-8908100I-21875J0D01*
G01*
X7908005Y-8908100D01*
G75*
G02*
X7886130Y-8886225I0J21875D01*
G01*
G37*
G36*
G01*
X7728630Y-8886225D02*
X7728630Y-8834975D01*
G75*
G02*
X7750505Y-8813100I21875J0D01*
G01*
X7794255Y-8813100D01*
G75*
G02*
X7816130Y-8834975I0J-21875D01*
G01*
X7816130Y-8886225D01*
G75*
G02*
X7794255Y-8908100I-21875J0D01*
G01*
X7750505Y-8908100D01*
G75*
G02*
X7728630Y-8886225I0J21875D01*
G01*
G37*
G36*
G01*
X7728630Y-8610825D02*
X7728630Y-8559575D01*
G75*
G02*
X7750505Y-8537700I21875J0D01*
G01*
X7794255Y-8537700D01*
G75*
G02*
X7816130Y-8559575I0J-21875D01*
G01*
X7816130Y-8610825D01*
G75*
G02*
X7794255Y-8632700I-21875J0D01*
G01*
X7750505Y-8632700D01*
G75*
G02*
X7728630Y-8610825I0J21875D01*
G01*
G37*
G36*
G01*
X7886130Y-8610825D02*
X7886130Y-8559575D01*
G75*
G02*
X7908005Y-8537700I21875J0D01*
G01*
X7951755Y-8537700D01*
G75*
G02*
X7973630Y-8559575I0J-21875D01*
G01*
X7973630Y-8610825D01*
G75*
G02*
X7951755Y-8632700I-21875J0D01*
G01*
X7908005Y-8632700D01*
G75*
G02*
X7886130Y-8610825I0J21875D01*
G01*
G37*
D11*
X10532200Y-7736560D03*
X10532200Y-8336560D03*
X9432200Y-8336560D03*
X9432200Y-7736560D03*
G36*
G01*
X11727600Y-10742400D02*
X11782600Y-10742400D01*
G75*
G02*
X11802600Y-10762400I0J-20000D01*
G01*
X11802600Y-10802400D01*
G75*
G02*
X11782600Y-10822400I-20000J0D01*
G01*
X11727600Y-10822400D01*
G75*
G02*
X11707600Y-10802400I0J20000D01*
G01*
X11707600Y-10762400D01*
G75*
G02*
X11727600Y-10742400I20000J0D01*
G01*
G37*
G36*
G01*
X11727600Y-10907400D02*
X11782600Y-10907400D01*
G75*
G02*
X11802600Y-10927400I0J-20000D01*
G01*
X11802600Y-10967400D01*
G75*
G02*
X11782600Y-10987400I-20000J0D01*
G01*
X11727600Y-10987400D01*
G75*
G02*
X11707600Y-10967400I0J20000D01*
G01*
X11707600Y-10927400D01*
G75*
G02*
X11727600Y-10907400I20000J0D01*
G01*
G37*
G36*
G01*
X11198400Y-11791300D02*
X11143400Y-11791300D01*
G75*
G02*
X11123400Y-11771300I0J20000D01*
G01*
X11123400Y-11731300D01*
G75*
G02*
X11143400Y-11711300I20000J0D01*
G01*
X11198400Y-11711300D01*
G75*
G02*
X11218400Y-11731300I0J-20000D01*
G01*
X11218400Y-11771300D01*
G75*
G02*
X11198400Y-11791300I-20000J0D01*
G01*
G37*
G36*
G01*
X11198400Y-11626300D02*
X11143400Y-11626300D01*
G75*
G02*
X11123400Y-11606300I0J20000D01*
G01*
X11123400Y-11566300D01*
G75*
G02*
X11143400Y-11546300I20000J0D01*
G01*
X11198400Y-11546300D01*
G75*
G02*
X11218400Y-11566300I0J-20000D01*
G01*
X11218400Y-11606300D01*
G75*
G02*
X11198400Y-11626300I-20000J0D01*
G01*
G37*
G36*
G01*
X11782600Y-11224900D02*
X11727600Y-11224900D01*
G75*
G02*
X11707600Y-11204900I0J20000D01*
G01*
X11707600Y-11164900D01*
G75*
G02*
X11727600Y-11144900I20000J0D01*
G01*
X11782600Y-11144900D01*
G75*
G02*
X11802600Y-11164900I0J-20000D01*
G01*
X11802600Y-11204900D01*
G75*
G02*
X11782600Y-11224900I-20000J0D01*
G01*
G37*
G36*
G01*
X11782600Y-11389900D02*
X11727600Y-11389900D01*
G75*
G02*
X11707600Y-11369900I0J20000D01*
G01*
X11707600Y-11329900D01*
G75*
G02*
X11727600Y-11309900I20000J0D01*
G01*
X11782600Y-11309900D01*
G75*
G02*
X11802600Y-11329900I0J-20000D01*
G01*
X11802600Y-11369900D01*
G75*
G02*
X11782600Y-11389900I-20000J0D01*
G01*
G37*
G36*
G01*
X11782600Y-10567000D02*
X11727600Y-10567000D01*
G75*
G02*
X11707600Y-10547000I0J20000D01*
G01*
X11707600Y-10507000D01*
G75*
G02*
X11727600Y-10487000I20000J0D01*
G01*
X11782600Y-10487000D01*
G75*
G02*
X11802600Y-10507000I0J-20000D01*
G01*
X11802600Y-10547000D01*
G75*
G02*
X11782600Y-10567000I-20000J0D01*
G01*
G37*
G36*
G01*
X11782600Y-10402000D02*
X11727600Y-10402000D01*
G75*
G02*
X11707600Y-10382000I0J20000D01*
G01*
X11707600Y-10342000D01*
G75*
G02*
X11727600Y-10322000I20000J0D01*
G01*
X11782600Y-10322000D01*
G75*
G02*
X11802600Y-10342000I0J-20000D01*
G01*
X11802600Y-10382000D01*
G75*
G02*
X11782600Y-10402000I-20000J0D01*
G01*
G37*
G36*
G01*
X8821860Y-11141100D02*
X8876860Y-11141100D01*
G75*
G02*
X8896860Y-11161100I0J-20000D01*
G01*
X8896860Y-11201100D01*
G75*
G02*
X8876860Y-11221100I-20000J0D01*
G01*
X8821860Y-11221100D01*
G75*
G02*
X8801860Y-11201100I0J20000D01*
G01*
X8801860Y-11161100D01*
G75*
G02*
X8821860Y-11141100I20000J0D01*
G01*
G37*
G36*
G01*
X8821860Y-10976100D02*
X8876860Y-10976100D01*
G75*
G02*
X8896860Y-10996100I0J-20000D01*
G01*
X8896860Y-11036100D01*
G75*
G02*
X8876860Y-11056100I-20000J0D01*
G01*
X8821860Y-11056100D01*
G75*
G02*
X8801860Y-11036100I0J20000D01*
G01*
X8801860Y-10996100D01*
G75*
G02*
X8821860Y-10976100I20000J0D01*
G01*
G37*
G36*
G01*
X11576700Y-9704900D02*
X11576700Y-9649900D01*
G75*
G02*
X11596700Y-9629900I20000J0D01*
G01*
X11636700Y-9629900D01*
G75*
G02*
X11656700Y-9649900I0J-20000D01*
G01*
X11656700Y-9704900D01*
G75*
G02*
X11636700Y-9724900I-20000J0D01*
G01*
X11596700Y-9724900D01*
G75*
G02*
X11576700Y-9704900I0J20000D01*
G01*
G37*
G36*
G01*
X11741700Y-9704900D02*
X11741700Y-9649900D01*
G75*
G02*
X11761700Y-9629900I20000J0D01*
G01*
X11801700Y-9629900D01*
G75*
G02*
X11821700Y-9649900I0J-20000D01*
G01*
X11821700Y-9704900D01*
G75*
G02*
X11801700Y-9724900I-20000J0D01*
G01*
X11761700Y-9724900D01*
G75*
G02*
X11741700Y-9704900I0J20000D01*
G01*
G37*
G36*
G01*
X11336600Y-9420420D02*
X11336600Y-9365420D01*
G75*
G02*
X11356600Y-9345420I20000J0D01*
G01*
X11396600Y-9345420D01*
G75*
G02*
X11416600Y-9365420I0J-20000D01*
G01*
X11416600Y-9420420D01*
G75*
G02*
X11396600Y-9440420I-20000J0D01*
G01*
X11356600Y-9440420D01*
G75*
G02*
X11336600Y-9420420I0J20000D01*
G01*
G37*
G36*
G01*
X11171600Y-9420420D02*
X11171600Y-9365420D01*
G75*
G02*
X11191600Y-9345420I20000J0D01*
G01*
X11231600Y-9345420D01*
G75*
G02*
X11251600Y-9365420I0J-20000D01*
G01*
X11251600Y-9420420D01*
G75*
G02*
X11231600Y-9440420I-20000J0D01*
G01*
X11191600Y-9440420D01*
G75*
G02*
X11171600Y-9420420I0J20000D01*
G01*
G37*
G36*
G01*
X11198400Y-10822400D02*
X11143400Y-10822400D01*
G75*
G02*
X11123400Y-10802400I0J20000D01*
G01*
X11123400Y-10762400D01*
G75*
G02*
X11143400Y-10742400I20000J0D01*
G01*
X11198400Y-10742400D01*
G75*
G02*
X11218400Y-10762400I0J-20000D01*
G01*
X11218400Y-10802400D01*
G75*
G02*
X11198400Y-10822400I-20000J0D01*
G01*
G37*
G36*
G01*
X11198400Y-10987400D02*
X11143400Y-10987400D01*
G75*
G02*
X11123400Y-10967400I0J20000D01*
G01*
X11123400Y-10927400D01*
G75*
G02*
X11143400Y-10907400I20000J0D01*
G01*
X11198400Y-10907400D01*
G75*
G02*
X11218400Y-10927400I0J-20000D01*
G01*
X11218400Y-10967400D01*
G75*
G02*
X11198400Y-10987400I-20000J0D01*
G01*
G37*
G36*
G01*
X11143400Y-11144300D02*
X11198400Y-11144300D01*
G75*
G02*
X11218400Y-11164300I0J-20000D01*
G01*
X11218400Y-11204300D01*
G75*
G02*
X11198400Y-11224300I-20000J0D01*
G01*
X11143400Y-11224300D01*
G75*
G02*
X11123400Y-11204300I0J20000D01*
G01*
X11123400Y-11164300D01*
G75*
G02*
X11143400Y-11144300I20000J0D01*
G01*
G37*
G36*
G01*
X11143400Y-11309300D02*
X11198400Y-11309300D01*
G75*
G02*
X11218400Y-11329300I0J-20000D01*
G01*
X11218400Y-11369300D01*
G75*
G02*
X11198400Y-11389300I-20000J0D01*
G01*
X11143400Y-11389300D01*
G75*
G02*
X11123400Y-11369300I0J20000D01*
G01*
X11123400Y-11329300D01*
G75*
G02*
X11143400Y-11309300I20000J0D01*
G01*
G37*
G36*
G01*
X9032820Y-8829100D02*
X9032820Y-8884100D01*
G75*
G02*
X9012820Y-8904100I-20000J0D01*
G01*
X8972820Y-8904100D01*
G75*
G02*
X8952820Y-8884100I0J20000D01*
G01*
X8952820Y-8829100D01*
G75*
G02*
X8972820Y-8809100I20000J0D01*
G01*
X9012820Y-8809100D01*
G75*
G02*
X9032820Y-8829100I0J-20000D01*
G01*
G37*
G36*
G01*
X8867820Y-8829100D02*
X8867820Y-8884100D01*
G75*
G02*
X8847820Y-8904100I-20000J0D01*
G01*
X8807820Y-8904100D01*
G75*
G02*
X8787820Y-8884100I0J20000D01*
G01*
X8787820Y-8829100D01*
G75*
G02*
X8807820Y-8809100I20000J0D01*
G01*
X8847820Y-8809100D01*
G75*
G02*
X8867820Y-8829100I0J-20000D01*
G01*
G37*
G36*
G01*
X8867820Y-8557700D02*
X8867820Y-8612700D01*
G75*
G02*
X8847820Y-8632700I-20000J0D01*
G01*
X8807820Y-8632700D01*
G75*
G02*
X8787820Y-8612700I0J20000D01*
G01*
X8787820Y-8557700D01*
G75*
G02*
X8807820Y-8537700I20000J0D01*
G01*
X8847820Y-8537700D01*
G75*
G02*
X8867820Y-8557700I0J-20000D01*
G01*
G37*
G36*
G01*
X9032820Y-8557700D02*
X9032820Y-8612700D01*
G75*
G02*
X9012820Y-8632700I-20000J0D01*
G01*
X8972820Y-8632700D01*
G75*
G02*
X8952820Y-8612700I0J20000D01*
G01*
X8952820Y-8557700D01*
G75*
G02*
X8972820Y-8537700I20000J0D01*
G01*
X9012820Y-8537700D01*
G75*
G02*
X9032820Y-8557700I0J-20000D01*
G01*
G37*
G36*
G01*
X9374460Y-9064820D02*
X9374460Y-9009820D01*
G75*
G02*
X9394460Y-8989820I20000J0D01*
G01*
X9434460Y-8989820D01*
G75*
G02*
X9454460Y-9009820I0J-20000D01*
G01*
X9454460Y-9064820D01*
G75*
G02*
X9434460Y-9084820I-20000J0D01*
G01*
X9394460Y-9084820D01*
G75*
G02*
X9374460Y-9064820I0J20000D01*
G01*
G37*
G36*
G01*
X9209460Y-9064820D02*
X9209460Y-9009820D01*
G75*
G02*
X9229460Y-8989820I20000J0D01*
G01*
X9269460Y-8989820D01*
G75*
G02*
X9289460Y-9009820I0J-20000D01*
G01*
X9289460Y-9064820D01*
G75*
G02*
X9269460Y-9084820I-20000J0D01*
G01*
X9229460Y-9084820D01*
G75*
G02*
X9209460Y-9064820I0J20000D01*
G01*
G37*
G36*
G01*
X11435500Y-10742400D02*
X11490500Y-10742400D01*
G75*
G02*
X11510500Y-10762400I0J-20000D01*
G01*
X11510500Y-10802400D01*
G75*
G02*
X11490500Y-10822400I-20000J0D01*
G01*
X11435500Y-10822400D01*
G75*
G02*
X11415500Y-10802400I0J20000D01*
G01*
X11415500Y-10762400D01*
G75*
G02*
X11435500Y-10742400I20000J0D01*
G01*
G37*
G36*
G01*
X11435500Y-10907400D02*
X11490500Y-10907400D01*
G75*
G02*
X11510500Y-10927400I0J-20000D01*
G01*
X11510500Y-10967400D01*
G75*
G02*
X11490500Y-10987400I-20000J0D01*
G01*
X11435500Y-10987400D01*
G75*
G02*
X11415500Y-10967400I0J20000D01*
G01*
X11415500Y-10927400D01*
G75*
G02*
X11435500Y-10907400I20000J0D01*
G01*
G37*
G36*
G01*
X11435500Y-11309300D02*
X11490500Y-11309300D01*
G75*
G02*
X11510500Y-11329300I0J-20000D01*
G01*
X11510500Y-11369300D01*
G75*
G02*
X11490500Y-11389300I-20000J0D01*
G01*
X11435500Y-11389300D01*
G75*
G02*
X11415500Y-11369300I0J20000D01*
G01*
X11415500Y-11329300D01*
G75*
G02*
X11435500Y-11309300I20000J0D01*
G01*
G37*
G36*
G01*
X11435500Y-11144300D02*
X11490500Y-11144300D01*
G75*
G02*
X11510500Y-11164300I0J-20000D01*
G01*
X11510500Y-11204300D01*
G75*
G02*
X11490500Y-11224300I-20000J0D01*
G01*
X11435500Y-11224300D01*
G75*
G02*
X11415500Y-11204300I0J20000D01*
G01*
X11415500Y-11164300D01*
G75*
G02*
X11435500Y-11144300I20000J0D01*
G01*
G37*
D12*
X8803640Y-11848900D03*
X8803640Y-11508900D03*
D13*
X10760000Y-12200000D03*
X10760000Y-12000000D03*
X10760000Y-11800000D03*
X10760000Y-11600000D03*
X10760000Y-11400000D03*
X10760000Y-11200000D03*
X10760000Y-11000000D03*
X10760000Y-10800000D03*
D14*
X10500000Y-10650000D03*
X10300000Y-10650000D03*
X10100000Y-10650000D03*
X9900000Y-10650000D03*
X9700000Y-10650000D03*
X9500000Y-10650000D03*
D13*
X9240000Y-10800000D03*
X9240000Y-11000000D03*
X9240000Y-11200000D03*
X9240000Y-11400000D03*
X9240000Y-11600000D03*
X9240000Y-11800000D03*
X9240000Y-12000000D03*
X9240000Y-12200000D03*
D15*
X12223500Y-9858700D03*
X12158500Y-9858700D03*
X12093500Y-9858700D03*
X12028500Y-9858700D03*
X12028500Y-10298700D03*
X12093500Y-10298700D03*
X12158500Y-10298700D03*
X12223500Y-10298700D03*
G36*
G01*
X11646975Y-9895000D02*
X11668225Y-9895000D01*
G75*
G02*
X11677600Y-9904375I0J-9375D01*
G01*
X11677600Y-9923125D01*
G75*
G02*
X11668225Y-9932500I-9375J0D01*
G01*
X11646975Y-9932500D01*
G75*
G02*
X11637600Y-9923125I0J9375D01*
G01*
X11637600Y-9904375D01*
G75*
G02*
X11646975Y-9895000I9375J0D01*
G01*
G37*
G36*
G01*
X11581975Y-9895000D02*
X11603225Y-9895000D01*
G75*
G02*
X11612600Y-9904375I0J-9375D01*
G01*
X11612600Y-9923125D01*
G75*
G02*
X11603225Y-9932500I-9375J0D01*
G01*
X11581975Y-9932500D01*
G75*
G02*
X11572600Y-9923125I0J9375D01*
G01*
X11572600Y-9904375D01*
G75*
G02*
X11581975Y-9895000I9375J0D01*
G01*
G37*
G36*
G01*
X11516975Y-9895000D02*
X11538225Y-9895000D01*
G75*
G02*
X11547600Y-9904375I0J-9375D01*
G01*
X11547600Y-9923125D01*
G75*
G02*
X11538225Y-9932500I-9375J0D01*
G01*
X11516975Y-9932500D01*
G75*
G02*
X11507600Y-9923125I0J9375D01*
G01*
X11507600Y-9904375D01*
G75*
G02*
X11516975Y-9895000I9375J0D01*
G01*
G37*
G36*
G01*
X11516975Y-10072500D02*
X11538225Y-10072500D01*
G75*
G02*
X11547600Y-10081875I0J-9375D01*
G01*
X11547600Y-10100625D01*
G75*
G02*
X11538225Y-10110000I-9375J0D01*
G01*
X11516975Y-10110000D01*
G75*
G02*
X11507600Y-10100625I0J9375D01*
G01*
X11507600Y-10081875D01*
G75*
G02*
X11516975Y-10072500I9375J0D01*
G01*
G37*
G36*
G01*
X11581975Y-10072500D02*
X11603225Y-10072500D01*
G75*
G02*
X11612600Y-10081875I0J-9375D01*
G01*
X11612600Y-10100625D01*
G75*
G02*
X11603225Y-10110000I-9375J0D01*
G01*
X11581975Y-10110000D01*
G75*
G02*
X11572600Y-10100625I0J9375D01*
G01*
X11572600Y-10081875D01*
G75*
G02*
X11581975Y-10072500I9375J0D01*
G01*
G37*
G36*
G01*
X11646975Y-10072500D02*
X11668225Y-10072500D01*
G75*
G02*
X11677600Y-10081875I0J-9375D01*
G01*
X11677600Y-10100625D01*
G75*
G02*
X11668225Y-10110000I-9375J0D01*
G01*
X11646975Y-10110000D01*
G75*
G02*
X11637600Y-10100625I0J9375D01*
G01*
X11637600Y-10081875D01*
G75*
G02*
X11646975Y-10072500I9375J0D01*
G01*
G37*
G36*
G01*
X11615350Y-9959000D02*
X11649850Y-9959000D01*
G75*
G02*
X11667100Y-9976250I0J-17250D01*
G01*
X11667100Y-10028750D01*
G75*
G02*
X11649850Y-10046000I-17250J0D01*
G01*
X11615350Y-10046000D01*
G75*
G02*
X11598100Y-10028750I0J17250D01*
G01*
X11598100Y-9976250D01*
G75*
G02*
X11615350Y-9959000I17250J0D01*
G01*
G37*
G36*
G01*
X11535350Y-9959000D02*
X11569850Y-9959000D01*
G75*
G02*
X11587100Y-9976250I0J-17250D01*
G01*
X11587100Y-10028750D01*
G75*
G02*
X11569850Y-10046000I-17250J0D01*
G01*
X11535350Y-10046000D01*
G75*
G02*
X11518100Y-10028750I0J17250D01*
G01*
X11518100Y-9976250D01*
G75*
G02*
X11535350Y-9959000I17250J0D01*
G01*
G37*
D16*
X8453160Y-9773920D03*
D17*
X7823160Y-9773920D03*
X7823160Y-10003920D03*
X7823160Y-9543920D03*
G36*
G01*
X8828640Y-9446780D02*
X8778640Y-9446780D01*
G75*
G02*
X8756140Y-9424280I0J22500D01*
G01*
X8756140Y-9379280D01*
G75*
G02*
X8778640Y-9356780I22500J0D01*
G01*
X8828640Y-9356780D01*
G75*
G02*
X8851140Y-9379280I0J-22500D01*
G01*
X8851140Y-9424280D01*
G75*
G02*
X8828640Y-9446780I-22500J0D01*
G01*
G37*
G36*
G01*
X8828640Y-9601780D02*
X8778640Y-9601780D01*
G75*
G02*
X8756140Y-9579280I0J22500D01*
G01*
X8756140Y-9534280D01*
G75*
G02*
X8778640Y-9511780I22500J0D01*
G01*
X8828640Y-9511780D01*
G75*
G02*
X8851140Y-9534280I0J-22500D01*
G01*
X8851140Y-9579280D01*
G75*
G02*
X8828640Y-9601780I-22500J0D01*
G01*
G37*
G36*
G01*
X8787820Y-9174080D02*
X8787820Y-9124080D01*
G75*
G02*
X8810320Y-9101580I22500J0D01*
G01*
X8855320Y-9101580D01*
G75*
G02*
X8877820Y-9124080I0J-22500D01*
G01*
X8877820Y-9174080D01*
G75*
G02*
X8855320Y-9196580I-22500J0D01*
G01*
X8810320Y-9196580D01*
G75*
G02*
X8787820Y-9174080I0J22500D01*
G01*
G37*
G36*
G01*
X8942820Y-9174080D02*
X8942820Y-9124080D01*
G75*
G02*
X8965320Y-9101580I22500J0D01*
G01*
X9010320Y-9101580D01*
G75*
G02*
X9032820Y-9124080I0J-22500D01*
G01*
X9032820Y-9174080D01*
G75*
G02*
X9010320Y-9196580I-22500J0D01*
G01*
X8965320Y-9196580D01*
G75*
G02*
X8942820Y-9174080I0J22500D01*
G01*
G37*
G36*
G01*
X9351880Y-10001800D02*
X9301880Y-10001800D01*
G75*
G02*
X9279380Y-9979300I0J22500D01*
G01*
X9279380Y-9934300D01*
G75*
G02*
X9301880Y-9911800I22500J0D01*
G01*
X9351880Y-9911800D01*
G75*
G02*
X9374380Y-9934300I0J-22500D01*
G01*
X9374380Y-9979300D01*
G75*
G02*
X9351880Y-10001800I-22500J0D01*
G01*
G37*
G36*
G01*
X9351880Y-9846800D02*
X9301880Y-9846800D01*
G75*
G02*
X9279380Y-9824300I0J22500D01*
G01*
X9279380Y-9779300D01*
G75*
G02*
X9301880Y-9756800I22500J0D01*
G01*
X9351880Y-9756800D01*
G75*
G02*
X9374380Y-9779300I0J-22500D01*
G01*
X9374380Y-9824300D01*
G75*
G02*
X9351880Y-9846800I-22500J0D01*
G01*
G37*
G36*
G01*
X9090260Y-9849400D02*
X9040260Y-9849400D01*
G75*
G02*
X9017760Y-9826900I0J22500D01*
G01*
X9017760Y-9781900D01*
G75*
G02*
X9040260Y-9759400I22500J0D01*
G01*
X9090260Y-9759400D01*
G75*
G02*
X9112760Y-9781900I0J-22500D01*
G01*
X9112760Y-9826900D01*
G75*
G02*
X9090260Y-9849400I-22500J0D01*
G01*
G37*
G36*
G01*
X9090260Y-10004400D02*
X9040260Y-10004400D01*
G75*
G02*
X9017760Y-9981900I0J22500D01*
G01*
X9017760Y-9936900D01*
G75*
G02*
X9040260Y-9914400I22500J0D01*
G01*
X9090260Y-9914400D01*
G75*
G02*
X9112760Y-9936900I0J-22500D01*
G01*
X9112760Y-9981900D01*
G75*
G02*
X9090260Y-10004400I-22500J0D01*
G01*
G37*
G36*
G01*
X11166200Y-10473200D02*
X11216200Y-10473200D01*
G75*
G02*
X11238700Y-10495700I0J-22500D01*
G01*
X11238700Y-10540700D01*
G75*
G02*
X11216200Y-10563200I-22500J0D01*
G01*
X11166200Y-10563200D01*
G75*
G02*
X11143700Y-10540700I0J22500D01*
G01*
X11143700Y-10495700D01*
G75*
G02*
X11166200Y-10473200I22500J0D01*
G01*
G37*
G36*
G01*
X11166200Y-10318200D02*
X11216200Y-10318200D01*
G75*
G02*
X11238700Y-10340700I0J-22500D01*
G01*
X11238700Y-10385700D01*
G75*
G02*
X11216200Y-10408200I-22500J0D01*
G01*
X11166200Y-10408200D01*
G75*
G02*
X11143700Y-10385700I0J22500D01*
G01*
X11143700Y-10340700D01*
G75*
G02*
X11166200Y-10318200I22500J0D01*
G01*
G37*
G36*
G01*
X8828640Y-10012960D02*
X8778640Y-10012960D01*
G75*
G02*
X8756140Y-9990460I0J22500D01*
G01*
X8756140Y-9945460D01*
G75*
G02*
X8778640Y-9922960I22500J0D01*
G01*
X8828640Y-9922960D01*
G75*
G02*
X8851140Y-9945460I0J-22500D01*
G01*
X8851140Y-9990460D01*
G75*
G02*
X8828640Y-10012960I-22500J0D01*
G01*
G37*
G36*
G01*
X8828640Y-9857960D02*
X8778640Y-9857960D01*
G75*
G02*
X8756140Y-9835460I0J22500D01*
G01*
X8756140Y-9790460D01*
G75*
G02*
X8778640Y-9767960I22500J0D01*
G01*
X8828640Y-9767960D01*
G75*
G02*
X8851140Y-9790460I0J-22500D01*
G01*
X8851140Y-9835460D01*
G75*
G02*
X8828640Y-9857960I-22500J0D01*
G01*
G37*
G36*
G01*
X11416600Y-9652400D02*
X11416600Y-9702400D01*
G75*
G02*
X11394100Y-9724900I-22500J0D01*
G01*
X11349100Y-9724900D01*
G75*
G02*
X11326600Y-9702400I0J22500D01*
G01*
X11326600Y-9652400D01*
G75*
G02*
X11349100Y-9629900I22500J0D01*
G01*
X11394100Y-9629900D01*
G75*
G02*
X11416600Y-9652400I0J-22500D01*
G01*
G37*
G36*
G01*
X11261600Y-9652400D02*
X11261600Y-9702400D01*
G75*
G02*
X11239100Y-9724900I-22500J0D01*
G01*
X11194100Y-9724900D01*
G75*
G02*
X11171600Y-9702400I0J22500D01*
G01*
X11171600Y-9652400D01*
G75*
G02*
X11194100Y-9629900I22500J0D01*
G01*
X11239100Y-9629900D01*
G75*
G02*
X11261600Y-9652400I0J-22500D01*
G01*
G37*
G36*
G01*
X10673800Y-8986120D02*
X10673800Y-8936120D01*
G75*
G02*
X10696300Y-8913620I22500J0D01*
G01*
X10741300Y-8913620D01*
G75*
G02*
X10763800Y-8936120I0J-22500D01*
G01*
X10763800Y-8986120D01*
G75*
G02*
X10741300Y-9008620I-22500J0D01*
G01*
X10696300Y-9008620D01*
G75*
G02*
X10673800Y-8986120I0J22500D01*
G01*
G37*
G36*
G01*
X10828800Y-8986120D02*
X10828800Y-8936120D01*
G75*
G02*
X10851300Y-8913620I22500J0D01*
G01*
X10896300Y-8913620D01*
G75*
G02*
X10918800Y-8936120I0J-22500D01*
G01*
X10918800Y-8986120D01*
G75*
G02*
X10896300Y-9008620I-22500J0D01*
G01*
X10851300Y-9008620D01*
G75*
G02*
X10828800Y-8986120I0J22500D01*
G01*
G37*
G36*
G01*
X10555800Y-9722400D02*
X10505800Y-9722400D01*
G75*
G02*
X10483300Y-9699900I0J22500D01*
G01*
X10483300Y-9654900D01*
G75*
G02*
X10505800Y-9632400I22500J0D01*
G01*
X10555800Y-9632400D01*
G75*
G02*
X10578300Y-9654900I0J-22500D01*
G01*
X10578300Y-9699900D01*
G75*
G02*
X10555800Y-9722400I-22500J0D01*
G01*
G37*
G36*
G01*
X10555800Y-9877400D02*
X10505800Y-9877400D01*
G75*
G02*
X10483300Y-9854900I0J22500D01*
G01*
X10483300Y-9809900D01*
G75*
G02*
X10505800Y-9787400I22500J0D01*
G01*
X10555800Y-9787400D01*
G75*
G02*
X10578300Y-9809900I0J-22500D01*
G01*
X10578300Y-9854900D01*
G75*
G02*
X10555800Y-9877400I-22500J0D01*
G01*
G37*
G36*
G01*
X7728630Y-8335425D02*
X7728630Y-8284175D01*
G75*
G02*
X7750505Y-8262300I21875J0D01*
G01*
X7794255Y-8262300D01*
G75*
G02*
X7816130Y-8284175I0J-21875D01*
G01*
X7816130Y-8335425D01*
G75*
G02*
X7794255Y-8357300I-21875J0D01*
G01*
X7750505Y-8357300D01*
G75*
G02*
X7728630Y-8335425I0J21875D01*
G01*
G37*
G36*
G01*
X7886130Y-8335425D02*
X7886130Y-8284175D01*
G75*
G02*
X7908005Y-8262300I21875J0D01*
G01*
X7951755Y-8262300D01*
G75*
G02*
X7973630Y-8284175I0J-21875D01*
G01*
X7973630Y-8335425D01*
G75*
G02*
X7951755Y-8357300I-21875J0D01*
G01*
X7908005Y-8357300D01*
G75*
G02*
X7886130Y-8335425I0J21875D01*
G01*
G37*
G36*
G01*
X9037760Y-9521780D02*
X9092760Y-9521780D01*
G75*
G02*
X9112760Y-9541780I0J-20000D01*
G01*
X9112760Y-9581780D01*
G75*
G02*
X9092760Y-9601780I-20000J0D01*
G01*
X9037760Y-9601780D01*
G75*
G02*
X9017760Y-9581780I0J20000D01*
G01*
X9017760Y-9541780D01*
G75*
G02*
X9037760Y-9521780I20000J0D01*
G01*
G37*
G36*
G01*
X9037760Y-9356780D02*
X9092760Y-9356780D01*
G75*
G02*
X9112760Y-9376780I0J-20000D01*
G01*
X9112760Y-9416780D01*
G75*
G02*
X9092760Y-9436780I-20000J0D01*
G01*
X9037760Y-9436780D01*
G75*
G02*
X9017760Y-9416780I0J20000D01*
G01*
X9017760Y-9376780D01*
G75*
G02*
X9037760Y-9356780I20000J0D01*
G01*
G37*
G36*
G01*
X11163700Y-9874940D02*
X11218700Y-9874940D01*
G75*
G02*
X11238700Y-9894940I0J-20000D01*
G01*
X11238700Y-9934940D01*
G75*
G02*
X11218700Y-9954940I-20000J0D01*
G01*
X11163700Y-9954940D01*
G75*
G02*
X11143700Y-9934940I0J20000D01*
G01*
X11143700Y-9894940D01*
G75*
G02*
X11163700Y-9874940I20000J0D01*
G01*
G37*
G36*
G01*
X11163700Y-10039940D02*
X11218700Y-10039940D01*
G75*
G02*
X11238700Y-10059940I0J-20000D01*
G01*
X11238700Y-10099940D01*
G75*
G02*
X11218700Y-10119940I-20000J0D01*
G01*
X11163700Y-10119940D01*
G75*
G02*
X11143700Y-10099940I0J20000D01*
G01*
X11143700Y-10059940D01*
G75*
G02*
X11163700Y-10039940I20000J0D01*
G01*
G37*
G36*
G01*
X9354380Y-9436780D02*
X9299380Y-9436780D01*
G75*
G02*
X9279380Y-9416780I0J20000D01*
G01*
X9279380Y-9376780D01*
G75*
G02*
X9299380Y-9356780I20000J0D01*
G01*
X9354380Y-9356780D01*
G75*
G02*
X9374380Y-9376780I0J-20000D01*
G01*
X9374380Y-9416780D01*
G75*
G02*
X9354380Y-9436780I-20000J0D01*
G01*
G37*
G36*
G01*
X9354380Y-9601780D02*
X9299380Y-9601780D01*
G75*
G02*
X9279380Y-9581780I0J20000D01*
G01*
X9279380Y-9541780D01*
G75*
G02*
X9299380Y-9521780I20000J0D01*
G01*
X9354380Y-9521780D01*
G75*
G02*
X9374380Y-9541780I0J-20000D01*
G01*
X9374380Y-9581780D01*
G75*
G02*
X9354380Y-9601780I-20000J0D01*
G01*
G37*
G36*
G01*
X8952820Y-8341300D02*
X8952820Y-8286300D01*
G75*
G02*
X8972820Y-8266300I20000J0D01*
G01*
X9012820Y-8266300D01*
G75*
G02*
X9032820Y-8286300I0J-20000D01*
G01*
X9032820Y-8341300D01*
G75*
G02*
X9012820Y-8361300I-20000J0D01*
G01*
X8972820Y-8361300D01*
G75*
G02*
X8952820Y-8341300I0J20000D01*
G01*
G37*
G36*
G01*
X8787820Y-8341300D02*
X8787820Y-8286300D01*
G75*
G02*
X8807820Y-8266300I20000J0D01*
G01*
X8847820Y-8266300D01*
G75*
G02*
X8867820Y-8286300I0J-20000D01*
G01*
X8867820Y-8341300D01*
G75*
G02*
X8847820Y-8361300I-20000J0D01*
G01*
X8807820Y-8361300D01*
G75*
G02*
X8787820Y-8341300I0J20000D01*
G01*
G37*
G36*
G01*
X9299380Y-10174100D02*
X9354380Y-10174100D01*
G75*
G02*
X9374380Y-10194100I0J-20000D01*
G01*
X9374380Y-10234100D01*
G75*
G02*
X9354380Y-10254100I-20000J0D01*
G01*
X9299380Y-10254100D01*
G75*
G02*
X9279380Y-10234100I0J20000D01*
G01*
X9279380Y-10194100D01*
G75*
G02*
X9299380Y-10174100I20000J0D01*
G01*
G37*
G36*
G01*
X9299380Y-10339100D02*
X9354380Y-10339100D01*
G75*
G02*
X9374380Y-10359100I0J-20000D01*
G01*
X9374380Y-10399100D01*
G75*
G02*
X9354380Y-10419100I-20000J0D01*
G01*
X9299380Y-10419100D01*
G75*
G02*
X9279380Y-10399100I0J20000D01*
G01*
X9279380Y-10359100D01*
G75*
G02*
X9299380Y-10339100I20000J0D01*
G01*
G37*
G36*
G01*
X10503300Y-10031200D02*
X10558300Y-10031200D01*
G75*
G02*
X10578300Y-10051200I0J-20000D01*
G01*
X10578300Y-10091200D01*
G75*
G02*
X10558300Y-10111200I-20000J0D01*
G01*
X10503300Y-10111200D01*
G75*
G02*
X10483300Y-10091200I0J20000D01*
G01*
X10483300Y-10051200D01*
G75*
G02*
X10503300Y-10031200I20000J0D01*
G01*
G37*
G36*
G01*
X10503300Y-10196200D02*
X10558300Y-10196200D01*
G75*
G02*
X10578300Y-10216200I0J-20000D01*
G01*
X10578300Y-10256200D01*
G75*
G02*
X10558300Y-10276200I-20000J0D01*
G01*
X10503300Y-10276200D01*
G75*
G02*
X10483300Y-10256200I0J20000D01*
G01*
X10483300Y-10216200D01*
G75*
G02*
X10503300Y-10196200I20000J0D01*
G01*
G37*
G36*
G01*
X11014000Y-9649900D02*
X11014000Y-9704900D01*
G75*
G02*
X10994000Y-9724900I-20000J0D01*
G01*
X10954000Y-9724900D01*
G75*
G02*
X10934000Y-9704900I0J20000D01*
G01*
X10934000Y-9649900D01*
G75*
G02*
X10954000Y-9629900I20000J0D01*
G01*
X10994000Y-9629900D01*
G75*
G02*
X11014000Y-9649900I0J-20000D01*
G01*
G37*
G36*
G01*
X10849000Y-9649900D02*
X10849000Y-9704900D01*
G75*
G02*
X10829000Y-9724900I-20000J0D01*
G01*
X10789000Y-9724900D01*
G75*
G02*
X10769000Y-9704900I0J20000D01*
G01*
X10769000Y-9649900D01*
G75*
G02*
X10789000Y-9629900I20000J0D01*
G01*
X10829000Y-9629900D01*
G75*
G02*
X10849000Y-9649900I0J-20000D01*
G01*
G37*
M02*
