G04 #@! TF.GenerationSoftware,KiCad,Pcbnew,5.1.9*
G04 #@! TF.CreationDate,2021-03-17T14:57:47+01:00*
G04 #@! TF.ProjectId,Y11025HL-WIFI,59313130-3235-4484-9c2d-574946492e6b,rev?*
G04 #@! TF.SameCoordinates,Original*
G04 #@! TF.FileFunction,Other,Fab,Bot*
%FSLAX45Y45*%
G04 Gerber Fmt 4.5, Leading zero omitted, Abs format (unit mm)*
G04 Created by KiCad (PCBNEW 5.1.9) date 2021-03-17 14:57:47*
%MOMM*%
%LPD*%
G01*
G04 APERTURE LIST*
%ADD10C,0.080000*%
G04 APERTURE END LIST*
D10*
X9706551Y-10649360D02*
X9756048Y-10599862D01*
X9704194Y-10618718D01*
X9723050Y-10566864D01*
X9673552Y-10616361D01*
X9626412Y-10569221D02*
X9649982Y-10592791D01*
X9699480Y-10543294D01*
X9664124Y-10507938D02*
X9581628Y-10524438D01*
X9631126Y-10474940D02*
X9614627Y-10557436D01*
X9560415Y-10503224D02*
X9550987Y-10493796D01*
X9548630Y-10486725D01*
X9548630Y-10482011D01*
X9550987Y-10470226D01*
X9558058Y-10458441D01*
X9576914Y-10439585D01*
X9583986Y-10437228D01*
X9588700Y-10437228D01*
X9595771Y-10439585D01*
X9605199Y-10449013D01*
X9607556Y-10456084D01*
X9607556Y-10460798D01*
X9605199Y-10467869D01*
X9593414Y-10479654D01*
X9586343Y-10482011D01*
X9581628Y-10482011D01*
X9574557Y-10479654D01*
X9565129Y-10470226D01*
X9562772Y-10463155D01*
X9562772Y-10458441D01*
X9565129Y-10451370D01*
X9555701Y-10399515D02*
X9550987Y-10394801D01*
X9543916Y-10392444D01*
X9539202Y-10392444D01*
X9532131Y-10394801D01*
X9520346Y-10401872D01*
X9508561Y-10413657D01*
X9501490Y-10425443D01*
X9499133Y-10432514D01*
X9499133Y-10437228D01*
X9501490Y-10444299D01*
X9506204Y-10449013D01*
X9513275Y-10451370D01*
X9517989Y-10451370D01*
X9525060Y-10449013D01*
X9536845Y-10441942D01*
X9548630Y-10430157D01*
X9555701Y-10418372D01*
X9558058Y-10411300D01*
X9558058Y-10406586D01*
X9555701Y-10399515D01*
X9496776Y-10340590D02*
X9506204Y-10350018D01*
X9508561Y-10357089D01*
X9508561Y-10361803D01*
X9506204Y-10373588D01*
X9499133Y-10385373D01*
X9480277Y-10404229D01*
X9473205Y-10406586D01*
X9468491Y-10406586D01*
X9461420Y-10404229D01*
X9451992Y-10394801D01*
X9449635Y-10387730D01*
X9449635Y-10383016D01*
X9451992Y-10375945D01*
X9463777Y-10364160D01*
X9470848Y-10361803D01*
X9475562Y-10361803D01*
X9482634Y-10364160D01*
X9492062Y-10373588D01*
X9494419Y-10380659D01*
X9494419Y-10385373D01*
X9492062Y-10392444D01*
X9468491Y-10321734D02*
X9468491Y-10317020D01*
X9466134Y-10309948D01*
X9454349Y-10298163D01*
X9447278Y-10295806D01*
X9442564Y-10295806D01*
X9435493Y-10298163D01*
X9430779Y-10302877D01*
X9426065Y-10312305D01*
X9426065Y-10368874D01*
X9395424Y-10338233D01*
X9348283Y-10291092D02*
X9376568Y-10319377D01*
X9362425Y-10305234D02*
X9411923Y-10255737D01*
X9409566Y-10267522D01*
X9409566Y-10276950D01*
X9411923Y-10284021D01*
M02*
