G04 #@! TF.GenerationSoftware,KiCad,Pcbnew,5.1.9*
G04 #@! TF.CreationDate,2021-03-17T14:57:47+01:00*
G04 #@! TF.ProjectId,Y11025HL-WIFI,59313130-3235-4484-9c2d-574946492e6b,rev?*
G04 #@! TF.SameCoordinates,Original*
G04 #@! TF.FileFunction,Legend,Bot*
G04 #@! TF.FilePolarity,Positive*
%FSLAX45Y45*%
G04 Gerber Fmt 4.5, Leading zero omitted, Abs format (unit mm)*
G04 Created by KiCad (PCBNEW 5.1.9) date 2021-03-17 14:57:47*
%MOMM*%
%LPD*%
G01*
G04 APERTURE LIST*
%ADD10C,0.300000*%
%ADD11C,0.010000*%
%ADD12C,0.150000*%
%ADD13C,0.080000*%
G04 APERTURE END LIST*
D10*
X7817802Y-10936152D02*
X7722564Y-10936152D01*
X7922564Y-11002819D02*
X7817802Y-10936152D01*
X7922564Y-10869486D01*
X7855897Y-10717105D02*
X7722564Y-10717105D01*
X7855897Y-10802819D02*
X7751135Y-10802819D01*
X7732088Y-10793295D01*
X7722564Y-10774248D01*
X7722564Y-10745676D01*
X7732088Y-10726629D01*
X7741611Y-10717105D01*
X7855897Y-10536152D02*
X7693992Y-10536152D01*
X7674945Y-10545676D01*
X7665421Y-10555200D01*
X7655897Y-10574248D01*
X7655897Y-10602819D01*
X7665421Y-10621867D01*
X7732088Y-10536152D02*
X7722564Y-10555200D01*
X7722564Y-10593295D01*
X7732088Y-10612343D01*
X7741611Y-10621867D01*
X7760659Y-10631390D01*
X7817802Y-10631390D01*
X7836849Y-10621867D01*
X7846373Y-10612343D01*
X7855897Y-10593295D01*
X7855897Y-10555200D01*
X7846373Y-10536152D01*
X7732088Y-10364724D02*
X7722564Y-10383771D01*
X7722564Y-10421867D01*
X7732088Y-10440914D01*
X7751135Y-10450438D01*
X7827326Y-10450438D01*
X7846373Y-10440914D01*
X7855897Y-10421867D01*
X7855897Y-10383771D01*
X7846373Y-10364724D01*
X7827326Y-10355200D01*
X7808278Y-10355200D01*
X7789230Y-10450438D01*
X7855897Y-10269486D02*
X7722564Y-10269486D01*
X7836849Y-10269486D02*
X7846373Y-10259962D01*
X7855897Y-10240914D01*
X7855897Y-10212343D01*
X7846373Y-10193295D01*
X7827326Y-10183771D01*
X7722564Y-10183771D01*
X7827326Y-10021867D02*
X7827326Y-10088533D01*
X7722564Y-10088533D02*
X7922564Y-10088533D01*
X7922564Y-9993295D01*
X7722564Y-9888533D02*
X7732088Y-9907581D01*
X7751135Y-9917105D01*
X7922564Y-9917105D01*
X7722564Y-9783771D02*
X7732088Y-9802819D01*
X7741611Y-9812343D01*
X7760659Y-9821867D01*
X7817802Y-9821867D01*
X7836849Y-9812343D01*
X7846373Y-9802819D01*
X7855897Y-9783771D01*
X7855897Y-9755200D01*
X7846373Y-9736152D01*
X7836849Y-9726629D01*
X7817802Y-9717105D01*
X7760659Y-9717105D01*
X7741611Y-9726629D01*
X7732088Y-9736152D01*
X7722564Y-9755200D01*
X7722564Y-9783771D01*
X7855897Y-9650438D02*
X7722564Y-9612343D01*
X7817802Y-9574248D01*
X7722564Y-9536152D01*
X7855897Y-9498057D01*
X7855897Y-9288533D02*
X7722564Y-9240914D01*
X7855897Y-9193295D01*
X7722564Y-9012343D02*
X7722564Y-9126629D01*
X7722564Y-9069486D02*
X7922564Y-9069486D01*
X7893992Y-9088533D01*
X7874945Y-9107581D01*
X7865421Y-9126629D01*
X7741611Y-8926629D02*
X7732088Y-8917105D01*
X7722564Y-8926629D01*
X7732088Y-8936152D01*
X7741611Y-8926629D01*
X7722564Y-8926629D01*
X7922564Y-8793295D02*
X7922564Y-8774248D01*
X7913040Y-8755200D01*
X7903516Y-8745676D01*
X7884468Y-8736152D01*
X7846373Y-8726629D01*
X7798754Y-8726629D01*
X7760659Y-8736152D01*
X7741611Y-8745676D01*
X7732088Y-8755200D01*
X7722564Y-8774248D01*
X7722564Y-8793295D01*
X7732088Y-8812343D01*
X7741611Y-8821867D01*
X7760659Y-8831390D01*
X7798754Y-8840914D01*
X7846373Y-8840914D01*
X7884468Y-8831390D01*
X7903516Y-8821867D01*
X7913040Y-8812343D01*
X7922564Y-8793295D01*
D11*
G36*
X9743288Y-11021988D02*
G01*
X9747715Y-11018151D01*
X9749239Y-11013486D01*
X9747849Y-11008831D01*
X9743532Y-11005023D01*
X9743513Y-11005012D01*
X9740713Y-11003626D01*
X9738819Y-11003682D01*
X9736132Y-11005367D01*
X9735350Y-11005916D01*
X9732388Y-11009527D01*
X9731711Y-11013863D01*
X9732909Y-11018091D01*
X9735569Y-11021377D01*
X9739280Y-11022889D01*
X9743288Y-11021988D01*
G37*
X9743288Y-11021988D02*
X9747715Y-11018151D01*
X9749239Y-11013486D01*
X9747849Y-11008831D01*
X9743532Y-11005023D01*
X9743513Y-11005012D01*
X9740713Y-11003626D01*
X9738819Y-11003682D01*
X9736132Y-11005367D01*
X9735350Y-11005916D01*
X9732388Y-11009527D01*
X9731711Y-11013863D01*
X9732909Y-11018091D01*
X9735569Y-11021377D01*
X9739280Y-11022889D01*
X9743288Y-11021988D01*
G36*
X9846411Y-11277515D02*
G01*
X9846699Y-11276481D01*
X9846733Y-11275445D01*
X9846538Y-11273574D01*
X9845783Y-11271485D01*
X9844216Y-11268878D01*
X9841585Y-11265447D01*
X9837637Y-11260893D01*
X9832120Y-11254911D01*
X9824781Y-11247200D01*
X9815367Y-11237457D01*
X9812867Y-11234881D01*
X9779000Y-11200012D01*
X9779000Y-11167533D01*
X9768840Y-11167533D01*
X9763479Y-11167341D01*
X9759794Y-11166841D01*
X9758671Y-11166263D01*
X9758514Y-11164325D01*
X9758076Y-11159430D01*
X9757393Y-11151991D01*
X9756505Y-11142422D01*
X9755450Y-11131139D01*
X9754266Y-11118554D01*
X9753613Y-11111653D01*
X9752367Y-11098336D01*
X9751232Y-11085908D01*
X9750246Y-11074823D01*
X9749449Y-11065535D01*
X9748881Y-11058499D01*
X9748580Y-11054167D01*
X9748543Y-11053200D01*
X9748818Y-11051515D01*
X9749802Y-11049348D01*
X9751713Y-11046441D01*
X9754770Y-11042536D01*
X9759190Y-11037373D01*
X9765191Y-11030693D01*
X9772991Y-11022239D01*
X9782809Y-11011751D01*
X9789114Y-11005058D01*
X9800388Y-10993055D01*
X9809465Y-10983266D01*
X9816519Y-10975486D01*
X9821725Y-10969512D01*
X9825257Y-10965140D01*
X9827290Y-10962165D01*
X9827998Y-10960383D01*
X9827853Y-10959794D01*
X9825223Y-10957837D01*
X9824089Y-10957571D01*
X9822437Y-10958762D01*
X9818837Y-10962098D01*
X9813636Y-10967233D01*
X9807179Y-10973820D01*
X9799814Y-10981513D01*
X9795102Y-10986518D01*
X9786519Y-10995670D01*
X9779955Y-11002585D01*
X9775127Y-11007507D01*
X9771748Y-11010680D01*
X9769536Y-11012349D01*
X9768206Y-11012758D01*
X9767472Y-11012151D01*
X9767051Y-11010774D01*
X9767022Y-11010637D01*
X9763697Y-11001447D01*
X9758320Y-10994328D01*
X9751447Y-10989471D01*
X9743633Y-10987067D01*
X9735435Y-10987308D01*
X9727407Y-10990386D01*
X9721555Y-10994945D01*
X9716607Y-10999893D01*
X9653693Y-10999893D01*
X9653693Y-10986170D01*
X9635913Y-10987193D01*
X9635364Y-10993945D01*
X9634656Y-10998715D01*
X9633591Y-11002072D01*
X9633313Y-11002507D01*
X9632671Y-11004678D01*
X9631839Y-11009415D01*
X9630915Y-11015909D01*
X9629997Y-11023354D01*
X9629185Y-11030939D01*
X9628577Y-11037858D01*
X9628271Y-11043301D01*
X9628258Y-11043920D01*
X9627116Y-11043329D01*
X9623881Y-11040547D01*
X9618808Y-11035821D01*
X9612154Y-11029401D01*
X9604174Y-11021532D01*
X9595125Y-11012463D01*
X9585262Y-11002441D01*
X9583806Y-11000951D01*
X9572390Y-10989262D01*
X9563096Y-10979791D01*
X9555688Y-10972325D01*
X9549929Y-10966653D01*
X9545582Y-10962564D01*
X9542408Y-10959845D01*
X9540171Y-10958286D01*
X9538634Y-10957675D01*
X9537559Y-10957800D01*
X9536709Y-10958449D01*
X9536450Y-10958728D01*
X9534859Y-10960832D01*
X9534884Y-10962660D01*
X9536850Y-10965161D01*
X9539567Y-10967831D01*
X9542179Y-10970421D01*
X9546824Y-10975112D01*
X9553177Y-10981574D01*
X9560913Y-10989476D01*
X9569709Y-10998487D01*
X9579240Y-11008276D01*
X9586342Y-11015585D01*
X9624538Y-11054927D01*
X9637558Y-11054927D01*
X9639573Y-11032913D01*
X9640330Y-11024740D01*
X9640977Y-11017940D01*
X9641453Y-11013141D01*
X9641698Y-11010965D01*
X9641714Y-11010900D01*
X9712742Y-11010900D01*
X9713212Y-11013440D01*
X9727636Y-11013440D01*
X9728862Y-11007896D01*
X9732246Y-11003859D01*
X9736743Y-11000721D01*
X9740799Y-11000132D01*
X9745786Y-11001806D01*
X9750399Y-11005593D01*
X9752747Y-11011092D01*
X9752402Y-11017174D01*
X9751998Y-11018300D01*
X9748469Y-11023050D01*
X9743181Y-11026233D01*
X9739221Y-11026987D01*
X9735043Y-11025515D01*
X9731105Y-11021835D01*
X9728353Y-11017053D01*
X9727636Y-11013440D01*
X9713212Y-11013440D01*
X9713840Y-11016827D01*
X9717045Y-11025991D01*
X9722715Y-11033186D01*
X9729318Y-11037441D01*
X9734209Y-11040101D01*
X9736389Y-11042766D01*
X9736658Y-11044423D01*
X9735415Y-11047196D01*
X9731709Y-11052242D01*
X9725562Y-11059535D01*
X9716995Y-11069046D01*
X9711230Y-11075247D01*
X9703748Y-11083151D01*
X9696998Y-11090147D01*
X9691336Y-11095878D01*
X9687115Y-11099987D01*
X9684689Y-11102120D01*
X9684289Y-11102340D01*
X9682701Y-11101169D01*
X9679177Y-11097906D01*
X9674103Y-11092928D01*
X9667861Y-11086614D01*
X9660836Y-11079339D01*
X9660163Y-11078633D01*
X9637558Y-11054927D01*
X9624538Y-11054927D01*
X9627058Y-11057523D01*
X9622503Y-11112951D01*
X9621382Y-11126438D01*
X9620319Y-11138948D01*
X9619352Y-11150056D01*
X9618520Y-11159332D01*
X9618280Y-11161878D01*
X9628847Y-11161878D01*
X9628914Y-11160204D01*
X9629233Y-11155680D01*
X9629760Y-11148829D01*
X9630452Y-11140174D01*
X9631265Y-11130239D01*
X9632153Y-11119548D01*
X9633075Y-11108622D01*
X9633984Y-11097987D01*
X9634838Y-11088164D01*
X9635592Y-11079679D01*
X9636203Y-11073053D01*
X9636626Y-11068810D01*
X9636772Y-11067627D01*
X9637927Y-11068498D01*
X9641046Y-11071439D01*
X9645747Y-11076077D01*
X9651652Y-11082038D01*
X9657221Y-11087748D01*
X9663832Y-11094684D01*
X9669485Y-11100827D01*
X9673807Y-11105753D01*
X9676423Y-11109040D01*
X9677035Y-11110210D01*
X9677001Y-11110254D01*
X9690431Y-11110254D01*
X9696192Y-11103576D01*
X9700001Y-11099288D01*
X9705042Y-11093793D01*
X9710877Y-11087548D01*
X9717066Y-11081010D01*
X9723173Y-11074637D01*
X9728756Y-11068887D01*
X9733379Y-11064218D01*
X9736602Y-11061087D01*
X9737987Y-11059952D01*
X9738002Y-11059958D01*
X9738274Y-11061693D01*
X9738816Y-11066393D01*
X9739584Y-11073652D01*
X9740539Y-11083061D01*
X9741637Y-11094213D01*
X9742838Y-11106701D01*
X9743476Y-11113441D01*
X9744683Y-11126452D01*
X9745756Y-11138334D01*
X9746658Y-11148682D01*
X9747358Y-11157088D01*
X9747819Y-11163145D01*
X9748007Y-11166446D01*
X9747987Y-11166937D01*
X9746713Y-11165926D01*
X9743388Y-11162833D01*
X9738345Y-11157981D01*
X9731919Y-11151693D01*
X9724442Y-11144291D01*
X9718972Y-11138832D01*
X9690431Y-11110254D01*
X9677001Y-11110254D01*
X9675797Y-11111830D01*
X9672693Y-11115393D01*
X9668136Y-11120455D01*
X9662538Y-11126576D01*
X9656312Y-11133312D01*
X9649870Y-11140221D01*
X9643624Y-11146861D01*
X9637988Y-11152790D01*
X9633373Y-11157564D01*
X9630192Y-11160743D01*
X9628858Y-11161883D01*
X9628847Y-11161878D01*
X9618280Y-11161878D01*
X9617859Y-11166350D01*
X9617409Y-11170682D01*
X9617253Y-11171824D01*
X9616819Y-11172931D01*
X9615759Y-11174600D01*
X9613901Y-11177021D01*
X9611071Y-11180386D01*
X9607098Y-11184883D01*
X9601808Y-11190704D01*
X9595028Y-11198040D01*
X9586585Y-11207079D01*
X9576307Y-11218013D01*
X9564021Y-11231033D01*
X9550902Y-11244903D01*
X9543012Y-11253289D01*
X9537190Y-11259645D01*
X9533141Y-11264361D01*
X9530568Y-11267831D01*
X9529174Y-11270447D01*
X9528663Y-11272602D01*
X9528695Y-11274306D01*
X9528916Y-11275605D01*
X9529422Y-11276315D01*
X9530433Y-11276229D01*
X9532172Y-11275144D01*
X9534861Y-11272854D01*
X9538721Y-11269155D01*
X9543975Y-11263843D01*
X9550843Y-11256712D01*
X9559548Y-11247558D01*
X9570311Y-11236175D01*
X9572413Y-11233949D01*
X9582175Y-11223620D01*
X9591169Y-11214120D01*
X9599140Y-11205718D01*
X9605832Y-11198682D01*
X9610990Y-11193282D01*
X9614358Y-11189786D01*
X9615679Y-11188463D01*
X9615689Y-11188459D01*
X9615613Y-11190130D01*
X9615322Y-11194301D01*
X9614879Y-11200095D01*
X9614842Y-11200553D01*
X9613900Y-11212407D01*
X9608397Y-11212937D01*
X9606827Y-11213253D01*
X9623975Y-11213253D01*
X9625711Y-11194622D01*
X9627447Y-11175990D01*
X9655277Y-11146362D01*
X9663087Y-11138090D01*
X9670132Y-11130708D01*
X9676082Y-11124555D01*
X9680609Y-11119970D01*
X9683382Y-11117292D01*
X9684098Y-11116733D01*
X9685591Y-11117868D01*
X9688989Y-11120975D01*
X9693823Y-11125612D01*
X9699624Y-11131335D01*
X9701107Y-11132820D01*
X9717126Y-11148907D01*
X9670627Y-11148907D01*
X9670627Y-11169227D01*
X9726507Y-11169227D01*
X9726507Y-11158326D01*
X9736667Y-11168380D01*
X9746827Y-11178434D01*
X9746827Y-11179070D01*
X9760373Y-11179070D01*
X9761343Y-11176780D01*
X9764724Y-11176011D01*
X9765453Y-11176000D01*
X9768532Y-11176206D01*
X9770020Y-11177427D01*
X9770495Y-11180562D01*
X9770533Y-11183937D01*
X9770533Y-11191874D01*
X9765453Y-11187007D01*
X9762233Y-11183221D01*
X9760480Y-11179798D01*
X9760373Y-11179070D01*
X9746827Y-11179070D01*
X9746827Y-11189070D01*
X9747035Y-11195254D01*
X9747740Y-11198617D01*
X9749062Y-11199702D01*
X9749189Y-11199707D01*
X9751043Y-11201319D01*
X9752142Y-11205947D01*
X9752197Y-11206480D01*
X9752843Y-11213253D01*
X9623975Y-11213253D01*
X9606827Y-11213253D01*
X9604579Y-11213706D01*
X9603099Y-11215680D01*
X9602893Y-11218441D01*
X9603349Y-11221999D01*
X9605390Y-11223287D01*
X9607608Y-11223413D01*
X9611865Y-11224517D01*
X9612334Y-11225047D01*
X9624907Y-11225047D01*
X9626325Y-11223719D01*
X9628293Y-11223413D01*
X9631114Y-11224601D01*
X9631680Y-11226860D01*
X9631231Y-11229232D01*
X9629270Y-11228987D01*
X9628293Y-11228493D01*
X9625614Y-11226422D01*
X9624907Y-11225047D01*
X9612334Y-11225047D01*
X9615200Y-11228286D01*
X9615328Y-11228500D01*
X9618760Y-11232600D01*
X9623588Y-11236518D01*
X9623965Y-11236752D01*
X9648613Y-11236752D01*
X9648613Y-11223413D01*
X9700467Y-11223413D01*
X9715110Y-11223426D01*
X9726696Y-11223478D01*
X9735553Y-11223585D01*
X9742011Y-11223765D01*
X9746400Y-11224036D01*
X9749047Y-11224415D01*
X9750283Y-11224920D01*
X9750436Y-11225569D01*
X9750121Y-11226065D01*
X9745434Y-11229833D01*
X9738068Y-11233406D01*
X9729047Y-11236357D01*
X9722848Y-11237915D01*
X9719228Y-11238425D01*
X9717517Y-11237801D01*
X9717048Y-11235960D01*
X9717059Y-11234843D01*
X9716998Y-11233324D01*
X9716339Y-11232261D01*
X9714559Y-11231557D01*
X9711133Y-11231115D01*
X9705538Y-11230839D01*
X9697251Y-11230631D01*
X9693910Y-11230562D01*
X9670627Y-11230091D01*
X9670627Y-11235060D01*
X9670153Y-11238592D01*
X9668416Y-11239531D01*
X9667663Y-11239430D01*
X9664242Y-11238857D01*
X9659058Y-11238110D01*
X9656657Y-11237791D01*
X9648613Y-11236752D01*
X9623965Y-11236752D01*
X9624993Y-11237390D01*
X9629130Y-11240371D01*
X9630464Y-11242040D01*
X9680787Y-11242040D01*
X9682361Y-11241185D01*
X9686620Y-11240590D01*
X9692862Y-11240348D01*
X9693387Y-11240347D01*
X9699612Y-11240559D01*
X9704432Y-11241121D01*
X9706923Y-11241916D01*
X9707033Y-11242040D01*
X9706040Y-11242942D01*
X9701923Y-11243518D01*
X9694932Y-11243733D01*
X9694433Y-11243733D01*
X9687689Y-11243537D01*
X9682945Y-11242999D01*
X9680837Y-11242200D01*
X9680787Y-11242040D01*
X9630464Y-11242040D01*
X9631454Y-11243278D01*
X9631667Y-11244157D01*
X9632259Y-11245926D01*
X9634530Y-11246829D01*
X9639248Y-11247122D01*
X9640570Y-11247130D01*
X9647762Y-11247423D01*
X9655190Y-11248192D01*
X9662002Y-11249291D01*
X9667341Y-11250578D01*
X9670354Y-11251906D01*
X9670633Y-11252211D01*
X9672577Y-11252835D01*
X9677018Y-11253262D01*
X9683216Y-11253501D01*
X9690433Y-11253563D01*
X9697929Y-11253457D01*
X9704964Y-11253195D01*
X9710800Y-11252785D01*
X9714697Y-11252237D01*
X9715929Y-11251596D01*
X9717257Y-11250574D01*
X9721176Y-11249057D01*
X9726971Y-11247303D01*
X9730180Y-11246460D01*
X9738067Y-11244129D01*
X9745268Y-11241381D01*
X9750565Y-11238690D01*
X9751201Y-11238263D01*
X9755860Y-11235447D01*
X9759110Y-11234863D01*
X9760540Y-11235356D01*
X9766529Y-11236997D01*
X9772214Y-11235953D01*
X9776751Y-11232681D01*
X9779294Y-11227635D01*
X9779564Y-11225102D01*
X9778062Y-11219534D01*
X9774217Y-11214821D01*
X9769026Y-11211971D01*
X9766206Y-11211560D01*
X9763403Y-11211100D01*
X9762257Y-11209060D01*
X9762067Y-11205633D01*
X9762686Y-11201132D01*
X9764402Y-11199707D01*
X9766105Y-11200875D01*
X9769873Y-11204194D01*
X9775414Y-11209382D01*
X9782435Y-11216158D01*
X9790644Y-11224240D01*
X9799749Y-11233347D01*
X9806735Y-11240423D01*
X9817516Y-11251385D01*
X9826165Y-11260129D01*
X9832916Y-11266860D01*
X9838004Y-11271785D01*
X9841663Y-11275107D01*
X9844128Y-11277033D01*
X9845632Y-11277767D01*
X9846411Y-11277515D01*
G37*
X9846411Y-11277515D02*
X9846699Y-11276481D01*
X9846733Y-11275445D01*
X9846538Y-11273574D01*
X9845783Y-11271485D01*
X9844216Y-11268878D01*
X9841585Y-11265447D01*
X9837637Y-11260893D01*
X9832120Y-11254911D01*
X9824781Y-11247200D01*
X9815367Y-11237457D01*
X9812867Y-11234881D01*
X9779000Y-11200012D01*
X9779000Y-11167533D01*
X9768840Y-11167533D01*
X9763479Y-11167341D01*
X9759794Y-11166841D01*
X9758671Y-11166263D01*
X9758514Y-11164325D01*
X9758076Y-11159430D01*
X9757393Y-11151991D01*
X9756505Y-11142422D01*
X9755450Y-11131139D01*
X9754266Y-11118554D01*
X9753613Y-11111653D01*
X9752367Y-11098336D01*
X9751232Y-11085908D01*
X9750246Y-11074823D01*
X9749449Y-11065535D01*
X9748881Y-11058499D01*
X9748580Y-11054167D01*
X9748543Y-11053200D01*
X9748818Y-11051515D01*
X9749802Y-11049348D01*
X9751713Y-11046441D01*
X9754770Y-11042536D01*
X9759190Y-11037373D01*
X9765191Y-11030693D01*
X9772991Y-11022239D01*
X9782809Y-11011751D01*
X9789114Y-11005058D01*
X9800388Y-10993055D01*
X9809465Y-10983266D01*
X9816519Y-10975486D01*
X9821725Y-10969512D01*
X9825257Y-10965140D01*
X9827290Y-10962165D01*
X9827998Y-10960383D01*
X9827853Y-10959794D01*
X9825223Y-10957837D01*
X9824089Y-10957571D01*
X9822437Y-10958762D01*
X9818837Y-10962098D01*
X9813636Y-10967233D01*
X9807179Y-10973820D01*
X9799814Y-10981513D01*
X9795102Y-10986518D01*
X9786519Y-10995670D01*
X9779955Y-11002585D01*
X9775127Y-11007507D01*
X9771748Y-11010680D01*
X9769536Y-11012349D01*
X9768206Y-11012758D01*
X9767472Y-11012151D01*
X9767051Y-11010774D01*
X9767022Y-11010637D01*
X9763697Y-11001447D01*
X9758320Y-10994328D01*
X9751447Y-10989471D01*
X9743633Y-10987067D01*
X9735435Y-10987308D01*
X9727407Y-10990386D01*
X9721555Y-10994945D01*
X9716607Y-10999893D01*
X9653693Y-10999893D01*
X9653693Y-10986170D01*
X9635913Y-10987193D01*
X9635364Y-10993945D01*
X9634656Y-10998715D01*
X9633591Y-11002072D01*
X9633313Y-11002507D01*
X9632671Y-11004678D01*
X9631839Y-11009415D01*
X9630915Y-11015909D01*
X9629997Y-11023354D01*
X9629185Y-11030939D01*
X9628577Y-11037858D01*
X9628271Y-11043301D01*
X9628258Y-11043920D01*
X9627116Y-11043329D01*
X9623881Y-11040547D01*
X9618808Y-11035821D01*
X9612154Y-11029401D01*
X9604174Y-11021532D01*
X9595125Y-11012463D01*
X9585262Y-11002441D01*
X9583806Y-11000951D01*
X9572390Y-10989262D01*
X9563096Y-10979791D01*
X9555688Y-10972325D01*
X9549929Y-10966653D01*
X9545582Y-10962564D01*
X9542408Y-10959845D01*
X9540171Y-10958286D01*
X9538634Y-10957675D01*
X9537559Y-10957800D01*
X9536709Y-10958449D01*
X9536450Y-10958728D01*
X9534859Y-10960832D01*
X9534884Y-10962660D01*
X9536850Y-10965161D01*
X9539567Y-10967831D01*
X9542179Y-10970421D01*
X9546824Y-10975112D01*
X9553177Y-10981574D01*
X9560913Y-10989476D01*
X9569709Y-10998487D01*
X9579240Y-11008276D01*
X9586342Y-11015585D01*
X9624538Y-11054927D01*
X9637558Y-11054927D01*
X9639573Y-11032913D01*
X9640330Y-11024740D01*
X9640977Y-11017940D01*
X9641453Y-11013141D01*
X9641698Y-11010965D01*
X9641714Y-11010900D01*
X9712742Y-11010900D01*
X9713212Y-11013440D01*
X9727636Y-11013440D01*
X9728862Y-11007896D01*
X9732246Y-11003859D01*
X9736743Y-11000721D01*
X9740799Y-11000132D01*
X9745786Y-11001806D01*
X9750399Y-11005593D01*
X9752747Y-11011092D01*
X9752402Y-11017174D01*
X9751998Y-11018300D01*
X9748469Y-11023050D01*
X9743181Y-11026233D01*
X9739221Y-11026987D01*
X9735043Y-11025515D01*
X9731105Y-11021835D01*
X9728353Y-11017053D01*
X9727636Y-11013440D01*
X9713212Y-11013440D01*
X9713840Y-11016827D01*
X9717045Y-11025991D01*
X9722715Y-11033186D01*
X9729318Y-11037441D01*
X9734209Y-11040101D01*
X9736389Y-11042766D01*
X9736658Y-11044423D01*
X9735415Y-11047196D01*
X9731709Y-11052242D01*
X9725562Y-11059535D01*
X9716995Y-11069046D01*
X9711230Y-11075247D01*
X9703748Y-11083151D01*
X9696998Y-11090147D01*
X9691336Y-11095878D01*
X9687115Y-11099987D01*
X9684689Y-11102120D01*
X9684289Y-11102340D01*
X9682701Y-11101169D01*
X9679177Y-11097906D01*
X9674103Y-11092928D01*
X9667861Y-11086614D01*
X9660836Y-11079339D01*
X9660163Y-11078633D01*
X9637558Y-11054927D01*
X9624538Y-11054927D01*
X9627058Y-11057523D01*
X9622503Y-11112951D01*
X9621382Y-11126438D01*
X9620319Y-11138948D01*
X9619352Y-11150056D01*
X9618520Y-11159332D01*
X9618280Y-11161878D01*
X9628847Y-11161878D01*
X9628914Y-11160204D01*
X9629233Y-11155680D01*
X9629760Y-11148829D01*
X9630452Y-11140174D01*
X9631265Y-11130239D01*
X9632153Y-11119548D01*
X9633075Y-11108622D01*
X9633984Y-11097987D01*
X9634838Y-11088164D01*
X9635592Y-11079679D01*
X9636203Y-11073053D01*
X9636626Y-11068810D01*
X9636772Y-11067627D01*
X9637927Y-11068498D01*
X9641046Y-11071439D01*
X9645747Y-11076077D01*
X9651652Y-11082038D01*
X9657221Y-11087748D01*
X9663832Y-11094684D01*
X9669485Y-11100827D01*
X9673807Y-11105753D01*
X9676423Y-11109040D01*
X9677035Y-11110210D01*
X9677001Y-11110254D01*
X9690431Y-11110254D01*
X9696192Y-11103576D01*
X9700001Y-11099288D01*
X9705042Y-11093793D01*
X9710877Y-11087548D01*
X9717066Y-11081010D01*
X9723173Y-11074637D01*
X9728756Y-11068887D01*
X9733379Y-11064218D01*
X9736602Y-11061087D01*
X9737987Y-11059952D01*
X9738002Y-11059958D01*
X9738274Y-11061693D01*
X9738816Y-11066393D01*
X9739584Y-11073652D01*
X9740539Y-11083061D01*
X9741637Y-11094213D01*
X9742838Y-11106701D01*
X9743476Y-11113441D01*
X9744683Y-11126452D01*
X9745756Y-11138334D01*
X9746658Y-11148682D01*
X9747358Y-11157088D01*
X9747819Y-11163145D01*
X9748007Y-11166446D01*
X9747987Y-11166937D01*
X9746713Y-11165926D01*
X9743388Y-11162833D01*
X9738345Y-11157981D01*
X9731919Y-11151693D01*
X9724442Y-11144291D01*
X9718972Y-11138832D01*
X9690431Y-11110254D01*
X9677001Y-11110254D01*
X9675797Y-11111830D01*
X9672693Y-11115393D01*
X9668136Y-11120455D01*
X9662538Y-11126576D01*
X9656312Y-11133312D01*
X9649870Y-11140221D01*
X9643624Y-11146861D01*
X9637988Y-11152790D01*
X9633373Y-11157564D01*
X9630192Y-11160743D01*
X9628858Y-11161883D01*
X9628847Y-11161878D01*
X9618280Y-11161878D01*
X9617859Y-11166350D01*
X9617409Y-11170682D01*
X9617253Y-11171824D01*
X9616819Y-11172931D01*
X9615759Y-11174600D01*
X9613901Y-11177021D01*
X9611071Y-11180386D01*
X9607098Y-11184883D01*
X9601808Y-11190704D01*
X9595028Y-11198040D01*
X9586585Y-11207079D01*
X9576307Y-11218013D01*
X9564021Y-11231033D01*
X9550902Y-11244903D01*
X9543012Y-11253289D01*
X9537190Y-11259645D01*
X9533141Y-11264361D01*
X9530568Y-11267831D01*
X9529174Y-11270447D01*
X9528663Y-11272602D01*
X9528695Y-11274306D01*
X9528916Y-11275605D01*
X9529422Y-11276315D01*
X9530433Y-11276229D01*
X9532172Y-11275144D01*
X9534861Y-11272854D01*
X9538721Y-11269155D01*
X9543975Y-11263843D01*
X9550843Y-11256712D01*
X9559548Y-11247558D01*
X9570311Y-11236175D01*
X9572413Y-11233949D01*
X9582175Y-11223620D01*
X9591169Y-11214120D01*
X9599140Y-11205718D01*
X9605832Y-11198682D01*
X9610990Y-11193282D01*
X9614358Y-11189786D01*
X9615679Y-11188463D01*
X9615689Y-11188459D01*
X9615613Y-11190130D01*
X9615322Y-11194301D01*
X9614879Y-11200095D01*
X9614842Y-11200553D01*
X9613900Y-11212407D01*
X9608397Y-11212937D01*
X9606827Y-11213253D01*
X9623975Y-11213253D01*
X9625711Y-11194622D01*
X9627447Y-11175990D01*
X9655277Y-11146362D01*
X9663087Y-11138090D01*
X9670132Y-11130708D01*
X9676082Y-11124555D01*
X9680609Y-11119970D01*
X9683382Y-11117292D01*
X9684098Y-11116733D01*
X9685591Y-11117868D01*
X9688989Y-11120975D01*
X9693823Y-11125612D01*
X9699624Y-11131335D01*
X9701107Y-11132820D01*
X9717126Y-11148907D01*
X9670627Y-11148907D01*
X9670627Y-11169227D01*
X9726507Y-11169227D01*
X9726507Y-11158326D01*
X9736667Y-11168380D01*
X9746827Y-11178434D01*
X9746827Y-11179070D01*
X9760373Y-11179070D01*
X9761343Y-11176780D01*
X9764724Y-11176011D01*
X9765453Y-11176000D01*
X9768532Y-11176206D01*
X9770020Y-11177427D01*
X9770495Y-11180562D01*
X9770533Y-11183937D01*
X9770533Y-11191874D01*
X9765453Y-11187007D01*
X9762233Y-11183221D01*
X9760480Y-11179798D01*
X9760373Y-11179070D01*
X9746827Y-11179070D01*
X9746827Y-11189070D01*
X9747035Y-11195254D01*
X9747740Y-11198617D01*
X9749062Y-11199702D01*
X9749189Y-11199707D01*
X9751043Y-11201319D01*
X9752142Y-11205947D01*
X9752197Y-11206480D01*
X9752843Y-11213253D01*
X9623975Y-11213253D01*
X9606827Y-11213253D01*
X9604579Y-11213706D01*
X9603099Y-11215680D01*
X9602893Y-11218441D01*
X9603349Y-11221999D01*
X9605390Y-11223287D01*
X9607608Y-11223413D01*
X9611865Y-11224517D01*
X9612334Y-11225047D01*
X9624907Y-11225047D01*
X9626325Y-11223719D01*
X9628293Y-11223413D01*
X9631114Y-11224601D01*
X9631680Y-11226860D01*
X9631231Y-11229232D01*
X9629270Y-11228987D01*
X9628293Y-11228493D01*
X9625614Y-11226422D01*
X9624907Y-11225047D01*
X9612334Y-11225047D01*
X9615200Y-11228286D01*
X9615328Y-11228500D01*
X9618760Y-11232600D01*
X9623588Y-11236518D01*
X9623965Y-11236752D01*
X9648613Y-11236752D01*
X9648613Y-11223413D01*
X9700467Y-11223413D01*
X9715110Y-11223426D01*
X9726696Y-11223478D01*
X9735553Y-11223585D01*
X9742011Y-11223765D01*
X9746400Y-11224036D01*
X9749047Y-11224415D01*
X9750283Y-11224920D01*
X9750436Y-11225569D01*
X9750121Y-11226065D01*
X9745434Y-11229833D01*
X9738068Y-11233406D01*
X9729047Y-11236357D01*
X9722848Y-11237915D01*
X9719228Y-11238425D01*
X9717517Y-11237801D01*
X9717048Y-11235960D01*
X9717059Y-11234843D01*
X9716998Y-11233324D01*
X9716339Y-11232261D01*
X9714559Y-11231557D01*
X9711133Y-11231115D01*
X9705538Y-11230839D01*
X9697251Y-11230631D01*
X9693910Y-11230562D01*
X9670627Y-11230091D01*
X9670627Y-11235060D01*
X9670153Y-11238592D01*
X9668416Y-11239531D01*
X9667663Y-11239430D01*
X9664242Y-11238857D01*
X9659058Y-11238110D01*
X9656657Y-11237791D01*
X9648613Y-11236752D01*
X9623965Y-11236752D01*
X9624993Y-11237390D01*
X9629130Y-11240371D01*
X9630464Y-11242040D01*
X9680787Y-11242040D01*
X9682361Y-11241185D01*
X9686620Y-11240590D01*
X9692862Y-11240348D01*
X9693387Y-11240347D01*
X9699612Y-11240559D01*
X9704432Y-11241121D01*
X9706923Y-11241916D01*
X9707033Y-11242040D01*
X9706040Y-11242942D01*
X9701923Y-11243518D01*
X9694932Y-11243733D01*
X9694433Y-11243733D01*
X9687689Y-11243537D01*
X9682945Y-11242999D01*
X9680837Y-11242200D01*
X9680787Y-11242040D01*
X9630464Y-11242040D01*
X9631454Y-11243278D01*
X9631667Y-11244157D01*
X9632259Y-11245926D01*
X9634530Y-11246829D01*
X9639248Y-11247122D01*
X9640570Y-11247130D01*
X9647762Y-11247423D01*
X9655190Y-11248192D01*
X9662002Y-11249291D01*
X9667341Y-11250578D01*
X9670354Y-11251906D01*
X9670633Y-11252211D01*
X9672577Y-11252835D01*
X9677018Y-11253262D01*
X9683216Y-11253501D01*
X9690433Y-11253563D01*
X9697929Y-11253457D01*
X9704964Y-11253195D01*
X9710800Y-11252785D01*
X9714697Y-11252237D01*
X9715929Y-11251596D01*
X9717257Y-11250574D01*
X9721176Y-11249057D01*
X9726971Y-11247303D01*
X9730180Y-11246460D01*
X9738067Y-11244129D01*
X9745268Y-11241381D01*
X9750565Y-11238690D01*
X9751201Y-11238263D01*
X9755860Y-11235447D01*
X9759110Y-11234863D01*
X9760540Y-11235356D01*
X9766529Y-11236997D01*
X9772214Y-11235953D01*
X9776751Y-11232681D01*
X9779294Y-11227635D01*
X9779564Y-11225102D01*
X9778062Y-11219534D01*
X9774217Y-11214821D01*
X9769026Y-11211971D01*
X9766206Y-11211560D01*
X9763403Y-11211100D01*
X9762257Y-11209060D01*
X9762067Y-11205633D01*
X9762686Y-11201132D01*
X9764402Y-11199707D01*
X9766105Y-11200875D01*
X9769873Y-11204194D01*
X9775414Y-11209382D01*
X9782435Y-11216158D01*
X9790644Y-11224240D01*
X9799749Y-11233347D01*
X9806735Y-11240423D01*
X9817516Y-11251385D01*
X9826165Y-11260129D01*
X9832916Y-11266860D01*
X9838004Y-11271785D01*
X9841663Y-11275107D01*
X9844128Y-11277033D01*
X9845632Y-11277767D01*
X9846411Y-11277515D01*
G36*
X9817947Y-10827173D02*
G01*
X9553787Y-10827173D01*
X9553787Y-10891520D01*
X9817947Y-10891520D01*
X9817947Y-10827173D01*
G37*
X9817947Y-10827173D02*
X9553787Y-10827173D01*
X9553787Y-10891520D01*
X9817947Y-10891520D01*
X9817947Y-10827173D01*
G36*
X10143426Y-11248925D02*
G01*
X10173456Y-11245148D01*
X10200963Y-11237035D01*
X10226335Y-11224412D01*
X10249957Y-11207109D01*
X10261581Y-11196301D01*
X10281366Y-11173429D01*
X10296380Y-11149008D01*
X10306797Y-11122650D01*
X10312788Y-11093970D01*
X10314205Y-11078146D01*
X10313446Y-11048639D01*
X10307922Y-11020734D01*
X10297587Y-10994316D01*
X10282395Y-10969275D01*
X10262303Y-10945495D01*
X10260330Y-10943491D01*
X10241333Y-10926309D01*
X10222230Y-10913212D01*
X10201607Y-10903374D01*
X10179545Y-10896354D01*
X10161603Y-10893145D01*
X10140994Y-10891782D01*
X10119778Y-10892259D01*
X10100018Y-10894566D01*
X10090192Y-10896699D01*
X10061970Y-10906720D01*
X10036406Y-10920831D01*
X10013824Y-10938613D01*
X9994545Y-10959644D01*
X9978892Y-10983505D01*
X9967186Y-11009775D01*
X9959751Y-11038034D01*
X9957254Y-11064221D01*
X9980805Y-11064221D01*
X9983720Y-11038534D01*
X9986890Y-11026140D01*
X9997150Y-11000920D01*
X10011229Y-10978375D01*
X10028598Y-10958792D01*
X10048729Y-10942459D01*
X10071094Y-10929662D01*
X10095164Y-10920689D01*
X10120411Y-10915826D01*
X10146307Y-10915362D01*
X10172323Y-10919582D01*
X10179321Y-10921569D01*
X10195197Y-10927548D01*
X10211419Y-10935432D01*
X10225974Y-10944174D01*
X10233660Y-10949879D01*
X10242550Y-10957262D01*
X10231506Y-10968556D01*
X10223054Y-10976099D01*
X10215335Y-10980215D01*
X10210001Y-10981523D01*
X10200898Y-10984249D01*
X10192333Y-10988731D01*
X10191376Y-10989423D01*
X10183212Y-10995650D01*
X10182401Y-10989940D01*
X10181069Y-10986198D01*
X10177507Y-10984557D01*
X10171430Y-10984230D01*
X10161270Y-10984230D01*
X10160551Y-11009800D01*
X10159833Y-11035369D01*
X10146439Y-11048596D01*
X10139491Y-11055458D01*
X10182860Y-11055458D01*
X10183216Y-11051046D01*
X10184711Y-11046933D01*
X10187983Y-11042225D01*
X10193670Y-11036026D01*
X10202413Y-11027443D01*
X10203815Y-11026097D01*
X10212266Y-11018125D01*
X10219395Y-11011633D01*
X10224405Y-11007332D01*
X10226449Y-11005920D01*
X10229003Y-11007617D01*
X10233259Y-11011956D01*
X10234519Y-11013415D01*
X10240857Y-11024458D01*
X10244262Y-11038014D01*
X10244744Y-11052562D01*
X10242313Y-11066581D01*
X10236981Y-11078551D01*
X10234029Y-11082434D01*
X10225174Y-11089222D01*
X10215439Y-11091671D01*
X10205661Y-11090222D01*
X10196679Y-11085317D01*
X10189329Y-11077397D01*
X10184448Y-11066903D01*
X10182860Y-11055458D01*
X10139491Y-11055458D01*
X10133046Y-11061823D01*
X10121758Y-11057743D01*
X10113543Y-11055707D01*
X10101466Y-11053955D01*
X10086744Y-11052645D01*
X10079426Y-11052235D01*
X10048382Y-11050807D01*
X10047676Y-11017519D01*
X10046970Y-10984230D01*
X10021570Y-10984230D01*
X10020900Y-11068914D01*
X10020726Y-11091866D01*
X10020653Y-11104880D01*
X10048240Y-11104880D01*
X10048240Y-11076940D01*
X10076815Y-11076979D01*
X10088577Y-11077165D01*
X10098588Y-11077638D01*
X10105680Y-11078324D01*
X10108539Y-11079018D01*
X10107928Y-11081307D01*
X10104196Y-11086174D01*
X10098091Y-11092907D01*
X10090359Y-11100791D01*
X10081747Y-11109112D01*
X10073004Y-11117156D01*
X10064876Y-11124208D01*
X10058109Y-11129555D01*
X10053452Y-11132482D01*
X10052245Y-11132820D01*
X10050465Y-11132138D01*
X10049293Y-11129537D01*
X10048612Y-11124188D01*
X10048301Y-11115261D01*
X10048240Y-11104880D01*
X10020653Y-11104880D01*
X10020622Y-11110254D01*
X10020617Y-11124594D01*
X10020713Y-11133155D01*
X10090150Y-11133155D01*
X10107920Y-11116679D01*
X10115621Y-11109690D01*
X10121819Y-11104351D01*
X10125670Y-11101373D01*
X10126498Y-11101012D01*
X10126613Y-11103780D01*
X10125850Y-11109545D01*
X10125631Y-11110755D01*
X10121388Y-11121145D01*
X10113365Y-11128274D01*
X10101911Y-11131840D01*
X10101195Y-11131926D01*
X10090150Y-11133155D01*
X10020713Y-11133155D01*
X10020739Y-11135404D01*
X10021014Y-11143199D01*
X10021470Y-11148495D01*
X10022135Y-11151809D01*
X10023037Y-11153656D01*
X10024203Y-11154553D01*
X10025499Y-11154975D01*
X10028654Y-11156096D01*
X10028800Y-11157897D01*
X10025696Y-11161631D01*
X10023851Y-11163571D01*
X10016935Y-11170789D01*
X10010794Y-11162600D01*
X9997408Y-11140707D01*
X9987829Y-11116331D01*
X9982235Y-11090494D01*
X9980805Y-11064221D01*
X9957254Y-11064221D01*
X9956907Y-11067862D01*
X9956887Y-11070590D01*
X9958391Y-11096061D01*
X9963200Y-11119580D01*
X9971763Y-11143054D01*
X9976097Y-11152365D01*
X9986502Y-11169580D01*
X10000554Y-11187044D01*
X10001248Y-11187738D01*
X10032830Y-11187738D01*
X10064603Y-11155680D01*
X10087852Y-11155680D01*
X10106559Y-11154848D01*
X10121162Y-11152139D01*
X10132391Y-11147237D01*
X10140978Y-11139823D01*
X10147570Y-11129746D01*
X10150758Y-11119956D01*
X10152283Y-11107761D01*
X10152011Y-11095563D01*
X10150010Y-11086278D01*
X10149064Y-11081119D01*
X10151454Y-11076643D01*
X10153820Y-11074240D01*
X10160000Y-11068435D01*
X10160000Y-11155958D01*
X10184130Y-11154410D01*
X10184130Y-11101070D01*
X10195560Y-11106992D01*
X10204448Y-11110774D01*
X10212883Y-11111997D01*
X10220430Y-11111610D01*
X10235024Y-11108533D01*
X10246658Y-11102006D01*
X10256574Y-11091283D01*
X10258244Y-11088890D01*
X10265138Y-11074651D01*
X10268654Y-11058338D01*
X10268908Y-11041169D01*
X10266019Y-11024360D01*
X10260105Y-11009128D01*
X10251283Y-10996689D01*
X10249111Y-10994581D01*
X10243715Y-10989698D01*
X10250676Y-10982432D01*
X10257637Y-10975166D01*
X10262249Y-10980968D01*
X10266218Y-10986750D01*
X10270900Y-10994633D01*
X10272831Y-10998200D01*
X10281788Y-11020054D01*
X10287505Y-11044313D01*
X10289804Y-11069428D01*
X10288504Y-11093846D01*
X10285625Y-11108684D01*
X10276505Y-11133892D01*
X10263068Y-11157160D01*
X10245885Y-11177913D01*
X10225533Y-11195577D01*
X10202586Y-11209578D01*
X10177617Y-11219341D01*
X10173964Y-11220345D01*
X10157313Y-11223248D01*
X10138193Y-11224304D01*
X10118647Y-11223550D01*
X10100720Y-11221022D01*
X10092323Y-11218898D01*
X10078849Y-11214444D01*
X10068136Y-11209976D01*
X10057970Y-11204436D01*
X10046250Y-11196838D01*
X10032830Y-11187738D01*
X10001248Y-11187738D01*
X10017038Y-11203538D01*
X10034737Y-11217841D01*
X10052050Y-11228539D01*
X10079792Y-11240322D01*
X10107636Y-11247159D01*
X10136104Y-11249167D01*
X10143426Y-11248925D01*
G37*
X10143426Y-11248925D02*
X10173456Y-11245148D01*
X10200963Y-11237035D01*
X10226335Y-11224412D01*
X10249957Y-11207109D01*
X10261581Y-11196301D01*
X10281366Y-11173429D01*
X10296380Y-11149008D01*
X10306797Y-11122650D01*
X10312788Y-11093970D01*
X10314205Y-11078146D01*
X10313446Y-11048639D01*
X10307922Y-11020734D01*
X10297587Y-10994316D01*
X10282395Y-10969275D01*
X10262303Y-10945495D01*
X10260330Y-10943491D01*
X10241333Y-10926309D01*
X10222230Y-10913212D01*
X10201607Y-10903374D01*
X10179545Y-10896354D01*
X10161603Y-10893145D01*
X10140994Y-10891782D01*
X10119778Y-10892259D01*
X10100018Y-10894566D01*
X10090192Y-10896699D01*
X10061970Y-10906720D01*
X10036406Y-10920831D01*
X10013824Y-10938613D01*
X9994545Y-10959644D01*
X9978892Y-10983505D01*
X9967186Y-11009775D01*
X9959751Y-11038034D01*
X9957254Y-11064221D01*
X9980805Y-11064221D01*
X9983720Y-11038534D01*
X9986890Y-11026140D01*
X9997150Y-11000920D01*
X10011229Y-10978375D01*
X10028598Y-10958792D01*
X10048729Y-10942459D01*
X10071094Y-10929662D01*
X10095164Y-10920689D01*
X10120411Y-10915826D01*
X10146307Y-10915362D01*
X10172323Y-10919582D01*
X10179321Y-10921569D01*
X10195197Y-10927548D01*
X10211419Y-10935432D01*
X10225974Y-10944174D01*
X10233660Y-10949879D01*
X10242550Y-10957262D01*
X10231506Y-10968556D01*
X10223054Y-10976099D01*
X10215335Y-10980215D01*
X10210001Y-10981523D01*
X10200898Y-10984249D01*
X10192333Y-10988731D01*
X10191376Y-10989423D01*
X10183212Y-10995650D01*
X10182401Y-10989940D01*
X10181069Y-10986198D01*
X10177507Y-10984557D01*
X10171430Y-10984230D01*
X10161270Y-10984230D01*
X10160551Y-11009800D01*
X10159833Y-11035369D01*
X10146439Y-11048596D01*
X10139491Y-11055458D01*
X10182860Y-11055458D01*
X10183216Y-11051046D01*
X10184711Y-11046933D01*
X10187983Y-11042225D01*
X10193670Y-11036026D01*
X10202413Y-11027443D01*
X10203815Y-11026097D01*
X10212266Y-11018125D01*
X10219395Y-11011633D01*
X10224405Y-11007332D01*
X10226449Y-11005920D01*
X10229003Y-11007617D01*
X10233259Y-11011956D01*
X10234519Y-11013415D01*
X10240857Y-11024458D01*
X10244262Y-11038014D01*
X10244744Y-11052562D01*
X10242313Y-11066581D01*
X10236981Y-11078551D01*
X10234029Y-11082434D01*
X10225174Y-11089222D01*
X10215439Y-11091671D01*
X10205661Y-11090222D01*
X10196679Y-11085317D01*
X10189329Y-11077397D01*
X10184448Y-11066903D01*
X10182860Y-11055458D01*
X10139491Y-11055458D01*
X10133046Y-11061823D01*
X10121758Y-11057743D01*
X10113543Y-11055707D01*
X10101466Y-11053955D01*
X10086744Y-11052645D01*
X10079426Y-11052235D01*
X10048382Y-11050807D01*
X10047676Y-11017519D01*
X10046970Y-10984230D01*
X10021570Y-10984230D01*
X10020900Y-11068914D01*
X10020726Y-11091866D01*
X10020653Y-11104880D01*
X10048240Y-11104880D01*
X10048240Y-11076940D01*
X10076815Y-11076979D01*
X10088577Y-11077165D01*
X10098588Y-11077638D01*
X10105680Y-11078324D01*
X10108539Y-11079018D01*
X10107928Y-11081307D01*
X10104196Y-11086174D01*
X10098091Y-11092907D01*
X10090359Y-11100791D01*
X10081747Y-11109112D01*
X10073004Y-11117156D01*
X10064876Y-11124208D01*
X10058109Y-11129555D01*
X10053452Y-11132482D01*
X10052245Y-11132820D01*
X10050465Y-11132138D01*
X10049293Y-11129537D01*
X10048612Y-11124188D01*
X10048301Y-11115261D01*
X10048240Y-11104880D01*
X10020653Y-11104880D01*
X10020622Y-11110254D01*
X10020617Y-11124594D01*
X10020713Y-11133155D01*
X10090150Y-11133155D01*
X10107920Y-11116679D01*
X10115621Y-11109690D01*
X10121819Y-11104351D01*
X10125670Y-11101373D01*
X10126498Y-11101012D01*
X10126613Y-11103780D01*
X10125850Y-11109545D01*
X10125631Y-11110755D01*
X10121388Y-11121145D01*
X10113365Y-11128274D01*
X10101911Y-11131840D01*
X10101195Y-11131926D01*
X10090150Y-11133155D01*
X10020713Y-11133155D01*
X10020739Y-11135404D01*
X10021014Y-11143199D01*
X10021470Y-11148495D01*
X10022135Y-11151809D01*
X10023037Y-11153656D01*
X10024203Y-11154553D01*
X10025499Y-11154975D01*
X10028654Y-11156096D01*
X10028800Y-11157897D01*
X10025696Y-11161631D01*
X10023851Y-11163571D01*
X10016935Y-11170789D01*
X10010794Y-11162600D01*
X9997408Y-11140707D01*
X9987829Y-11116331D01*
X9982235Y-11090494D01*
X9980805Y-11064221D01*
X9957254Y-11064221D01*
X9956907Y-11067862D01*
X9956887Y-11070590D01*
X9958391Y-11096061D01*
X9963200Y-11119580D01*
X9971763Y-11143054D01*
X9976097Y-11152365D01*
X9986502Y-11169580D01*
X10000554Y-11187044D01*
X10001248Y-11187738D01*
X10032830Y-11187738D01*
X10064603Y-11155680D01*
X10087852Y-11155680D01*
X10106559Y-11154848D01*
X10121162Y-11152139D01*
X10132391Y-11147237D01*
X10140978Y-11139823D01*
X10147570Y-11129746D01*
X10150758Y-11119956D01*
X10152283Y-11107761D01*
X10152011Y-11095563D01*
X10150010Y-11086278D01*
X10149064Y-11081119D01*
X10151454Y-11076643D01*
X10153820Y-11074240D01*
X10160000Y-11068435D01*
X10160000Y-11155958D01*
X10184130Y-11154410D01*
X10184130Y-11101070D01*
X10195560Y-11106992D01*
X10204448Y-11110774D01*
X10212883Y-11111997D01*
X10220430Y-11111610D01*
X10235024Y-11108533D01*
X10246658Y-11102006D01*
X10256574Y-11091283D01*
X10258244Y-11088890D01*
X10265138Y-11074651D01*
X10268654Y-11058338D01*
X10268908Y-11041169D01*
X10266019Y-11024360D01*
X10260105Y-11009128D01*
X10251283Y-10996689D01*
X10249111Y-10994581D01*
X10243715Y-10989698D01*
X10250676Y-10982432D01*
X10257637Y-10975166D01*
X10262249Y-10980968D01*
X10266218Y-10986750D01*
X10270900Y-10994633D01*
X10272831Y-10998200D01*
X10281788Y-11020054D01*
X10287505Y-11044313D01*
X10289804Y-11069428D01*
X10288504Y-11093846D01*
X10285625Y-11108684D01*
X10276505Y-11133892D01*
X10263068Y-11157160D01*
X10245885Y-11177913D01*
X10225533Y-11195577D01*
X10202586Y-11209578D01*
X10177617Y-11219341D01*
X10173964Y-11220345D01*
X10157313Y-11223248D01*
X10138193Y-11224304D01*
X10118647Y-11223550D01*
X10100720Y-11221022D01*
X10092323Y-11218898D01*
X10078849Y-11214444D01*
X10068136Y-11209976D01*
X10057970Y-11204436D01*
X10046250Y-11196838D01*
X10032830Y-11187738D01*
X10001248Y-11187738D01*
X10017038Y-11203538D01*
X10034737Y-11217841D01*
X10052050Y-11228539D01*
X10079792Y-11240322D01*
X10107636Y-11247159D01*
X10136104Y-11249167D01*
X10143426Y-11248925D01*
G36*
X10683021Y-11215929D02*
G01*
X10683556Y-11213920D01*
X10683965Y-11208834D01*
X10684237Y-11200976D01*
X10684364Y-11190652D01*
X10684334Y-11178170D01*
X10684326Y-11177252D01*
X10683984Y-11139593D01*
X10669895Y-11126047D01*
X10655125Y-11110382D01*
X10640408Y-11091970D01*
X10626179Y-11071429D01*
X10612877Y-11049377D01*
X10604332Y-11033337D01*
X10600747Y-11026310D01*
X10597720Y-11020544D01*
X10595564Y-11016623D01*
X10594595Y-11015134D01*
X10594588Y-11015133D01*
X10593182Y-11016249D01*
X10591464Y-11018097D01*
X10589270Y-11020952D01*
X10585923Y-11025647D01*
X10582130Y-11031190D01*
X10581952Y-11031457D01*
X10576283Y-11039185D01*
X10569136Y-11047536D01*
X10560158Y-11056883D01*
X10548995Y-11067603D01*
X10541000Y-11074942D01*
X10526607Y-11087979D01*
X10535289Y-11096130D01*
X10542173Y-11102294D01*
X10549230Y-11108101D01*
X10555903Y-11113144D01*
X10561635Y-11117021D01*
X10565870Y-11119326D01*
X10567785Y-11119770D01*
X10569411Y-11118099D01*
X10572024Y-11113861D01*
X10575312Y-11107617D01*
X10578964Y-11099927D01*
X10579593Y-11098530D01*
X10583314Y-11090560D01*
X10586648Y-11084108D01*
X10589309Y-11079689D01*
X10591008Y-11077816D01*
X10591151Y-11077787D01*
X10592741Y-11079238D01*
X10595306Y-11083176D01*
X10598476Y-11088982D01*
X10601474Y-11095143D01*
X10611799Y-11116964D01*
X10621294Y-11135890D01*
X10630163Y-11152256D01*
X10638605Y-11166393D01*
X10646823Y-11178635D01*
X10655018Y-11189313D01*
X10663391Y-11198761D01*
X10665695Y-11201130D01*
X10671626Y-11206920D01*
X10676786Y-11211601D01*
X10680688Y-11214753D01*
X10682840Y-11215959D01*
X10683021Y-11215929D01*
G37*
X10683021Y-11215929D02*
X10683556Y-11213920D01*
X10683965Y-11208834D01*
X10684237Y-11200976D01*
X10684364Y-11190652D01*
X10684334Y-11178170D01*
X10684326Y-11177252D01*
X10683984Y-11139593D01*
X10669895Y-11126047D01*
X10655125Y-11110382D01*
X10640408Y-11091970D01*
X10626179Y-11071429D01*
X10612877Y-11049377D01*
X10604332Y-11033337D01*
X10600747Y-11026310D01*
X10597720Y-11020544D01*
X10595564Y-11016623D01*
X10594595Y-11015134D01*
X10594588Y-11015133D01*
X10593182Y-11016249D01*
X10591464Y-11018097D01*
X10589270Y-11020952D01*
X10585923Y-11025647D01*
X10582130Y-11031190D01*
X10581952Y-11031457D01*
X10576283Y-11039185D01*
X10569136Y-11047536D01*
X10560158Y-11056883D01*
X10548995Y-11067603D01*
X10541000Y-11074942D01*
X10526607Y-11087979D01*
X10535289Y-11096130D01*
X10542173Y-11102294D01*
X10549230Y-11108101D01*
X10555903Y-11113144D01*
X10561635Y-11117021D01*
X10565870Y-11119326D01*
X10567785Y-11119770D01*
X10569411Y-11118099D01*
X10572024Y-11113861D01*
X10575312Y-11107617D01*
X10578964Y-11099927D01*
X10579593Y-11098530D01*
X10583314Y-11090560D01*
X10586648Y-11084108D01*
X10589309Y-11079689D01*
X10591008Y-11077816D01*
X10591151Y-11077787D01*
X10592741Y-11079238D01*
X10595306Y-11083176D01*
X10598476Y-11088982D01*
X10601474Y-11095143D01*
X10611799Y-11116964D01*
X10621294Y-11135890D01*
X10630163Y-11152256D01*
X10638605Y-11166393D01*
X10646823Y-11178635D01*
X10655018Y-11189313D01*
X10663391Y-11198761D01*
X10665695Y-11201130D01*
X10671626Y-11206920D01*
X10676786Y-11211601D01*
X10680688Y-11214753D01*
X10682840Y-11215959D01*
X10683021Y-11215929D01*
G36*
X10715127Y-11018621D02*
G01*
X10716357Y-11018319D01*
X10721008Y-11016915D01*
X10723212Y-11015262D01*
X10723857Y-11012537D01*
X10723880Y-11011365D01*
X10723537Y-11007925D01*
X10722153Y-11007146D01*
X10720917Y-11007534D01*
X10711600Y-11010482D01*
X10703678Y-11011173D01*
X10697495Y-11009698D01*
X10693397Y-11006149D01*
X10691727Y-11000615D01*
X10691707Y-10999811D01*
X10692442Y-10996037D01*
X10694980Y-10993013D01*
X10699814Y-10990383D01*
X10707440Y-10987788D01*
X10708917Y-10987363D01*
X10717601Y-10983899D01*
X10723349Y-10979078D01*
X10726464Y-10972536D01*
X10727267Y-10965226D01*
X10727032Y-10959653D01*
X10725924Y-10956006D01*
X10723331Y-10952832D01*
X10721281Y-10950962D01*
X10717857Y-10948200D01*
X10714724Y-10946637D01*
X10710741Y-10945953D01*
X10704767Y-10945826D01*
X10703078Y-10945840D01*
X10696255Y-10946143D01*
X10690175Y-10946807D01*
X10686203Y-10947675D01*
X10682709Y-10949789D01*
X10681574Y-10953404D01*
X10681547Y-10954456D01*
X10682100Y-10958107D01*
X10683663Y-10958649D01*
X10686393Y-10957672D01*
X10691122Y-10956121D01*
X10694688Y-10954996D01*
X10703253Y-10953440D01*
X10710293Y-10954365D01*
X10715438Y-10957586D01*
X10718316Y-10962921D01*
X10718800Y-10966984D01*
X10717119Y-10970958D01*
X10712119Y-10974735D01*
X10703865Y-10978271D01*
X10700521Y-10979352D01*
X10691824Y-10982594D01*
X10686284Y-10986113D01*
X10685044Y-10987437D01*
X10682121Y-10993660D01*
X10681847Y-11000701D01*
X10683952Y-11007663D01*
X10688163Y-11013651D01*
X10694210Y-11017767D01*
X10694229Y-11017775D01*
X10700594Y-11019732D01*
X10707120Y-11020003D01*
X10715127Y-11018621D01*
G37*
X10715127Y-11018621D02*
X10716357Y-11018319D01*
X10721008Y-11016915D01*
X10723212Y-11015262D01*
X10723857Y-11012537D01*
X10723880Y-11011365D01*
X10723537Y-11007925D01*
X10722153Y-11007146D01*
X10720917Y-11007534D01*
X10711600Y-11010482D01*
X10703678Y-11011173D01*
X10697495Y-11009698D01*
X10693397Y-11006149D01*
X10691727Y-11000615D01*
X10691707Y-10999811D01*
X10692442Y-10996037D01*
X10694980Y-10993013D01*
X10699814Y-10990383D01*
X10707440Y-10987788D01*
X10708917Y-10987363D01*
X10717601Y-10983899D01*
X10723349Y-10979078D01*
X10726464Y-10972536D01*
X10727267Y-10965226D01*
X10727032Y-10959653D01*
X10725924Y-10956006D01*
X10723331Y-10952832D01*
X10721281Y-10950962D01*
X10717857Y-10948200D01*
X10714724Y-10946637D01*
X10710741Y-10945953D01*
X10704767Y-10945826D01*
X10703078Y-10945840D01*
X10696255Y-10946143D01*
X10690175Y-10946807D01*
X10686203Y-10947675D01*
X10682709Y-10949789D01*
X10681574Y-10953404D01*
X10681547Y-10954456D01*
X10682100Y-10958107D01*
X10683663Y-10958649D01*
X10686393Y-10957672D01*
X10691122Y-10956121D01*
X10694688Y-10954996D01*
X10703253Y-10953440D01*
X10710293Y-10954365D01*
X10715438Y-10957586D01*
X10718316Y-10962921D01*
X10718800Y-10966984D01*
X10717119Y-10970958D01*
X10712119Y-10974735D01*
X10703865Y-10978271D01*
X10700521Y-10979352D01*
X10691824Y-10982594D01*
X10686284Y-10986113D01*
X10685044Y-10987437D01*
X10682121Y-10993660D01*
X10681847Y-11000701D01*
X10683952Y-11007663D01*
X10688163Y-11013651D01*
X10694210Y-11017767D01*
X10694229Y-11017775D01*
X10700594Y-11019732D01*
X10707120Y-11020003D01*
X10715127Y-11018621D01*
G36*
X10632440Y-10989733D02*
G01*
X10657840Y-10989733D01*
X10657840Y-11018520D01*
X10668000Y-11018520D01*
X10668000Y-10945707D01*
X10657840Y-10945707D01*
X10657840Y-10979573D01*
X10632440Y-10979573D01*
X10632440Y-10945707D01*
X10622280Y-10945707D01*
X10622280Y-11018520D01*
X10632440Y-11018520D01*
X10632440Y-10989733D01*
G37*
X10632440Y-10989733D02*
X10657840Y-10989733D01*
X10657840Y-11018520D01*
X10668000Y-11018520D01*
X10668000Y-10945707D01*
X10657840Y-10945707D01*
X10657840Y-10979573D01*
X10632440Y-10979573D01*
X10632440Y-10945707D01*
X10622280Y-10945707D01*
X10622280Y-11018520D01*
X10632440Y-11018520D01*
X10632440Y-10989733D01*
G36*
X10594308Y-11000117D02*
G01*
X10600989Y-10995911D01*
X10605718Y-10989177D01*
X10608299Y-10980156D01*
X10608733Y-10973760D01*
X10607696Y-10963003D01*
X10604555Y-10954883D01*
X10599265Y-10949344D01*
X10591782Y-10946336D01*
X10585046Y-10945707D01*
X10578832Y-10946004D01*
X10574665Y-10947152D01*
X10571236Y-10949535D01*
X10570863Y-10949875D01*
X10566920Y-10954392D01*
X10564492Y-10959654D01*
X10563289Y-10966564D01*
X10563243Y-10967857D01*
X10573210Y-10967857D01*
X10573408Y-10963419D01*
X10574230Y-10960496D01*
X10575867Y-10958156D01*
X10577155Y-10956811D01*
X10580976Y-10953597D01*
X10584563Y-10952638D01*
X10589551Y-10953512D01*
X10589751Y-10953565D01*
X10594039Y-10956409D01*
X10596983Y-10962087D01*
X10598439Y-10970266D01*
X10598573Y-10974181D01*
X10597638Y-10983100D01*
X10594836Y-10989210D01*
X10590175Y-10992500D01*
X10586074Y-10993120D01*
X10580760Y-10992603D01*
X10577196Y-10990692D01*
X10575014Y-10986851D01*
X10573842Y-10980540D01*
X10573441Y-10974742D01*
X10573210Y-10967857D01*
X10563243Y-10967857D01*
X10563013Y-10974353D01*
X10564139Y-10984844D01*
X10567487Y-10992837D01*
X10573012Y-10998280D01*
X10580671Y-11001121D01*
X10585873Y-11001555D01*
X10594308Y-11000117D01*
G37*
X10594308Y-11000117D02*
X10600989Y-10995911D01*
X10605718Y-10989177D01*
X10608299Y-10980156D01*
X10608733Y-10973760D01*
X10607696Y-10963003D01*
X10604555Y-10954883D01*
X10599265Y-10949344D01*
X10591782Y-10946336D01*
X10585046Y-10945707D01*
X10578832Y-10946004D01*
X10574665Y-10947152D01*
X10571236Y-10949535D01*
X10570863Y-10949875D01*
X10566920Y-10954392D01*
X10564492Y-10959654D01*
X10563289Y-10966564D01*
X10563243Y-10967857D01*
X10573210Y-10967857D01*
X10573408Y-10963419D01*
X10574230Y-10960496D01*
X10575867Y-10958156D01*
X10577155Y-10956811D01*
X10580976Y-10953597D01*
X10584563Y-10952638D01*
X10589551Y-10953512D01*
X10589751Y-10953565D01*
X10594039Y-10956409D01*
X10596983Y-10962087D01*
X10598439Y-10970266D01*
X10598573Y-10974181D01*
X10597638Y-10983100D01*
X10594836Y-10989210D01*
X10590175Y-10992500D01*
X10586074Y-10993120D01*
X10580760Y-10992603D01*
X10577196Y-10990692D01*
X10575014Y-10986851D01*
X10573842Y-10980540D01*
X10573441Y-10974742D01*
X10573210Y-10967857D01*
X10563243Y-10967857D01*
X10563013Y-10974353D01*
X10564139Y-10984844D01*
X10567487Y-10992837D01*
X10573012Y-10998280D01*
X10580671Y-11001121D01*
X10585873Y-11001555D01*
X10594308Y-11000117D01*
G36*
X10527340Y-11018017D02*
G01*
X10535368Y-11016407D01*
X10541026Y-11013537D01*
X10544751Y-11009254D01*
X10545121Y-11008578D01*
X10547275Y-11001870D01*
X10547359Y-10994953D01*
X10545598Y-10988708D01*
X10542215Y-10984016D01*
X10538345Y-10981933D01*
X10535366Y-10981026D01*
X10535467Y-10979966D01*
X10537577Y-10978392D01*
X10539831Y-10975856D01*
X10543011Y-10971056D01*
X10546609Y-10964798D01*
X10548685Y-10960817D01*
X10556274Y-10945707D01*
X10550584Y-10945707D01*
X10547510Y-10945914D01*
X10545346Y-10946994D01*
X10543445Y-10949634D01*
X10541156Y-10954520D01*
X10540250Y-10956636D01*
X10536083Y-10965395D01*
X10532089Y-10971262D01*
X10527827Y-10974680D01*
X10522860Y-10976087D01*
X10520761Y-10976187D01*
X10513907Y-10976187D01*
X10513907Y-10945707D01*
X10509109Y-10945707D01*
X10505231Y-10946069D01*
X10503182Y-10946836D01*
X10502845Y-10948795D01*
X10502547Y-10953623D01*
X10502306Y-10960801D01*
X10502138Y-10969812D01*
X10502058Y-10980137D01*
X10502053Y-10983242D01*
X10502053Y-11010053D01*
X10513907Y-11010053D01*
X10513907Y-10984223D01*
X10522689Y-10985066D01*
X10529210Y-10986241D01*
X10533363Y-10988471D01*
X10534542Y-10989703D01*
X10537286Y-10995221D01*
X10537059Y-11000614D01*
X10534242Y-11005282D01*
X10529217Y-11008625D01*
X10522366Y-11010041D01*
X10521604Y-11010053D01*
X10513907Y-11010053D01*
X10502053Y-11010053D01*
X10502053Y-11018520D01*
X10516501Y-11018520D01*
X10527340Y-11018017D01*
G37*
X10527340Y-11018017D02*
X10535368Y-11016407D01*
X10541026Y-11013537D01*
X10544751Y-11009254D01*
X10545121Y-11008578D01*
X10547275Y-11001870D01*
X10547359Y-10994953D01*
X10545598Y-10988708D01*
X10542215Y-10984016D01*
X10538345Y-10981933D01*
X10535366Y-10981026D01*
X10535467Y-10979966D01*
X10537577Y-10978392D01*
X10539831Y-10975856D01*
X10543011Y-10971056D01*
X10546609Y-10964798D01*
X10548685Y-10960817D01*
X10556274Y-10945707D01*
X10550584Y-10945707D01*
X10547510Y-10945914D01*
X10545346Y-10946994D01*
X10543445Y-10949634D01*
X10541156Y-10954520D01*
X10540250Y-10956636D01*
X10536083Y-10965395D01*
X10532089Y-10971262D01*
X10527827Y-10974680D01*
X10522860Y-10976087D01*
X10520761Y-10976187D01*
X10513907Y-10976187D01*
X10513907Y-10945707D01*
X10509109Y-10945707D01*
X10505231Y-10946069D01*
X10503182Y-10946836D01*
X10502845Y-10948795D01*
X10502547Y-10953623D01*
X10502306Y-10960801D01*
X10502138Y-10969812D01*
X10502058Y-10980137D01*
X10502053Y-10983242D01*
X10502053Y-11010053D01*
X10513907Y-11010053D01*
X10513907Y-10984223D01*
X10522689Y-10985066D01*
X10529210Y-10986241D01*
X10533363Y-10988471D01*
X10534542Y-10989703D01*
X10537286Y-10995221D01*
X10537059Y-11000614D01*
X10534242Y-11005282D01*
X10529217Y-11008625D01*
X10522366Y-11010041D01*
X10521604Y-11010053D01*
X10513907Y-11010053D01*
X10502053Y-11010053D01*
X10502053Y-11018520D01*
X10516501Y-11018520D01*
X10527340Y-11018017D01*
G36*
X10623576Y-11262980D02*
G01*
X10632389Y-11262832D01*
X10639301Y-11262490D01*
X10645055Y-11261883D01*
X10650395Y-11260943D01*
X10656064Y-11259601D01*
X10659943Y-11258571D01*
X10684632Y-11250195D01*
X10707542Y-11238976D01*
X10728557Y-11224988D01*
X10747561Y-11208307D01*
X10761191Y-11193133D01*
X10770982Y-11179487D01*
X10780291Y-11163650D01*
X10788512Y-11146814D01*
X10795040Y-11130174D01*
X10797843Y-11120967D01*
X10799499Y-11114451D01*
X10800694Y-11108753D01*
X10801502Y-11103095D01*
X10801997Y-11096700D01*
X10802252Y-11088792D01*
X10802342Y-11078594D01*
X10802348Y-11073553D01*
X10802305Y-11062188D01*
X10802127Y-11053432D01*
X10801739Y-11046509D01*
X10801069Y-11040642D01*
X10800042Y-11035054D01*
X10798584Y-11028969D01*
X10797843Y-11026140D01*
X10792888Y-11010955D01*
X10786027Y-10994798D01*
X10777838Y-10978819D01*
X10768900Y-10964169D01*
X10761803Y-10954434D01*
X10744798Y-10935900D01*
X10725502Y-10919776D01*
X10704144Y-10906209D01*
X10680952Y-10895345D01*
X10658175Y-10887861D01*
X10649374Y-10886121D01*
X10638151Y-10884801D01*
X10625446Y-10883929D01*
X10612202Y-10883533D01*
X10599359Y-10883642D01*
X10587860Y-10884284D01*
X10578771Y-10885463D01*
X10554175Y-10891811D01*
X10530972Y-10901135D01*
X10509382Y-10913232D01*
X10489623Y-10927904D01*
X10471913Y-10944948D01*
X10456472Y-10964165D01*
X10443517Y-10985352D01*
X10433267Y-11008310D01*
X10428244Y-11023781D01*
X10425833Y-11034928D01*
X10424032Y-11048358D01*
X10422896Y-11063013D01*
X10422575Y-11074387D01*
X10438318Y-11074387D01*
X10438636Y-11060004D01*
X10439670Y-11046299D01*
X10441414Y-11034268D01*
X10442437Y-11029628D01*
X10449305Y-11008724D01*
X10459066Y-10988227D01*
X10471253Y-10968935D01*
X10485403Y-10951646D01*
X10491635Y-10945347D01*
X10510372Y-10929760D01*
X10530703Y-10917060D01*
X10552345Y-10907329D01*
X10575015Y-10900648D01*
X10598429Y-10897100D01*
X10622305Y-10896766D01*
X10646358Y-10899728D01*
X10648219Y-10900097D01*
X10671492Y-10906515D01*
X10693315Y-10915883D01*
X10713470Y-10927994D01*
X10731741Y-10942645D01*
X10747913Y-10959631D01*
X10761768Y-10978747D01*
X10773091Y-10999788D01*
X10781665Y-11022550D01*
X10783179Y-11027833D01*
X10785735Y-11040414D01*
X10787355Y-11055104D01*
X10788010Y-11070753D01*
X10787670Y-11086208D01*
X10786305Y-11100315D01*
X10785214Y-11106573D01*
X10779280Y-11128780D01*
X10771038Y-11148936D01*
X10760189Y-11167592D01*
X10746432Y-11185297D01*
X10736729Y-11195623D01*
X10718246Y-11212039D01*
X10698791Y-11225232D01*
X10678216Y-11235265D01*
X10656369Y-11242199D01*
X10633099Y-11246099D01*
X10612967Y-11247075D01*
X10588513Y-11245636D01*
X10565672Y-11241266D01*
X10544257Y-11233887D01*
X10524084Y-11223421D01*
X10504968Y-11209790D01*
X10488507Y-11194746D01*
X10473635Y-11178101D01*
X10461687Y-11161065D01*
X10452231Y-11142870D01*
X10444834Y-11122750D01*
X10441755Y-11111653D01*
X10439870Y-11101207D01*
X10438727Y-11088453D01*
X10438318Y-11074387D01*
X10422575Y-11074387D01*
X10422477Y-11077836D01*
X10422831Y-11091770D01*
X10424009Y-11103757D01*
X10424140Y-11104597D01*
X10429591Y-11128016D01*
X10438115Y-11150573D01*
X10449454Y-11171945D01*
X10463348Y-11191806D01*
X10479538Y-11209831D01*
X10497765Y-11225696D01*
X10517769Y-11239075D01*
X10539292Y-11249644D01*
X10540166Y-11249997D01*
X10551615Y-11254426D01*
X10561431Y-11257734D01*
X10570491Y-11260078D01*
X10579673Y-11261618D01*
X10589855Y-11262513D01*
X10601914Y-11262920D01*
X10612120Y-11263000D01*
X10623576Y-11262980D01*
G37*
X10623576Y-11262980D02*
X10632389Y-11262832D01*
X10639301Y-11262490D01*
X10645055Y-11261883D01*
X10650395Y-11260943D01*
X10656064Y-11259601D01*
X10659943Y-11258571D01*
X10684632Y-11250195D01*
X10707542Y-11238976D01*
X10728557Y-11224988D01*
X10747561Y-11208307D01*
X10761191Y-11193133D01*
X10770982Y-11179487D01*
X10780291Y-11163650D01*
X10788512Y-11146814D01*
X10795040Y-11130174D01*
X10797843Y-11120967D01*
X10799499Y-11114451D01*
X10800694Y-11108753D01*
X10801502Y-11103095D01*
X10801997Y-11096700D01*
X10802252Y-11088792D01*
X10802342Y-11078594D01*
X10802348Y-11073553D01*
X10802305Y-11062188D01*
X10802127Y-11053432D01*
X10801739Y-11046509D01*
X10801069Y-11040642D01*
X10800042Y-11035054D01*
X10798584Y-11028969D01*
X10797843Y-11026140D01*
X10792888Y-11010955D01*
X10786027Y-10994798D01*
X10777838Y-10978819D01*
X10768900Y-10964169D01*
X10761803Y-10954434D01*
X10744798Y-10935900D01*
X10725502Y-10919776D01*
X10704144Y-10906209D01*
X10680952Y-10895345D01*
X10658175Y-10887861D01*
X10649374Y-10886121D01*
X10638151Y-10884801D01*
X10625446Y-10883929D01*
X10612202Y-10883533D01*
X10599359Y-10883642D01*
X10587860Y-10884284D01*
X10578771Y-10885463D01*
X10554175Y-10891811D01*
X10530972Y-10901135D01*
X10509382Y-10913232D01*
X10489623Y-10927904D01*
X10471913Y-10944948D01*
X10456472Y-10964165D01*
X10443517Y-10985352D01*
X10433267Y-11008310D01*
X10428244Y-11023781D01*
X10425833Y-11034928D01*
X10424032Y-11048358D01*
X10422896Y-11063013D01*
X10422575Y-11074387D01*
X10438318Y-11074387D01*
X10438636Y-11060004D01*
X10439670Y-11046299D01*
X10441414Y-11034268D01*
X10442437Y-11029628D01*
X10449305Y-11008724D01*
X10459066Y-10988227D01*
X10471253Y-10968935D01*
X10485403Y-10951646D01*
X10491635Y-10945347D01*
X10510372Y-10929760D01*
X10530703Y-10917060D01*
X10552345Y-10907329D01*
X10575015Y-10900648D01*
X10598429Y-10897100D01*
X10622305Y-10896766D01*
X10646358Y-10899728D01*
X10648219Y-10900097D01*
X10671492Y-10906515D01*
X10693315Y-10915883D01*
X10713470Y-10927994D01*
X10731741Y-10942645D01*
X10747913Y-10959631D01*
X10761768Y-10978747D01*
X10773091Y-10999788D01*
X10781665Y-11022550D01*
X10783179Y-11027833D01*
X10785735Y-11040414D01*
X10787355Y-11055104D01*
X10788010Y-11070753D01*
X10787670Y-11086208D01*
X10786305Y-11100315D01*
X10785214Y-11106573D01*
X10779280Y-11128780D01*
X10771038Y-11148936D01*
X10760189Y-11167592D01*
X10746432Y-11185297D01*
X10736729Y-11195623D01*
X10718246Y-11212039D01*
X10698791Y-11225232D01*
X10678216Y-11235265D01*
X10656369Y-11242199D01*
X10633099Y-11246099D01*
X10612967Y-11247075D01*
X10588513Y-11245636D01*
X10565672Y-11241266D01*
X10544257Y-11233887D01*
X10524084Y-11223421D01*
X10504968Y-11209790D01*
X10488507Y-11194746D01*
X10473635Y-11178101D01*
X10461687Y-11161065D01*
X10452231Y-11142870D01*
X10444834Y-11122750D01*
X10441755Y-11111653D01*
X10439870Y-11101207D01*
X10438727Y-11088453D01*
X10438318Y-11074387D01*
X10422575Y-11074387D01*
X10422477Y-11077836D01*
X10422831Y-11091770D01*
X10424009Y-11103757D01*
X10424140Y-11104597D01*
X10429591Y-11128016D01*
X10438115Y-11150573D01*
X10449454Y-11171945D01*
X10463348Y-11191806D01*
X10479538Y-11209831D01*
X10497765Y-11225696D01*
X10517769Y-11239075D01*
X10539292Y-11249644D01*
X10540166Y-11249997D01*
X10551615Y-11254426D01*
X10561431Y-11257734D01*
X10570491Y-11260078D01*
X10579673Y-11261618D01*
X10589855Y-11262513D01*
X10601914Y-11262920D01*
X10612120Y-11263000D01*
X10623576Y-11262980D01*
G36*
X9453880Y-11671300D02*
G01*
X9471025Y-11671330D01*
X9495454Y-11673787D01*
X9518218Y-11680838D01*
X9538836Y-11692139D01*
X9556825Y-11707344D01*
X9571706Y-11726106D01*
X9582995Y-11748082D01*
X9584827Y-11752968D01*
X9588275Y-11762740D01*
X9486900Y-11762740D01*
X9486900Y-11816080D01*
X9588275Y-11816080D01*
X9584827Y-11825852D01*
X9574324Y-11848376D01*
X9559958Y-11867968D01*
X9542206Y-11884182D01*
X9521546Y-11896570D01*
X9501204Y-11903989D01*
X9491364Y-11905878D01*
X9479485Y-11907151D01*
X9471025Y-11907490D01*
X9453880Y-11907520D01*
X9453880Y-11960860D01*
X9472295Y-11960658D01*
X9484404Y-11960035D01*
X9497151Y-11958624D01*
X9505950Y-11957095D01*
X9534578Y-11948336D01*
X9560714Y-11935391D01*
X9583976Y-11918581D01*
X9603984Y-11898226D01*
X9620357Y-11874646D01*
X9631393Y-11851640D01*
X9639829Y-11823669D01*
X9643365Y-11795552D01*
X9642003Y-11768185D01*
X9635860Y-11739783D01*
X9625602Y-11714005D01*
X9610937Y-11690277D01*
X9591574Y-11668024D01*
X9590538Y-11666999D01*
X9568265Y-11648360D01*
X9543936Y-11634279D01*
X9517324Y-11624658D01*
X9488202Y-11619400D01*
X9478645Y-11618641D01*
X9453880Y-11617221D01*
X9453880Y-11671300D01*
G37*
X9453880Y-11671300D02*
X9471025Y-11671330D01*
X9495454Y-11673787D01*
X9518218Y-11680838D01*
X9538836Y-11692139D01*
X9556825Y-11707344D01*
X9571706Y-11726106D01*
X9582995Y-11748082D01*
X9584827Y-11752968D01*
X9588275Y-11762740D01*
X9486900Y-11762740D01*
X9486900Y-11816080D01*
X9588275Y-11816080D01*
X9584827Y-11825852D01*
X9574324Y-11848376D01*
X9559958Y-11867968D01*
X9542206Y-11884182D01*
X9521546Y-11896570D01*
X9501204Y-11903989D01*
X9491364Y-11905878D01*
X9479485Y-11907151D01*
X9471025Y-11907490D01*
X9453880Y-11907520D01*
X9453880Y-11960860D01*
X9472295Y-11960658D01*
X9484404Y-11960035D01*
X9497151Y-11958624D01*
X9505950Y-11957095D01*
X9534578Y-11948336D01*
X9560714Y-11935391D01*
X9583976Y-11918581D01*
X9603984Y-11898226D01*
X9620357Y-11874646D01*
X9631393Y-11851640D01*
X9639829Y-11823669D01*
X9643365Y-11795552D01*
X9642003Y-11768185D01*
X9635860Y-11739783D01*
X9625602Y-11714005D01*
X9610937Y-11690277D01*
X9591574Y-11668024D01*
X9590538Y-11666999D01*
X9568265Y-11648360D01*
X9543936Y-11634279D01*
X9517324Y-11624658D01*
X9488202Y-11619400D01*
X9478645Y-11618641D01*
X9453880Y-11617221D01*
X9453880Y-11671300D01*
G36*
X9743440Y-11671300D02*
G01*
X9760686Y-11671300D01*
X9785655Y-11673648D01*
X9808733Y-11680514D01*
X9829493Y-11691633D01*
X9847505Y-11706737D01*
X9862340Y-11725560D01*
X9869778Y-11739033D01*
X9874337Y-11749128D01*
X9877231Y-11757369D01*
X9878913Y-11765692D01*
X9879834Y-11776035D01*
X9880198Y-11783729D01*
X9880475Y-11797118D01*
X9879917Y-11807397D01*
X9878315Y-11816499D01*
X9875685Y-11825669D01*
X9865942Y-11847784D01*
X9851984Y-11867243D01*
X9835525Y-11882502D01*
X9818551Y-11893666D01*
X9801240Y-11901129D01*
X9782008Y-11905455D01*
X9766935Y-11906896D01*
X9743440Y-11908212D01*
X9743440Y-11960860D01*
X9763125Y-11960658D01*
X9775371Y-11960078D01*
X9788127Y-11958760D01*
X9798050Y-11957101D01*
X9825765Y-11948526D01*
X9851345Y-11935701D01*
X9874327Y-11919069D01*
X9894243Y-11899074D01*
X9910630Y-11876159D01*
X9923023Y-11850767D01*
X9928931Y-11832312D01*
X9933776Y-11803790D01*
X9933854Y-11775839D01*
X9929475Y-11748874D01*
X9920949Y-11723314D01*
X9908587Y-11699573D01*
X9892699Y-11678068D01*
X9873595Y-11659215D01*
X9851586Y-11643432D01*
X9826981Y-11631133D01*
X9800093Y-11622736D01*
X9771229Y-11618656D01*
X9769602Y-11618566D01*
X9743440Y-11617230D01*
X9743440Y-11671300D01*
G37*
X9743440Y-11671300D02*
X9760686Y-11671300D01*
X9785655Y-11673648D01*
X9808733Y-11680514D01*
X9829493Y-11691633D01*
X9847505Y-11706737D01*
X9862340Y-11725560D01*
X9869778Y-11739033D01*
X9874337Y-11749128D01*
X9877231Y-11757369D01*
X9878913Y-11765692D01*
X9879834Y-11776035D01*
X9880198Y-11783729D01*
X9880475Y-11797118D01*
X9879917Y-11807397D01*
X9878315Y-11816499D01*
X9875685Y-11825669D01*
X9865942Y-11847784D01*
X9851984Y-11867243D01*
X9835525Y-11882502D01*
X9818551Y-11893666D01*
X9801240Y-11901129D01*
X9782008Y-11905455D01*
X9766935Y-11906896D01*
X9743440Y-11908212D01*
X9743440Y-11960860D01*
X9763125Y-11960658D01*
X9775371Y-11960078D01*
X9788127Y-11958760D01*
X9798050Y-11957101D01*
X9825765Y-11948526D01*
X9851345Y-11935701D01*
X9874327Y-11919069D01*
X9894243Y-11899074D01*
X9910630Y-11876159D01*
X9923023Y-11850767D01*
X9928931Y-11832312D01*
X9933776Y-11803790D01*
X9933854Y-11775839D01*
X9929475Y-11748874D01*
X9920949Y-11723314D01*
X9908587Y-11699573D01*
X9892699Y-11678068D01*
X9873595Y-11659215D01*
X9851586Y-11643432D01*
X9826981Y-11631133D01*
X9800093Y-11622736D01*
X9771229Y-11618656D01*
X9769602Y-11618566D01*
X9743440Y-11617230D01*
X9743440Y-11671300D01*
G36*
X10353885Y-12066726D02*
G01*
X10379830Y-12061915D01*
X10406220Y-12052043D01*
X10432022Y-12037838D01*
X10456201Y-12020032D01*
X10477725Y-11999352D01*
X10495559Y-11976528D01*
X10505139Y-11959981D01*
X10510765Y-11947983D01*
X10514217Y-11938158D01*
X10516116Y-11927993D01*
X10517088Y-11914972D01*
X10517253Y-11911133D01*
X10517383Y-11898221D01*
X10516771Y-11888441D01*
X10515609Y-11882359D01*
X10514092Y-11880543D01*
X10512414Y-11883557D01*
X10510768Y-11891969D01*
X10510745Y-11892137D01*
X10505244Y-11911169D01*
X10493962Y-11930767D01*
X10477046Y-11950743D01*
X10454644Y-11970909D01*
X10440006Y-11982036D01*
X10410023Y-12000048D01*
X10376696Y-12013259D01*
X10352583Y-12019438D01*
X10340721Y-12022738D01*
X10333685Y-12027489D01*
X10330321Y-12035067D01*
X10329478Y-12046846D01*
X10329479Y-12047023D01*
X10330038Y-12057645D01*
X10332400Y-12063916D01*
X10337729Y-12066776D01*
X10347189Y-12067167D01*
X10353885Y-12066726D01*
G37*
X10353885Y-12066726D02*
X10379830Y-12061915D01*
X10406220Y-12052043D01*
X10432022Y-12037838D01*
X10456201Y-12020032D01*
X10477725Y-11999352D01*
X10495559Y-11976528D01*
X10505139Y-11959981D01*
X10510765Y-11947983D01*
X10514217Y-11938158D01*
X10516116Y-11927993D01*
X10517088Y-11914972D01*
X10517253Y-11911133D01*
X10517383Y-11898221D01*
X10516771Y-11888441D01*
X10515609Y-11882359D01*
X10514092Y-11880543D01*
X10512414Y-11883557D01*
X10510768Y-11891969D01*
X10510745Y-11892137D01*
X10505244Y-11911169D01*
X10493962Y-11930767D01*
X10477046Y-11950743D01*
X10454644Y-11970909D01*
X10440006Y-11982036D01*
X10410023Y-12000048D01*
X10376696Y-12013259D01*
X10352583Y-12019438D01*
X10340721Y-12022738D01*
X10333685Y-12027489D01*
X10330321Y-12035067D01*
X10329478Y-12046846D01*
X10329479Y-12047023D01*
X10330038Y-12057645D01*
X10332400Y-12063916D01*
X10337729Y-12066776D01*
X10347189Y-12067167D01*
X10353885Y-12066726D01*
G36*
X10508611Y-11869274D02*
G01*
X10507276Y-11866250D01*
X10502879Y-11860581D01*
X10495021Y-11851750D01*
X10483327Y-11839267D01*
X10471374Y-11826639D01*
X10462799Y-11817360D01*
X10456862Y-11810448D01*
X10452822Y-11804922D01*
X10449940Y-11799799D01*
X10447476Y-11794097D01*
X10445571Y-11789147D01*
X10441147Y-11774299D01*
X10440528Y-11761229D01*
X10443719Y-11747209D01*
X10445652Y-11741797D01*
X10453381Y-11725660D01*
X10464508Y-11709616D01*
X10479702Y-11692835D01*
X10499636Y-11674488D01*
X10501054Y-11673270D01*
X10518772Y-11656984D01*
X10531222Y-11642785D01*
X10538579Y-11630290D01*
X10541018Y-11619117D01*
X10538714Y-11608883D01*
X10533861Y-11601455D01*
X10524290Y-11594194D01*
X10512228Y-11592274D01*
X10497577Y-11595686D01*
X10492292Y-11597918D01*
X10482294Y-11603815D01*
X10469814Y-11613027D01*
X10456257Y-11624331D01*
X10443029Y-11636502D01*
X10431535Y-11648317D01*
X10424033Y-11657361D01*
X10409641Y-11680969D01*
X10401224Y-11704447D01*
X10398781Y-11727803D01*
X10402311Y-11751046D01*
X10411815Y-11774184D01*
X10416725Y-11782532D01*
X10424479Y-11793381D01*
X10434729Y-11805787D01*
X10446664Y-11818963D01*
X10459467Y-11832121D01*
X10472326Y-11844473D01*
X10484425Y-11855231D01*
X10494951Y-11863607D01*
X10503090Y-11868813D01*
X10507286Y-11870167D01*
X10508611Y-11869274D01*
G37*
X10508611Y-11869274D02*
X10507276Y-11866250D01*
X10502879Y-11860581D01*
X10495021Y-11851750D01*
X10483327Y-11839267D01*
X10471374Y-11826639D01*
X10462799Y-11817360D01*
X10456862Y-11810448D01*
X10452822Y-11804922D01*
X10449940Y-11799799D01*
X10447476Y-11794097D01*
X10445571Y-11789147D01*
X10441147Y-11774299D01*
X10440528Y-11761229D01*
X10443719Y-11747209D01*
X10445652Y-11741797D01*
X10453381Y-11725660D01*
X10464508Y-11709616D01*
X10479702Y-11692835D01*
X10499636Y-11674488D01*
X10501054Y-11673270D01*
X10518772Y-11656984D01*
X10531222Y-11642785D01*
X10538579Y-11630290D01*
X10541018Y-11619117D01*
X10538714Y-11608883D01*
X10533861Y-11601455D01*
X10524290Y-11594194D01*
X10512228Y-11592274D01*
X10497577Y-11595686D01*
X10492292Y-11597918D01*
X10482294Y-11603815D01*
X10469814Y-11613027D01*
X10456257Y-11624331D01*
X10443029Y-11636502D01*
X10431535Y-11648317D01*
X10424033Y-11657361D01*
X10409641Y-11680969D01*
X10401224Y-11704447D01*
X10398781Y-11727803D01*
X10402311Y-11751046D01*
X10411815Y-11774184D01*
X10416725Y-11782532D01*
X10424479Y-11793381D01*
X10434729Y-11805787D01*
X10446664Y-11818963D01*
X10459467Y-11832121D01*
X10472326Y-11844473D01*
X10484425Y-11855231D01*
X10494951Y-11863607D01*
X10503090Y-11868813D01*
X10507286Y-11870167D01*
X10508611Y-11869274D01*
G36*
X10774541Y-12099565D02*
G01*
X10781841Y-12097686D01*
X10789625Y-12094098D01*
X10792764Y-12092418D01*
X10803464Y-12085574D01*
X10812257Y-12078066D01*
X10818333Y-12070850D01*
X10820881Y-12064877D01*
X10819293Y-12061221D01*
X10813024Y-12059066D01*
X10807551Y-12058464D01*
X10797459Y-12057298D01*
X10783185Y-12054177D01*
X10766035Y-12049504D01*
X10747318Y-12043682D01*
X10728342Y-12037116D01*
X10710415Y-12030207D01*
X10696986Y-12024371D01*
X10659438Y-12004898D01*
X10627678Y-11984126D01*
X10601652Y-11962010D01*
X10581304Y-11938506D01*
X10572895Y-11925628D01*
X10565682Y-11907542D01*
X10564096Y-11887802D01*
X10568086Y-11866610D01*
X10577597Y-11844170D01*
X10592576Y-11820682D01*
X10604254Y-11806069D01*
X10608858Y-11801127D01*
X10616907Y-11792920D01*
X10627530Y-11782318D01*
X10639857Y-11770191D01*
X10650592Y-11759751D01*
X10680670Y-11730488D01*
X10706578Y-11704874D01*
X10728595Y-11682573D01*
X10747003Y-11663246D01*
X10762082Y-11646556D01*
X10774113Y-11632165D01*
X10783376Y-11619736D01*
X10790153Y-11608929D01*
X10794722Y-11599408D01*
X10797366Y-11590835D01*
X10798364Y-11582871D01*
X10798388Y-11581802D01*
X10795765Y-11572766D01*
X10788755Y-11565253D01*
X10778946Y-11560882D01*
X10777596Y-11560636D01*
X10770732Y-11560424D01*
X10763354Y-11562359D01*
X10753732Y-11567007D01*
X10747786Y-11570381D01*
X10737670Y-11577396D01*
X10724331Y-11588335D01*
X10708399Y-11602554D01*
X10690504Y-11619410D01*
X10671279Y-11638258D01*
X10651353Y-11658457D01*
X10631358Y-11679362D01*
X10611925Y-11700329D01*
X10593684Y-11720716D01*
X10577266Y-11739878D01*
X10563303Y-11757173D01*
X10558597Y-11763354D01*
X10544234Y-11786839D01*
X10534727Y-11811781D01*
X10530324Y-11837173D01*
X10531268Y-11862008D01*
X10532730Y-11869633D01*
X10541444Y-11897206D01*
X10554777Y-11926254D01*
X10571975Y-11955835D01*
X10592284Y-11985010D01*
X10614950Y-12012838D01*
X10639220Y-12038376D01*
X10664341Y-12060685D01*
X10689558Y-12078824D01*
X10708815Y-12089474D01*
X10721491Y-12094799D01*
X10733258Y-12097903D01*
X10747035Y-12099472D01*
X10752810Y-12099783D01*
X10765579Y-12100133D01*
X10774541Y-12099565D01*
G37*
X10774541Y-12099565D02*
X10781841Y-12097686D01*
X10789625Y-12094098D01*
X10792764Y-12092418D01*
X10803464Y-12085574D01*
X10812257Y-12078066D01*
X10818333Y-12070850D01*
X10820881Y-12064877D01*
X10819293Y-12061221D01*
X10813024Y-12059066D01*
X10807551Y-12058464D01*
X10797459Y-12057298D01*
X10783185Y-12054177D01*
X10766035Y-12049504D01*
X10747318Y-12043682D01*
X10728342Y-12037116D01*
X10710415Y-12030207D01*
X10696986Y-12024371D01*
X10659438Y-12004898D01*
X10627678Y-11984126D01*
X10601652Y-11962010D01*
X10581304Y-11938506D01*
X10572895Y-11925628D01*
X10565682Y-11907542D01*
X10564096Y-11887802D01*
X10568086Y-11866610D01*
X10577597Y-11844170D01*
X10592576Y-11820682D01*
X10604254Y-11806069D01*
X10608858Y-11801127D01*
X10616907Y-11792920D01*
X10627530Y-11782318D01*
X10639857Y-11770191D01*
X10650592Y-11759751D01*
X10680670Y-11730488D01*
X10706578Y-11704874D01*
X10728595Y-11682573D01*
X10747003Y-11663246D01*
X10762082Y-11646556D01*
X10774113Y-11632165D01*
X10783376Y-11619736D01*
X10790153Y-11608929D01*
X10794722Y-11599408D01*
X10797366Y-11590835D01*
X10798364Y-11582871D01*
X10798388Y-11581802D01*
X10795765Y-11572766D01*
X10788755Y-11565253D01*
X10778946Y-11560882D01*
X10777596Y-11560636D01*
X10770732Y-11560424D01*
X10763354Y-11562359D01*
X10753732Y-11567007D01*
X10747786Y-11570381D01*
X10737670Y-11577396D01*
X10724331Y-11588335D01*
X10708399Y-11602554D01*
X10690504Y-11619410D01*
X10671279Y-11638258D01*
X10651353Y-11658457D01*
X10631358Y-11679362D01*
X10611925Y-11700329D01*
X10593684Y-11720716D01*
X10577266Y-11739878D01*
X10563303Y-11757173D01*
X10558597Y-11763354D01*
X10544234Y-11786839D01*
X10534727Y-11811781D01*
X10530324Y-11837173D01*
X10531268Y-11862008D01*
X10532730Y-11869633D01*
X10541444Y-11897206D01*
X10554777Y-11926254D01*
X10571975Y-11955835D01*
X10592284Y-11985010D01*
X10614950Y-12012838D01*
X10639220Y-12038376D01*
X10664341Y-12060685D01*
X10689558Y-12078824D01*
X10708815Y-12089474D01*
X10721491Y-12094799D01*
X10733258Y-12097903D01*
X10747035Y-12099472D01*
X10752810Y-12099783D01*
X10765579Y-12100133D01*
X10774541Y-12099565D01*
D12*
X10457500Y-10000000D02*
G75*
G03*
X10457500Y-10000000I-457500J0D01*
G01*
X10538815Y-9820395D02*
X10538815Y-10179605D01*
D13*
X10486725Y-9633483D02*
X10536223Y-9583986D01*
X10484368Y-9602842D01*
X10503224Y-9550987D01*
X10453727Y-9600485D01*
X10406586Y-9553344D02*
X10430157Y-9576914D01*
X10479654Y-9527417D01*
X10364160Y-9510918D02*
X10392444Y-9539202D01*
X10378302Y-9525060D02*
X10427800Y-9475562D01*
X10425443Y-9487348D01*
X10425443Y-9496776D01*
X10427800Y-9503847D01*
M02*
