G04 #@! TF.GenerationSoftware,KiCad,Pcbnew,5.1.9*
G04 #@! TF.CreationDate,2021-03-19T09:48:01+01:00*
G04 #@! TF.ProjectId,Y11025HL-WIFI,59313130-3235-4484-9c2d-574946492e6b,rev?*
G04 #@! TF.SameCoordinates,Original*
G04 #@! TF.FileFunction,Other,Fab,Bot*
%FSLAX45Y45*%
G04 Gerber Fmt 4.5, Leading zero omitted, Abs format (unit mm)*
G04 Created by KiCad (PCBNEW 5.1.9) date 2021-03-19 09:48:01*
%MOMM*%
%LPD*%
G01*
G04 APERTURE LIST*
%ADD10C,0.080000*%
G04 APERTURE END LIST*
D10*
X9751334Y-9395424D02*
X9701837Y-9345926D01*
X9720693Y-9397781D01*
X9668838Y-9378925D01*
X9718336Y-9428422D01*
X9671195Y-9475562D02*
X9694766Y-9451992D01*
X9645268Y-9402495D01*
X9609913Y-9437850D02*
X9626412Y-9520346D01*
X9576914Y-9470848D02*
X9659410Y-9487348D01*
X9605199Y-9541559D02*
X9595771Y-9550987D01*
X9588700Y-9553344D01*
X9583986Y-9553344D01*
X9572200Y-9550987D01*
X9560415Y-9543916D01*
X9541559Y-9525060D01*
X9539202Y-9517989D01*
X9539202Y-9513275D01*
X9541559Y-9506204D01*
X9550987Y-9496776D01*
X9558058Y-9494419D01*
X9562772Y-9494419D01*
X9569843Y-9496776D01*
X9581628Y-9508561D01*
X9583986Y-9515632D01*
X9583986Y-9520346D01*
X9581628Y-9527417D01*
X9572200Y-9536845D01*
X9565129Y-9539202D01*
X9560415Y-9539202D01*
X9553344Y-9536845D01*
X9501490Y-9546273D02*
X9496776Y-9550987D01*
X9494419Y-9558058D01*
X9494419Y-9562772D01*
X9496776Y-9569843D01*
X9503847Y-9581628D01*
X9515632Y-9593414D01*
X9527417Y-9600485D01*
X9534488Y-9602842D01*
X9539202Y-9602842D01*
X9546273Y-9600485D01*
X9550987Y-9595771D01*
X9553344Y-9588700D01*
X9553344Y-9583986D01*
X9550987Y-9576914D01*
X9543916Y-9565129D01*
X9532131Y-9553344D01*
X9520346Y-9546273D01*
X9513275Y-9543916D01*
X9508561Y-9543916D01*
X9501490Y-9546273D01*
X9442564Y-9605199D02*
X9451992Y-9595771D01*
X9459063Y-9593414D01*
X9463777Y-9593414D01*
X9475562Y-9595771D01*
X9487348Y-9602842D01*
X9506204Y-9621698D01*
X9508561Y-9628769D01*
X9508561Y-9633483D01*
X9506204Y-9640554D01*
X9496776Y-9649982D01*
X9489705Y-9652339D01*
X9484991Y-9652339D01*
X9477919Y-9649982D01*
X9466134Y-9638197D01*
X9463777Y-9631126D01*
X9463777Y-9626412D01*
X9466134Y-9619341D01*
X9475562Y-9609913D01*
X9482634Y-9607556D01*
X9487348Y-9607556D01*
X9494419Y-9609913D01*
X9423708Y-9633483D02*
X9418994Y-9633483D01*
X9411923Y-9635840D01*
X9400138Y-9647625D01*
X9397781Y-9654696D01*
X9397781Y-9659410D01*
X9400138Y-9666481D01*
X9404852Y-9671195D01*
X9414280Y-9675909D01*
X9470848Y-9675909D01*
X9440207Y-9706551D01*
X9393067Y-9753691D02*
X9421351Y-9725407D01*
X9407209Y-9739549D02*
X9357711Y-9690052D01*
X9369496Y-9692409D01*
X9378925Y-9692409D01*
X9385996Y-9690052D01*
M02*
