G04 #@! TF.GenerationSoftware,KiCad,Pcbnew,5.1.9*
G04 #@! TF.CreationDate,2021-03-17T15:02:41+01:00*
G04 #@! TF.ProjectId,Y11025HL-WIFI,59313130-3235-4484-9c2d-574946492e6b,rev?*
G04 #@! TF.SameCoordinates,Original*
G04 #@! TF.FileFunction,Other,Fab,Top*
%FSLAX45Y45*%
G04 Gerber Fmt 4.5, Leading zero omitted, Abs format (unit mm)*
G04 Created by KiCad (PCBNEW 5.1.9) date 2021-03-17 15:02:41*
%MOMM*%
%LPD*%
G01*
G04 APERTURE LIST*
%ADD10C,0.100000*%
%ADD11C,0.120000*%
%ADD12C,0.080000*%
%ADD13C,0.150000*%
G04 APERTURE END LIST*
D10*
X9931789Y-9685513D02*
X9578236Y-9331960D01*
X9578236Y-9331960D02*
X10002500Y-8907696D01*
X10002500Y-8907696D02*
X10426764Y-9331960D01*
X10426764Y-9331960D02*
X10073211Y-9685513D01*
X10073211Y-9685513D02*
X9931789Y-9685513D01*
X8843640Y-10216600D02*
X8843640Y-10376600D01*
X8763640Y-10216600D02*
X8843640Y-10216600D01*
X8763640Y-10376600D02*
X8763640Y-10216600D01*
X8843640Y-10376600D02*
X8763640Y-10376600D01*
X9025260Y-10216600D02*
X9105260Y-10216600D01*
X9105260Y-10216600D02*
X9105260Y-10376600D01*
X9105260Y-10376600D02*
X9025260Y-10376600D01*
X9025260Y-10376600D02*
X9025260Y-10216600D01*
X10808500Y-9862820D02*
X10966000Y-9862820D01*
X10966000Y-9862820D02*
X10966000Y-10497820D01*
X10966000Y-10497820D02*
X10756000Y-10497820D01*
X10756000Y-10497820D02*
X10756000Y-9915320D01*
X10756000Y-9915320D02*
X10808500Y-9862820D01*
X10886800Y-9411800D02*
X10821800Y-9476800D01*
X10706800Y-9476800D02*
X10821800Y-9476800D01*
X10886800Y-9411800D02*
X10886800Y-9166800D01*
X10706800Y-9166800D02*
X10886800Y-9166800D01*
X10706800Y-9476800D02*
X10706800Y-9166800D01*
X10887100Y-8092420D02*
X10967100Y-8092420D01*
X10967100Y-8092420D02*
X10967100Y-8252420D01*
X10967100Y-8252420D02*
X10887100Y-8252420D01*
X10887100Y-8252420D02*
X10887100Y-8092420D01*
X11503000Y-11748800D02*
X11423000Y-11748800D01*
X11423000Y-11748800D02*
X11423000Y-11588800D01*
X11423000Y-11588800D02*
X11503000Y-11588800D01*
X11503000Y-11588800D02*
X11503000Y-11748800D01*
X11161400Y-8252420D02*
X11161400Y-8092420D01*
X11241400Y-8252420D02*
X11161400Y-8252420D01*
X11241400Y-8092420D02*
X11241400Y-8252420D01*
X11161400Y-8092420D02*
X11241400Y-8092420D01*
X11425600Y-10364500D02*
X11505600Y-10364500D01*
X11505600Y-10364500D02*
X11505600Y-10524500D01*
X11505600Y-10524500D02*
X11425600Y-10524500D01*
X11425600Y-10524500D02*
X11425600Y-10364500D01*
X11612900Y-9347840D02*
X11772900Y-9347840D01*
X11612900Y-9427840D02*
X11612900Y-9347840D01*
X11772900Y-9427840D02*
X11612900Y-9427840D01*
X11772900Y-9347840D02*
X11772900Y-9427840D01*
X8809360Y-10772500D02*
X8809360Y-10612500D01*
X8889360Y-10772500D02*
X8809360Y-10772500D01*
X8889360Y-10612500D02*
X8889360Y-10772500D01*
X8809360Y-10612500D02*
X8889360Y-10612500D01*
X12200900Y-9495160D02*
X12200900Y-9575160D01*
X12200900Y-9575160D02*
X12040900Y-9575160D01*
X12040900Y-9575160D02*
X12040900Y-9495160D01*
X12040900Y-9495160D02*
X12200900Y-9495160D01*
X8360400Y-11277000D02*
X8200400Y-11277000D01*
X8360400Y-11197000D02*
X8360400Y-11277000D01*
X8200400Y-11197000D02*
X8360400Y-11197000D01*
X8200400Y-11277000D02*
X8200400Y-11197000D01*
X11745984Y-8978300D02*
X11745984Y-8915300D01*
X11777484Y-8946800D02*
X11714484Y-8946800D01*
X11837000Y-8583800D02*
X11737000Y-8483800D01*
X11837000Y-9043800D02*
X11737000Y-9143800D01*
X11837000Y-9043800D02*
X11837000Y-8583800D01*
X11737000Y-8483800D02*
X11177000Y-8483800D01*
X11737000Y-9143800D02*
X11177000Y-9143800D01*
X11177000Y-9143800D02*
X11177000Y-8483800D01*
X11822000Y-8813800D02*
G75*
G03*
X11822000Y-8813800I-315000J0D01*
G01*
X8289280Y-9119240D02*
X8289280Y-9199240D01*
X8289280Y-9199240D02*
X8129280Y-9199240D01*
X8129280Y-9199240D02*
X8129280Y-9119240D01*
X8129280Y-9119240D02*
X8289280Y-9119240D01*
X8539520Y-10657800D02*
G75*
G03*
X8539520Y-10657800I-315000J0D01*
G01*
X8554520Y-10327800D02*
X8554520Y-10987800D01*
X7994520Y-10327800D02*
X8554520Y-10327800D01*
X7994520Y-10987800D02*
X8554520Y-10987800D01*
X7894520Y-10427800D02*
X7894520Y-10887800D01*
X7894520Y-10427800D02*
X7994520Y-10327800D01*
X7894520Y-10887800D02*
X7994520Y-10987800D01*
X7954036Y-10524800D02*
X8017036Y-10524800D01*
X7985536Y-10493300D02*
X7985536Y-10556300D01*
X7931130Y-8900600D02*
X7931130Y-8820600D01*
X7771130Y-8900600D02*
X7931130Y-8900600D01*
X7771130Y-8850600D02*
X7771130Y-8900600D01*
X7801130Y-8820600D02*
X7771130Y-8850600D01*
X7931130Y-8820600D02*
X7801130Y-8820600D01*
X7931130Y-8545200D02*
X7801130Y-8545200D01*
X7801130Y-8545200D02*
X7771130Y-8575200D01*
X7771130Y-8575200D02*
X7771130Y-8625200D01*
X7771130Y-8625200D02*
X7931130Y-8625200D01*
X7931130Y-8625200D02*
X7931130Y-8545200D01*
X10332200Y-7736560D02*
X10427200Y-7836560D01*
X10427200Y-7636560D02*
X10332200Y-7736560D01*
X10427200Y-7236560D02*
X10427200Y-7636560D01*
X9537200Y-7236560D02*
X9537200Y-8706560D01*
X9537200Y-8706560D02*
X10427200Y-8706560D01*
X10427200Y-7836560D02*
X10427200Y-8706560D01*
X9537200Y-7236560D02*
X10427200Y-7236560D01*
X11713850Y-10784900D02*
X11796350Y-10784900D01*
X11796350Y-10784900D02*
X11796350Y-10944900D01*
X11796350Y-10944900D02*
X11713850Y-10944900D01*
X11713850Y-10944900D02*
X11713850Y-10784900D01*
X11212150Y-11748800D02*
X11129650Y-11748800D01*
X11129650Y-11748800D02*
X11129650Y-11588800D01*
X11129650Y-11588800D02*
X11212150Y-11588800D01*
X11212150Y-11588800D02*
X11212150Y-11748800D01*
X11796350Y-11187400D02*
X11796350Y-11347400D01*
X11713850Y-11187400D02*
X11796350Y-11187400D01*
X11713850Y-11347400D02*
X11713850Y-11187400D01*
X11796350Y-11347400D02*
X11713850Y-11347400D01*
X11796350Y-10524500D02*
X11713850Y-10524500D01*
X11713850Y-10524500D02*
X11713850Y-10364500D01*
X11713850Y-10364500D02*
X11796350Y-10364500D01*
X11796350Y-10364500D02*
X11796350Y-10524500D01*
X8808110Y-11178600D02*
X8808110Y-11018600D01*
X8890610Y-11178600D02*
X8808110Y-11178600D01*
X8890610Y-11018600D02*
X8890610Y-11178600D01*
X8808110Y-11018600D02*
X8890610Y-11018600D01*
X11619200Y-9718650D02*
X11619200Y-9636150D01*
X11619200Y-9636150D02*
X11779200Y-9636150D01*
X11779200Y-9636150D02*
X11779200Y-9718650D01*
X11779200Y-9718650D02*
X11619200Y-9718650D01*
X11374100Y-9434170D02*
X11214100Y-9434170D01*
X11374100Y-9351670D02*
X11374100Y-9434170D01*
X11214100Y-9351670D02*
X11374100Y-9351670D01*
X11214100Y-9434170D02*
X11214100Y-9351670D01*
X11212150Y-10784900D02*
X11212150Y-10944900D01*
X11129650Y-10784900D02*
X11212150Y-10784900D01*
X11129650Y-10944900D02*
X11129650Y-10784900D01*
X11212150Y-10944900D02*
X11129650Y-10944900D01*
X11129650Y-11186800D02*
X11212150Y-11186800D01*
X11212150Y-11186800D02*
X11212150Y-11346800D01*
X11212150Y-11346800D02*
X11129650Y-11346800D01*
X11129650Y-11346800D02*
X11129650Y-11186800D01*
X8990320Y-8815350D02*
X8990320Y-8897850D01*
X8990320Y-8897850D02*
X8830320Y-8897850D01*
X8830320Y-8897850D02*
X8830320Y-8815350D01*
X8830320Y-8815350D02*
X8990320Y-8815350D01*
X8830320Y-8543950D02*
X8990320Y-8543950D01*
X8830320Y-8626450D02*
X8830320Y-8543950D01*
X8990320Y-8626450D02*
X8830320Y-8626450D01*
X8990320Y-8543950D02*
X8990320Y-8626450D01*
X9411960Y-9078570D02*
X9251960Y-9078570D01*
X9411960Y-8996070D02*
X9411960Y-9078570D01*
X9251960Y-8996070D02*
X9411960Y-8996070D01*
X9251960Y-9078570D02*
X9251960Y-8996070D01*
X11421750Y-10784900D02*
X11504250Y-10784900D01*
X11504250Y-10784900D02*
X11504250Y-10944900D01*
X11504250Y-10944900D02*
X11421750Y-10944900D01*
X11421750Y-10944900D02*
X11421750Y-10784900D01*
X11421750Y-11346800D02*
X11421750Y-11186800D01*
X11504250Y-11346800D02*
X11421750Y-11346800D01*
X11504250Y-11186800D02*
X11504250Y-11346800D01*
X11421750Y-11186800D02*
X11504250Y-11186800D01*
X8678640Y-11828900D02*
X8678640Y-11528900D01*
X8678640Y-11528900D02*
X8928640Y-11528900D01*
X8928640Y-11528900D02*
X8928640Y-11828900D01*
X8928640Y-11828900D02*
X8678640Y-11828900D01*
X8878640Y-11678900D02*
G75*
G03*
X8878640Y-11678900I-75000J0D01*
G01*
D11*
X10800000Y-13050000D02*
X9200000Y-13050000D01*
X9200000Y-13050000D02*
X9200000Y-10650000D01*
X9200000Y-10650000D02*
X10800000Y-10650000D01*
X10800000Y-10650000D02*
X10800000Y-12150000D01*
X10800000Y-12150000D02*
X10750000Y-12200000D01*
X10750000Y-12200000D02*
X10800000Y-12250000D01*
X10800000Y-12250000D02*
X10800000Y-13050000D01*
D10*
X12276000Y-10028700D02*
X12176000Y-9928700D01*
X12276000Y-10028700D02*
X12276000Y-10228700D01*
X11976000Y-9928700D02*
X12176000Y-9928700D01*
X11976000Y-10228700D02*
X11976000Y-9928700D01*
X12276000Y-10228700D02*
X11976000Y-10228700D01*
X11692600Y-9952500D02*
X11692600Y-10102500D01*
X11692600Y-10102500D02*
X11492600Y-10102500D01*
X11492600Y-10102500D02*
X11492600Y-9902500D01*
X11492600Y-9902500D02*
X11642600Y-9902500D01*
X11642600Y-9902500D02*
X11692600Y-9952500D01*
X7953160Y-9538920D02*
X8053160Y-9438920D01*
X7953160Y-9538920D02*
X7953160Y-10108920D01*
X8053160Y-9438920D02*
X8323160Y-9438920D01*
X7953160Y-10108920D02*
X8323160Y-10108920D01*
X8323160Y-9438920D02*
X8323160Y-10108920D01*
X8843640Y-9559280D02*
X8763640Y-9559280D01*
X8763640Y-9559280D02*
X8763640Y-9399280D01*
X8763640Y-9399280D02*
X8843640Y-9399280D01*
X8843640Y-9399280D02*
X8843640Y-9559280D01*
X8990320Y-9189080D02*
X8830320Y-9189080D01*
X8990320Y-9109080D02*
X8990320Y-9189080D01*
X8830320Y-9109080D02*
X8990320Y-9109080D01*
X8830320Y-9189080D02*
X8830320Y-9109080D01*
X9366880Y-9799300D02*
X9366880Y-9959300D01*
X9286880Y-9799300D02*
X9366880Y-9799300D01*
X9286880Y-9959300D02*
X9286880Y-9799300D01*
X9366880Y-9959300D02*
X9286880Y-9959300D01*
X9105260Y-9961900D02*
X9025260Y-9961900D01*
X9025260Y-9961900D02*
X9025260Y-9801900D01*
X9025260Y-9801900D02*
X9105260Y-9801900D01*
X9105260Y-9801900D02*
X9105260Y-9961900D01*
X11151200Y-10360700D02*
X11231200Y-10360700D01*
X11231200Y-10360700D02*
X11231200Y-10520700D01*
X11231200Y-10520700D02*
X11151200Y-10520700D01*
X11151200Y-10520700D02*
X11151200Y-10360700D01*
X8843640Y-9810460D02*
X8843640Y-9970460D01*
X8763640Y-9810460D02*
X8843640Y-9810460D01*
X8763640Y-9970460D02*
X8763640Y-9810460D01*
X8843640Y-9970460D02*
X8763640Y-9970460D01*
X11214100Y-9637400D02*
X11374100Y-9637400D01*
X11214100Y-9717400D02*
X11214100Y-9637400D01*
X11374100Y-9717400D02*
X11214100Y-9717400D01*
X11374100Y-9637400D02*
X11374100Y-9717400D01*
X10876300Y-9001120D02*
X10716300Y-9001120D01*
X10876300Y-8921120D02*
X10876300Y-9001120D01*
X10716300Y-8921120D02*
X10876300Y-8921120D01*
X10716300Y-9001120D02*
X10716300Y-8921120D01*
X10570800Y-9834900D02*
X10490800Y-9834900D01*
X10490800Y-9834900D02*
X10490800Y-9674900D01*
X10490800Y-9674900D02*
X10570800Y-9674900D01*
X10570800Y-9674900D02*
X10570800Y-9834900D01*
X7931130Y-8349800D02*
X7931130Y-8269800D01*
X7771130Y-8349800D02*
X7931130Y-8349800D01*
X7771130Y-8299800D02*
X7771130Y-8349800D01*
X7801130Y-8269800D02*
X7771130Y-8299800D01*
X7931130Y-8269800D02*
X7801130Y-8269800D01*
X9024010Y-9399280D02*
X9106510Y-9399280D01*
X9106510Y-9399280D02*
X9106510Y-9559280D01*
X9106510Y-9559280D02*
X9024010Y-9559280D01*
X9024010Y-9559280D02*
X9024010Y-9399280D01*
X11149950Y-10077440D02*
X11149950Y-9917440D01*
X11232450Y-10077440D02*
X11149950Y-10077440D01*
X11232450Y-9917440D02*
X11232450Y-10077440D01*
X11149950Y-9917440D02*
X11232450Y-9917440D01*
X9368130Y-9559280D02*
X9285630Y-9559280D01*
X9285630Y-9559280D02*
X9285630Y-9399280D01*
X9285630Y-9399280D02*
X9368130Y-9399280D01*
X9368130Y-9399280D02*
X9368130Y-9559280D01*
X8830320Y-8355050D02*
X8830320Y-8272550D01*
X8830320Y-8272550D02*
X8990320Y-8272550D01*
X8990320Y-8272550D02*
X8990320Y-8355050D01*
X8990320Y-8355050D02*
X8830320Y-8355050D01*
X9285630Y-10376600D02*
X9285630Y-10216600D01*
X9368130Y-10376600D02*
X9285630Y-10376600D01*
X9368130Y-10216600D02*
X9368130Y-10376600D01*
X9285630Y-10216600D02*
X9368130Y-10216600D01*
X10489550Y-10233700D02*
X10489550Y-10073700D01*
X10572050Y-10233700D02*
X10489550Y-10233700D01*
X10572050Y-10073700D02*
X10572050Y-10233700D01*
X10489550Y-10073700D02*
X10572050Y-10073700D01*
X10811500Y-9636150D02*
X10971500Y-9636150D01*
X10811500Y-9718650D02*
X10811500Y-9636150D01*
X10971500Y-9718650D02*
X10811500Y-9718650D01*
X10971500Y-9636150D02*
X10971500Y-9718650D01*
X12260580Y-9377680D02*
X12070080Y-9377680D01*
X12070080Y-9377680D02*
X12070080Y-8107680D01*
X12070080Y-8107680D02*
X12324080Y-8107680D01*
X12324080Y-8107680D02*
X12324080Y-9314180D01*
X12324080Y-9314180D02*
X12260580Y-9377680D01*
D12*
X9838687Y-8604819D02*
X9888184Y-8555321D01*
X9841044Y-8602462D02*
X9833973Y-8600104D01*
X9824545Y-8590676D01*
X9822188Y-8583605D01*
X9822188Y-8578891D01*
X9824545Y-8571820D01*
X9838687Y-8557678D01*
X9845758Y-8555321D01*
X9850472Y-8555321D01*
X9857543Y-8557678D01*
X9866971Y-8567106D01*
X9869328Y-8574177D01*
X9862257Y-8623675D02*
X9864614Y-8630746D01*
X9874042Y-8640174D01*
X9881113Y-8642531D01*
X9888184Y-8640174D01*
X9890541Y-8637817D01*
X9892898Y-8630746D01*
X9890541Y-8623675D01*
X9883470Y-8616604D01*
X9881113Y-8609533D01*
X9883470Y-8602462D01*
X9885827Y-8600104D01*
X9892898Y-8597747D01*
X9899970Y-8600104D01*
X9907041Y-8607176D01*
X9909398Y-8614247D01*
X9935325Y-8635460D02*
X9885827Y-8684957D01*
X9932968Y-8637817D02*
X9940039Y-8640174D01*
X9949467Y-8649602D01*
X9951824Y-8656673D01*
X9951824Y-8661387D01*
X9949467Y-8668458D01*
X9935325Y-8682600D01*
X9928254Y-8684957D01*
X9923540Y-8684957D01*
X9916469Y-8682600D01*
X9907041Y-8673172D01*
X9904684Y-8666101D01*
X9947110Y-8713242D02*
X9980108Y-8680243D01*
X9996607Y-8663744D02*
X9991893Y-8663744D01*
X9991893Y-8668458D01*
X9996607Y-8668458D01*
X9996607Y-8663744D01*
X9991893Y-8668458D01*
X9994250Y-8755668D02*
X9987179Y-8753311D01*
X9977751Y-8743883D01*
X9975394Y-8736812D01*
X9975394Y-8732098D01*
X9977751Y-8725027D01*
X9991893Y-8710885D01*
X9998964Y-8708528D01*
X10003678Y-8708528D01*
X10010750Y-8710885D01*
X10020178Y-8720313D01*
X10022535Y-8727384D01*
X10057890Y-8725027D02*
X10088531Y-8755668D01*
X10053176Y-8758025D01*
X10060247Y-8765096D01*
X10062604Y-8772167D01*
X10062604Y-8776881D01*
X10060247Y-8783952D01*
X10048462Y-8795737D01*
X10041391Y-8798094D01*
X10036677Y-8798094D01*
X10029606Y-8795737D01*
X10015464Y-8781595D01*
X10013107Y-8774524D01*
X10013107Y-8769810D01*
X10105030Y-8772167D02*
X10135672Y-8802808D01*
X10100316Y-8805165D01*
X10107387Y-8812237D01*
X10109745Y-8819308D01*
X10109745Y-8824022D01*
X10107387Y-8831093D01*
X10095602Y-8842878D01*
X10088531Y-8845235D01*
X10083817Y-8845235D01*
X10076746Y-8842878D01*
X10062604Y-8828736D01*
X10060247Y-8821665D01*
X10060247Y-8816951D01*
X10128601Y-8890018D02*
X10121530Y-8887661D01*
X10112102Y-8878233D01*
X10109745Y-8871162D01*
X10112102Y-8864091D01*
X10130958Y-8845235D01*
X10138029Y-8842878D01*
X10145100Y-8845235D01*
X10154528Y-8854663D01*
X10156885Y-8861734D01*
X10154528Y-8868805D01*
X10149814Y-8873519D01*
X10121530Y-8854663D01*
X10182812Y-8882947D02*
X10133315Y-8932445D01*
X10180455Y-8885304D02*
X10187526Y-8887661D01*
X10196954Y-8897089D01*
X10199311Y-8904160D01*
X10199311Y-8908874D01*
X10196954Y-8915946D01*
X10182812Y-8930088D01*
X10175741Y-8932445D01*
X10171027Y-8932445D01*
X10163956Y-8930088D01*
X10154528Y-8920660D01*
X10152171Y-8913589D01*
X10237024Y-8913589D02*
X10241738Y-8913589D01*
X10248809Y-8915946D01*
X10260594Y-8927731D01*
X10262951Y-8934802D01*
X10262951Y-8939516D01*
X10260594Y-8946587D01*
X10255880Y-8951301D01*
X10246452Y-8956015D01*
X10189883Y-8956015D01*
X10220525Y-8986656D01*
X10314805Y-8981942D02*
X10291235Y-8958372D01*
X10265308Y-8979585D01*
X10270022Y-8979585D01*
X10277093Y-8981942D01*
X10288878Y-8993727D01*
X10291235Y-9000798D01*
X10291235Y-9005512D01*
X10288878Y-9012583D01*
X10277093Y-9024369D01*
X10270022Y-9026726D01*
X10265308Y-9026726D01*
X10258237Y-9024369D01*
X10246452Y-9012583D01*
X10244095Y-9005512D01*
X10244095Y-9000798D01*
X10359589Y-9026726D02*
X10350161Y-9017297D01*
X10343090Y-9014940D01*
X10338376Y-9014940D01*
X10326591Y-9017297D01*
X10314805Y-9024369D01*
X10295949Y-9043225D01*
X10293592Y-9050296D01*
X10293592Y-9055010D01*
X10295949Y-9062081D01*
X10305377Y-9071509D01*
X10312448Y-9073866D01*
X10317163Y-9073866D01*
X10324234Y-9071509D01*
X10336019Y-9059724D01*
X10338376Y-9052653D01*
X10338376Y-9047939D01*
X10336019Y-9040868D01*
X10326591Y-9031440D01*
X10319520Y-9029083D01*
X10314805Y-9029083D01*
X10307734Y-9031440D01*
X10390230Y-9090365D02*
X10350161Y-9130435D01*
X10343090Y-9132792D01*
X10338376Y-9132792D01*
X10331305Y-9130435D01*
X10324234Y-9123364D01*
X10321877Y-9116292D01*
X10359589Y-9121006D02*
X10352518Y-9118649D01*
X10343090Y-9109221D01*
X10340733Y-9102150D01*
X10340733Y-9097436D01*
X10343090Y-9090365D01*
X10357232Y-9076223D01*
X10364303Y-9073866D01*
X10369017Y-9073866D01*
X10376088Y-9076223D01*
X10385516Y-9085651D01*
X10387873Y-9092722D01*
X10413800Y-9113935D02*
X10364303Y-9163433D01*
X10411443Y-9116292D02*
X10418514Y-9118649D01*
X10427943Y-9128078D01*
X10430300Y-9135149D01*
X10430300Y-9139863D01*
X10427943Y-9146934D01*
X10413800Y-9161076D01*
X10406729Y-9163433D01*
X10402015Y-9163433D01*
X10394944Y-9161076D01*
X10385516Y-9151648D01*
X10383159Y-9144577D01*
X10498653Y-9165790D02*
X10475083Y-9142220D01*
X10449156Y-9163433D01*
X10453870Y-9163433D01*
X10460941Y-9165790D01*
X10472726Y-9177575D01*
X10475083Y-9184646D01*
X10475083Y-9189360D01*
X10472726Y-9196431D01*
X10460941Y-9208216D01*
X10453870Y-9210573D01*
X10449156Y-9210573D01*
X10442085Y-9208216D01*
X10430300Y-9196431D01*
X10427943Y-9189360D01*
X10427943Y-9184646D01*
X10531652Y-9198788D02*
X10536366Y-9203502D01*
X10538723Y-9210573D01*
X10538723Y-9215287D01*
X10536366Y-9222358D01*
X10529295Y-9234144D01*
X10517509Y-9245929D01*
X10505724Y-9253000D01*
X10498653Y-9255357D01*
X10493939Y-9255357D01*
X10486868Y-9253000D01*
X10482154Y-9248286D01*
X10479797Y-9241215D01*
X10479797Y-9236501D01*
X10482154Y-9229430D01*
X10489225Y-9217644D01*
X10501010Y-9205859D01*
X10512795Y-9198788D01*
X10519866Y-9196431D01*
X10524580Y-9196431D01*
X10531652Y-9198788D01*
X10562293Y-9238858D02*
X10567007Y-9238858D01*
X10574078Y-9241215D01*
X10585863Y-9253000D01*
X10588220Y-9260071D01*
X10588220Y-9264785D01*
X10585863Y-9271856D01*
X10581149Y-9276570D01*
X10571721Y-9281284D01*
X10515152Y-9281284D01*
X10545794Y-9311925D01*
X10585863Y-9314282D02*
X10623575Y-9351995D01*
X10656574Y-9432133D02*
X10654217Y-9425062D01*
X10654217Y-9415634D01*
X10654217Y-9401492D01*
X10651860Y-9394421D01*
X10647146Y-9389707D01*
X10637718Y-9403849D02*
X10635361Y-9396778D01*
X10635361Y-9387350D01*
X10642432Y-9375565D01*
X10658931Y-9359066D01*
X10670716Y-9351995D01*
X10680144Y-9351995D01*
X10687215Y-9354352D01*
X10696643Y-9363780D01*
X10699000Y-9370851D01*
X10699000Y-9380279D01*
X10691929Y-9392064D01*
X10675430Y-9408563D01*
X10663645Y-9415634D01*
X10654217Y-9415634D01*
X10647146Y-9413277D01*
X10637718Y-9403849D01*
X10722570Y-9436848D02*
X10706071Y-9420348D01*
X10680144Y-9446276D02*
X10729641Y-9396778D01*
X10753212Y-9420348D01*
X10722570Y-9488702D02*
X10772068Y-9439205D01*
X10750855Y-9516986D01*
X10800352Y-9467489D01*
X9991893Y-9267142D02*
X9951824Y-9307211D01*
X9949467Y-9314282D01*
X9949467Y-9318996D01*
X9951824Y-9326067D01*
X9961252Y-9335496D01*
X9968323Y-9337853D01*
X9973037Y-9337853D01*
X9980108Y-9335496D01*
X10020178Y-9295426D01*
X10067318Y-9342567D02*
X10043748Y-9318996D01*
X10017821Y-9340210D01*
X10022535Y-9340210D01*
X10029606Y-9342567D01*
X10041391Y-9354352D01*
X10043748Y-9361423D01*
X10043748Y-9366137D01*
X10041391Y-9373208D01*
X10029606Y-9384993D01*
X10022535Y-9387350D01*
X10017821Y-9387350D01*
X10010750Y-9384993D01*
X9998964Y-9373208D01*
X9996607Y-9366137D01*
X9996607Y-9361423D01*
X8978307Y-10378267D02*
X8978307Y-10418267D01*
X8978307Y-10398267D02*
X8908307Y-10398267D01*
X8918307Y-10404933D01*
X8924973Y-10411600D01*
X8928307Y-10418267D01*
X8908307Y-10334933D02*
X8908307Y-10328267D01*
X8911640Y-10321600D01*
X8914973Y-10318267D01*
X8921640Y-10314933D01*
X8934973Y-10311600D01*
X8951640Y-10311600D01*
X8964973Y-10314933D01*
X8971640Y-10318267D01*
X8974973Y-10321600D01*
X8978307Y-10328267D01*
X8978307Y-10334933D01*
X8974973Y-10341600D01*
X8971640Y-10344933D01*
X8964973Y-10348267D01*
X8951640Y-10351600D01*
X8934973Y-10351600D01*
X8921640Y-10348267D01*
X8914973Y-10344933D01*
X8911640Y-10341600D01*
X8908307Y-10334933D01*
X8931640Y-10251600D02*
X8978307Y-10251600D01*
X8931640Y-10281600D02*
X8968307Y-10281600D01*
X8974973Y-10278267D01*
X8978307Y-10271600D01*
X8978307Y-10261600D01*
X8974973Y-10254933D01*
X8971640Y-10251600D01*
X8978307Y-10218267D02*
X8908307Y-10218267D01*
X8941640Y-10218267D02*
X8941640Y-10178267D01*
X8978307Y-10178267D02*
X8908307Y-10178267D01*
X8835307Y-10308267D02*
X8835307Y-10341600D01*
X8765307Y-10341600D01*
X8835307Y-10248267D02*
X8835307Y-10288267D01*
X8835307Y-10268267D02*
X8765307Y-10268267D01*
X8775307Y-10274933D01*
X8781973Y-10281600D01*
X8785307Y-10288267D01*
X8953927Y-10378267D02*
X8953927Y-10418267D01*
X8953927Y-10398267D02*
X8883927Y-10398267D01*
X8893927Y-10404933D01*
X8900593Y-10411600D01*
X8903927Y-10418267D01*
X8883927Y-10334933D02*
X8883927Y-10328267D01*
X8887260Y-10321600D01*
X8890593Y-10318267D01*
X8897260Y-10314933D01*
X8910593Y-10311600D01*
X8927260Y-10311600D01*
X8940593Y-10314933D01*
X8947260Y-10318267D01*
X8950593Y-10321600D01*
X8953927Y-10328267D01*
X8953927Y-10334933D01*
X8950593Y-10341600D01*
X8947260Y-10344933D01*
X8940593Y-10348267D01*
X8927260Y-10351600D01*
X8910593Y-10351600D01*
X8897260Y-10348267D01*
X8890593Y-10344933D01*
X8887260Y-10341600D01*
X8883927Y-10334933D01*
X8907260Y-10251600D02*
X8953927Y-10251600D01*
X8907260Y-10281600D02*
X8943927Y-10281600D01*
X8950593Y-10278267D01*
X8953927Y-10271600D01*
X8953927Y-10261600D01*
X8950593Y-10254933D01*
X8947260Y-10251600D01*
X8953927Y-10218267D02*
X8883927Y-10218267D01*
X8917260Y-10218267D02*
X8917260Y-10178267D01*
X8953927Y-10178267D02*
X8883927Y-10178267D01*
X9096927Y-10308267D02*
X9096927Y-10341600D01*
X9026927Y-10341600D01*
X9033593Y-10288267D02*
X9030260Y-10284933D01*
X9026927Y-10278267D01*
X9026927Y-10261600D01*
X9030260Y-10254933D01*
X9033593Y-10251600D01*
X9040260Y-10248267D01*
X9046927Y-10248267D01*
X9056927Y-10251600D01*
X9096927Y-10291600D01*
X9096927Y-10248267D01*
X10779333Y-10565487D02*
X10779333Y-10615487D01*
X10776000Y-10625487D01*
X10769333Y-10632153D01*
X10759333Y-10635487D01*
X10752667Y-10635487D01*
X10802667Y-10565487D02*
X10842667Y-10565487D01*
X10822667Y-10635487D02*
X10822667Y-10565487D01*
X10862667Y-10615487D02*
X10896000Y-10615487D01*
X10856000Y-10635487D02*
X10879333Y-10565487D01*
X10902667Y-10635487D01*
X10962667Y-10568820D02*
X10956000Y-10565487D01*
X10946000Y-10565487D01*
X10936000Y-10568820D01*
X10929333Y-10575487D01*
X10926000Y-10582153D01*
X10922667Y-10595487D01*
X10922667Y-10605487D01*
X10926000Y-10618820D01*
X10929333Y-10625487D01*
X10936000Y-10632153D01*
X10946000Y-10635487D01*
X10952667Y-10635487D01*
X10962667Y-10632153D01*
X10966000Y-10628820D01*
X10966000Y-10605487D01*
X10952667Y-10605487D01*
X10892667Y-10231987D02*
X10822667Y-10231987D01*
X10822667Y-10205320D01*
X10826000Y-10198653D01*
X10829333Y-10195320D01*
X10836000Y-10191987D01*
X10846000Y-10191987D01*
X10852667Y-10195320D01*
X10856000Y-10198653D01*
X10859333Y-10205320D01*
X10859333Y-10231987D01*
X10892667Y-10125320D02*
X10892667Y-10165320D01*
X10892667Y-10145320D02*
X10822667Y-10145320D01*
X10832667Y-10151987D01*
X10839333Y-10158653D01*
X10842667Y-10165320D01*
X10758467Y-9375133D02*
X10815133Y-9375133D01*
X10821800Y-9371800D01*
X10825133Y-9368467D01*
X10828467Y-9361800D01*
X10828467Y-9348467D01*
X10825133Y-9341800D01*
X10821800Y-9338467D01*
X10815133Y-9335133D01*
X10758467Y-9335133D01*
X10758467Y-9271800D02*
X10758467Y-9285133D01*
X10761800Y-9291800D01*
X10765133Y-9295133D01*
X10775133Y-9301800D01*
X10788467Y-9305133D01*
X10815133Y-9305133D01*
X10821800Y-9301800D01*
X10825133Y-9298467D01*
X10828467Y-9291800D01*
X10828467Y-9278467D01*
X10825133Y-9271800D01*
X10821800Y-9268467D01*
X10815133Y-9265133D01*
X10798467Y-9265133D01*
X10791800Y-9268467D01*
X10788467Y-9271800D01*
X10785133Y-9278467D01*
X10785133Y-9291800D01*
X10788467Y-9298467D01*
X10791800Y-9301800D01*
X10798467Y-9305133D01*
X10815767Y-8247420D02*
X10815767Y-8287420D01*
X10815767Y-8267420D02*
X10745767Y-8267420D01*
X10755767Y-8274087D01*
X10762433Y-8280753D01*
X10765767Y-8287420D01*
X10745767Y-8204087D02*
X10745767Y-8197420D01*
X10749100Y-8190753D01*
X10752433Y-8187420D01*
X10759100Y-8184087D01*
X10772433Y-8180753D01*
X10789100Y-8180753D01*
X10802433Y-8184087D01*
X10809100Y-8187420D01*
X10812433Y-8190753D01*
X10815767Y-8197420D01*
X10815767Y-8204087D01*
X10812433Y-8210753D01*
X10809100Y-8214087D01*
X10802433Y-8217420D01*
X10789100Y-8220753D01*
X10772433Y-8220753D01*
X10759100Y-8217420D01*
X10752433Y-8214087D01*
X10749100Y-8210753D01*
X10745767Y-8204087D01*
X10769100Y-8120753D02*
X10815767Y-8120753D01*
X10769100Y-8150753D02*
X10805767Y-8150753D01*
X10812433Y-8147420D01*
X10815767Y-8140753D01*
X10815767Y-8130753D01*
X10812433Y-8124087D01*
X10809100Y-8120753D01*
X10779100Y-8064087D02*
X10779100Y-8087420D01*
X10815767Y-8087420D02*
X10745767Y-8087420D01*
X10745767Y-8054087D01*
X10952100Y-8184087D02*
X10955433Y-8187420D01*
X10958767Y-8197420D01*
X10958767Y-8204087D01*
X10955433Y-8214087D01*
X10948767Y-8220753D01*
X10942100Y-8224087D01*
X10928767Y-8227420D01*
X10918767Y-8227420D01*
X10905433Y-8224087D01*
X10898767Y-8220753D01*
X10892100Y-8214087D01*
X10888767Y-8204087D01*
X10888767Y-8197420D01*
X10892100Y-8187420D01*
X10895433Y-8184087D01*
X10958767Y-8117420D02*
X10958767Y-8157420D01*
X10958767Y-8137420D02*
X10888767Y-8137420D01*
X10898767Y-8144087D01*
X10905433Y-8150753D01*
X10908767Y-8157420D01*
X11637667Y-11743800D02*
X11637667Y-11783800D01*
X11637667Y-11763800D02*
X11567667Y-11763800D01*
X11577667Y-11770467D01*
X11584333Y-11777133D01*
X11587667Y-11783800D01*
X11567667Y-11700467D02*
X11567667Y-11693800D01*
X11571000Y-11687133D01*
X11574333Y-11683800D01*
X11581000Y-11680467D01*
X11594333Y-11677133D01*
X11611000Y-11677133D01*
X11624333Y-11680467D01*
X11631000Y-11683800D01*
X11634333Y-11687133D01*
X11637667Y-11693800D01*
X11637667Y-11700467D01*
X11634333Y-11707133D01*
X11631000Y-11710467D01*
X11624333Y-11713800D01*
X11611000Y-11717133D01*
X11594333Y-11717133D01*
X11581000Y-11713800D01*
X11574333Y-11710467D01*
X11571000Y-11707133D01*
X11567667Y-11700467D01*
X11591000Y-11617133D02*
X11637667Y-11617133D01*
X11591000Y-11647133D02*
X11627667Y-11647133D01*
X11634333Y-11643800D01*
X11637667Y-11637133D01*
X11637667Y-11627133D01*
X11634333Y-11620467D01*
X11631000Y-11617133D01*
X11601000Y-11560467D02*
X11601000Y-11583800D01*
X11637667Y-11583800D02*
X11567667Y-11583800D01*
X11567667Y-11550467D01*
X11488000Y-11680467D02*
X11491333Y-11683800D01*
X11494667Y-11693800D01*
X11494667Y-11700467D01*
X11491333Y-11710467D01*
X11484667Y-11717133D01*
X11478000Y-11720467D01*
X11464667Y-11723800D01*
X11454667Y-11723800D01*
X11441333Y-11720467D01*
X11434667Y-11717133D01*
X11428000Y-11710467D01*
X11424667Y-11700467D01*
X11424667Y-11693800D01*
X11428000Y-11683800D01*
X11431333Y-11680467D01*
X11431333Y-11653800D02*
X11428000Y-11650467D01*
X11424667Y-11643800D01*
X11424667Y-11627133D01*
X11428000Y-11620467D01*
X11431333Y-11617133D01*
X11438000Y-11613800D01*
X11444667Y-11613800D01*
X11454667Y-11617133D01*
X11494667Y-11657133D01*
X11494667Y-11613800D01*
X11020067Y-8287420D02*
X11020067Y-8280753D01*
X11023400Y-8274087D01*
X11026733Y-8270753D01*
X11033400Y-8267420D01*
X11046733Y-8264087D01*
X11063400Y-8264087D01*
X11076733Y-8267420D01*
X11083400Y-8270753D01*
X11086733Y-8274087D01*
X11090067Y-8280753D01*
X11090067Y-8287420D01*
X11086733Y-8294087D01*
X11083400Y-8297420D01*
X11076733Y-8300753D01*
X11063400Y-8304087D01*
X11046733Y-8304087D01*
X11033400Y-8300753D01*
X11026733Y-8297420D01*
X11023400Y-8294087D01*
X11020067Y-8287420D01*
X11083400Y-8234087D02*
X11086733Y-8230753D01*
X11090067Y-8234087D01*
X11086733Y-8237420D01*
X11083400Y-8234087D01*
X11090067Y-8234087D01*
X11090067Y-8164087D02*
X11090067Y-8204087D01*
X11090067Y-8184087D02*
X11020067Y-8184087D01*
X11030067Y-8190753D01*
X11036733Y-8197420D01*
X11040067Y-8204087D01*
X11043400Y-8104087D02*
X11090067Y-8104087D01*
X11043400Y-8134087D02*
X11080067Y-8134087D01*
X11086733Y-8130753D01*
X11090067Y-8124087D01*
X11090067Y-8114087D01*
X11086733Y-8107420D01*
X11083400Y-8104087D01*
X11053400Y-8047420D02*
X11053400Y-8070753D01*
X11090067Y-8070753D02*
X11020067Y-8070753D01*
X11020067Y-8037420D01*
X11226400Y-8184087D02*
X11229733Y-8187420D01*
X11233067Y-8197420D01*
X11233067Y-8204087D01*
X11229733Y-8214087D01*
X11223067Y-8220753D01*
X11216400Y-8224087D01*
X11203067Y-8227420D01*
X11193067Y-8227420D01*
X11179733Y-8224087D01*
X11173067Y-8220753D01*
X11166400Y-8214087D01*
X11163067Y-8204087D01*
X11163067Y-8197420D01*
X11166400Y-8187420D01*
X11169733Y-8184087D01*
X11163067Y-8160753D02*
X11163067Y-8117420D01*
X11189733Y-8140753D01*
X11189733Y-8130753D01*
X11193067Y-8124087D01*
X11196400Y-8120753D01*
X11203067Y-8117420D01*
X11219733Y-8117420D01*
X11226400Y-8120753D01*
X11229733Y-8124087D01*
X11233067Y-8130753D01*
X11233067Y-8150753D01*
X11229733Y-8157420D01*
X11226400Y-8160753D01*
X11354267Y-10519500D02*
X11354267Y-10559500D01*
X11354267Y-10539500D02*
X11284267Y-10539500D01*
X11294267Y-10546167D01*
X11300933Y-10552833D01*
X11304267Y-10559500D01*
X11284267Y-10476167D02*
X11284267Y-10469500D01*
X11287600Y-10462833D01*
X11290933Y-10459500D01*
X11297600Y-10456167D01*
X11310933Y-10452833D01*
X11327600Y-10452833D01*
X11340933Y-10456167D01*
X11347600Y-10459500D01*
X11350933Y-10462833D01*
X11354267Y-10469500D01*
X11354267Y-10476167D01*
X11350933Y-10482833D01*
X11347600Y-10486167D01*
X11340933Y-10489500D01*
X11327600Y-10492833D01*
X11310933Y-10492833D01*
X11297600Y-10489500D01*
X11290933Y-10486167D01*
X11287600Y-10482833D01*
X11284267Y-10476167D01*
X11307600Y-10392833D02*
X11354267Y-10392833D01*
X11307600Y-10422833D02*
X11344267Y-10422833D01*
X11350933Y-10419500D01*
X11354267Y-10412833D01*
X11354267Y-10402833D01*
X11350933Y-10396167D01*
X11347600Y-10392833D01*
X11317600Y-10336167D02*
X11317600Y-10359500D01*
X11354267Y-10359500D02*
X11284267Y-10359500D01*
X11284267Y-10326167D01*
X11490600Y-10456167D02*
X11493933Y-10459500D01*
X11497267Y-10469500D01*
X11497267Y-10476167D01*
X11493933Y-10486167D01*
X11487267Y-10492833D01*
X11480600Y-10496167D01*
X11467267Y-10499500D01*
X11457267Y-10499500D01*
X11443933Y-10496167D01*
X11437267Y-10492833D01*
X11430600Y-10486167D01*
X11427267Y-10476167D01*
X11427267Y-10469500D01*
X11430600Y-10459500D01*
X11433933Y-10456167D01*
X11450600Y-10396167D02*
X11497267Y-10396167D01*
X11423933Y-10412833D02*
X11473933Y-10429500D01*
X11473933Y-10386167D01*
X11617900Y-9276507D02*
X11577900Y-9276507D01*
X11597900Y-9276507D02*
X11597900Y-9206507D01*
X11591233Y-9216507D01*
X11584567Y-9223173D01*
X11577900Y-9226507D01*
X11661233Y-9206507D02*
X11667900Y-9206507D01*
X11674567Y-9209840D01*
X11677900Y-9213173D01*
X11681233Y-9219840D01*
X11684567Y-9233173D01*
X11684567Y-9249840D01*
X11681233Y-9263173D01*
X11677900Y-9269840D01*
X11674567Y-9273173D01*
X11667900Y-9276507D01*
X11661233Y-9276507D01*
X11654567Y-9273173D01*
X11651233Y-9269840D01*
X11647900Y-9263173D01*
X11644567Y-9249840D01*
X11644567Y-9233173D01*
X11647900Y-9219840D01*
X11651233Y-9213173D01*
X11654567Y-9209840D01*
X11661233Y-9206507D01*
X11714567Y-9229840D02*
X11714567Y-9299840D01*
X11714567Y-9233173D02*
X11721233Y-9229840D01*
X11734567Y-9229840D01*
X11741233Y-9233173D01*
X11744567Y-9236507D01*
X11747900Y-9243173D01*
X11747900Y-9263173D01*
X11744567Y-9269840D01*
X11741233Y-9273173D01*
X11734567Y-9276507D01*
X11721233Y-9276507D01*
X11714567Y-9273173D01*
X11801233Y-9239840D02*
X11777900Y-9239840D01*
X11777900Y-9276507D02*
X11777900Y-9206507D01*
X11811233Y-9206507D01*
X11681233Y-9412840D02*
X11677900Y-9416173D01*
X11667900Y-9419507D01*
X11661233Y-9419507D01*
X11651233Y-9416173D01*
X11644567Y-9409507D01*
X11641233Y-9402840D01*
X11637900Y-9389507D01*
X11637900Y-9379507D01*
X11641233Y-9366173D01*
X11644567Y-9359507D01*
X11651233Y-9352840D01*
X11661233Y-9349507D01*
X11667900Y-9349507D01*
X11677900Y-9352840D01*
X11681233Y-9356173D01*
X11744567Y-9349507D02*
X11711233Y-9349507D01*
X11707900Y-9382840D01*
X11711233Y-9379507D01*
X11717900Y-9376173D01*
X11734567Y-9376173D01*
X11741233Y-9379507D01*
X11744567Y-9382840D01*
X11747900Y-9389507D01*
X11747900Y-9406173D01*
X11744567Y-9412840D01*
X11741233Y-9416173D01*
X11734567Y-9419507D01*
X11717900Y-9419507D01*
X11711233Y-9416173D01*
X11707900Y-9412840D01*
X8668027Y-10807500D02*
X8668027Y-10800833D01*
X8671360Y-10794167D01*
X8674693Y-10790833D01*
X8681360Y-10787500D01*
X8694693Y-10784167D01*
X8711360Y-10784167D01*
X8724693Y-10787500D01*
X8731360Y-10790833D01*
X8734693Y-10794167D01*
X8738027Y-10800833D01*
X8738027Y-10807500D01*
X8734693Y-10814167D01*
X8731360Y-10817500D01*
X8724693Y-10820833D01*
X8711360Y-10824167D01*
X8694693Y-10824167D01*
X8681360Y-10820833D01*
X8674693Y-10817500D01*
X8671360Y-10814167D01*
X8668027Y-10807500D01*
X8731360Y-10754167D02*
X8734693Y-10750833D01*
X8738027Y-10754167D01*
X8734693Y-10757500D01*
X8731360Y-10754167D01*
X8738027Y-10754167D01*
X8738027Y-10684167D02*
X8738027Y-10724167D01*
X8738027Y-10704167D02*
X8668027Y-10704167D01*
X8678027Y-10710833D01*
X8684693Y-10717500D01*
X8688027Y-10724167D01*
X8691360Y-10624167D02*
X8738027Y-10624167D01*
X8691360Y-10654167D02*
X8728027Y-10654167D01*
X8734693Y-10650833D01*
X8738027Y-10644167D01*
X8738027Y-10634167D01*
X8734693Y-10627500D01*
X8731360Y-10624167D01*
X8701360Y-10567500D02*
X8701360Y-10590833D01*
X8738027Y-10590833D02*
X8668027Y-10590833D01*
X8668027Y-10557500D01*
X8874360Y-10704167D02*
X8877693Y-10707500D01*
X8881027Y-10717500D01*
X8881027Y-10724167D01*
X8877693Y-10734167D01*
X8871027Y-10740833D01*
X8864360Y-10744167D01*
X8851027Y-10747500D01*
X8841027Y-10747500D01*
X8827693Y-10744167D01*
X8821027Y-10740833D01*
X8814360Y-10734167D01*
X8811027Y-10724167D01*
X8811027Y-10717500D01*
X8814360Y-10707500D01*
X8817693Y-10704167D01*
X8811027Y-10644167D02*
X8811027Y-10657500D01*
X8814360Y-10664167D01*
X8817693Y-10667500D01*
X8827693Y-10674167D01*
X8841027Y-10677500D01*
X8867693Y-10677500D01*
X8874360Y-10674167D01*
X8877693Y-10670833D01*
X8881027Y-10664167D01*
X8881027Y-10650833D01*
X8877693Y-10644167D01*
X8874360Y-10640833D01*
X8867693Y-10637500D01*
X8851027Y-10637500D01*
X8844360Y-10640833D01*
X8841027Y-10644167D01*
X8837693Y-10650833D01*
X8837693Y-10664167D01*
X8841027Y-10670833D01*
X8844360Y-10674167D01*
X8851027Y-10677500D01*
X12045900Y-9423827D02*
X12005900Y-9423827D01*
X12025900Y-9423827D02*
X12025900Y-9353827D01*
X12019233Y-9363827D01*
X12012567Y-9370493D01*
X12005900Y-9373827D01*
X12089233Y-9353827D02*
X12095900Y-9353827D01*
X12102567Y-9357160D01*
X12105900Y-9360493D01*
X12109233Y-9367160D01*
X12112567Y-9380493D01*
X12112567Y-9397160D01*
X12109233Y-9410493D01*
X12105900Y-9417160D01*
X12102567Y-9420493D01*
X12095900Y-9423827D01*
X12089233Y-9423827D01*
X12082567Y-9420493D01*
X12079233Y-9417160D01*
X12075900Y-9410493D01*
X12072567Y-9397160D01*
X12072567Y-9380493D01*
X12075900Y-9367160D01*
X12079233Y-9360493D01*
X12082567Y-9357160D01*
X12089233Y-9353827D01*
X12172567Y-9377160D02*
X12172567Y-9423827D01*
X12142567Y-9377160D02*
X12142567Y-9413827D01*
X12145900Y-9420493D01*
X12152567Y-9423827D01*
X12162567Y-9423827D01*
X12169233Y-9420493D01*
X12172567Y-9417160D01*
X12229233Y-9387160D02*
X12205900Y-9387160D01*
X12205900Y-9423827D02*
X12205900Y-9353827D01*
X12239233Y-9353827D01*
X12109233Y-9560160D02*
X12105900Y-9563493D01*
X12095900Y-9566827D01*
X12089233Y-9566827D01*
X12079233Y-9563493D01*
X12072567Y-9556827D01*
X12069233Y-9550160D01*
X12065900Y-9536827D01*
X12065900Y-9526827D01*
X12069233Y-9513493D01*
X12072567Y-9506827D01*
X12079233Y-9500160D01*
X12089233Y-9496827D01*
X12095900Y-9496827D01*
X12105900Y-9500160D01*
X12109233Y-9503493D01*
X12132567Y-9496827D02*
X12179233Y-9496827D01*
X12149233Y-9566827D01*
X8165400Y-11341667D02*
X8172067Y-11341667D01*
X8178733Y-11345000D01*
X8182067Y-11348333D01*
X8185400Y-11355000D01*
X8188733Y-11368333D01*
X8188733Y-11385000D01*
X8185400Y-11398333D01*
X8182067Y-11405000D01*
X8178733Y-11408333D01*
X8172067Y-11411667D01*
X8165400Y-11411667D01*
X8158733Y-11408333D01*
X8155400Y-11405000D01*
X8152067Y-11398333D01*
X8148733Y-11385000D01*
X8148733Y-11368333D01*
X8152067Y-11355000D01*
X8155400Y-11348333D01*
X8158733Y-11345000D01*
X8165400Y-11341667D01*
X8218733Y-11405000D02*
X8222067Y-11408333D01*
X8218733Y-11411667D01*
X8215400Y-11408333D01*
X8218733Y-11405000D01*
X8218733Y-11411667D01*
X8288733Y-11411667D02*
X8248733Y-11411667D01*
X8268733Y-11411667D02*
X8268733Y-11341667D01*
X8262067Y-11351667D01*
X8255400Y-11358333D01*
X8248733Y-11361667D01*
X8348733Y-11365000D02*
X8348733Y-11411667D01*
X8318733Y-11365000D02*
X8318733Y-11401667D01*
X8322067Y-11408333D01*
X8328733Y-11411667D01*
X8338733Y-11411667D01*
X8345400Y-11408333D01*
X8348733Y-11405000D01*
X8405400Y-11375000D02*
X8382067Y-11375000D01*
X8382067Y-11411667D02*
X8382067Y-11341667D01*
X8415400Y-11341667D01*
X8268733Y-11262000D02*
X8265400Y-11265333D01*
X8255400Y-11268667D01*
X8248733Y-11268667D01*
X8238733Y-11265333D01*
X8232067Y-11258667D01*
X8228733Y-11252000D01*
X8225400Y-11238667D01*
X8225400Y-11228667D01*
X8228733Y-11215333D01*
X8232067Y-11208667D01*
X8238733Y-11202000D01*
X8248733Y-11198667D01*
X8255400Y-11198667D01*
X8265400Y-11202000D01*
X8268733Y-11205333D01*
X8308733Y-11228667D02*
X8302067Y-11225333D01*
X8298733Y-11222000D01*
X8295400Y-11215333D01*
X8295400Y-11212000D01*
X8298733Y-11205333D01*
X8302067Y-11202000D01*
X8308733Y-11198667D01*
X8322067Y-11198667D01*
X8328733Y-11202000D01*
X8332067Y-11205333D01*
X8335400Y-11212000D01*
X8335400Y-11215333D01*
X8332067Y-11222000D01*
X8328733Y-11225333D01*
X8322067Y-11228667D01*
X8308733Y-11228667D01*
X8302067Y-11232000D01*
X8298733Y-11235333D01*
X8295400Y-11242000D01*
X8295400Y-11255333D01*
X8298733Y-11262000D01*
X8302067Y-11265333D01*
X8308733Y-11268667D01*
X8322067Y-11268667D01*
X8328733Y-11265333D01*
X8332067Y-11262000D01*
X8335400Y-11255333D01*
X8335400Y-11242000D01*
X8332067Y-11235333D01*
X8328733Y-11232000D01*
X8322067Y-11228667D01*
X11392000Y-8363800D02*
X11392000Y-8410467D01*
X11375333Y-8337133D02*
X11358667Y-8387133D01*
X11402000Y-8387133D01*
X11422000Y-8340467D02*
X11468667Y-8340467D01*
X11438667Y-8410467D01*
X11508667Y-8340467D02*
X11515333Y-8340467D01*
X11522000Y-8343800D01*
X11525333Y-8347133D01*
X11528667Y-8353800D01*
X11532000Y-8367133D01*
X11532000Y-8383800D01*
X11528667Y-8397133D01*
X11525333Y-8403800D01*
X11522000Y-8407133D01*
X11515333Y-8410467D01*
X11508667Y-8410467D01*
X11502000Y-8407133D01*
X11498667Y-8403800D01*
X11495333Y-8397133D01*
X11492000Y-8383800D01*
X11492000Y-8367133D01*
X11495333Y-8353800D01*
X11498667Y-8347133D01*
X11502000Y-8343800D01*
X11508667Y-8340467D01*
X11592000Y-8363800D02*
X11592000Y-8410467D01*
X11562000Y-8363800D02*
X11562000Y-8400467D01*
X11565333Y-8407133D01*
X11572000Y-8410467D01*
X11582000Y-8410467D01*
X11588667Y-8407133D01*
X11592000Y-8403800D01*
X11648667Y-8373800D02*
X11625333Y-8373800D01*
X11625333Y-8410467D02*
X11625333Y-8340467D01*
X11658667Y-8340467D01*
X11495333Y-8838800D02*
X11492000Y-8842133D01*
X11482000Y-8845467D01*
X11475333Y-8845467D01*
X11465333Y-8842133D01*
X11458667Y-8835467D01*
X11455333Y-8828800D01*
X11452000Y-8815467D01*
X11452000Y-8805467D01*
X11455333Y-8792133D01*
X11458667Y-8785467D01*
X11465333Y-8778800D01*
X11475333Y-8775467D01*
X11482000Y-8775467D01*
X11492000Y-8778800D01*
X11495333Y-8782133D01*
X11528667Y-8845467D02*
X11542000Y-8845467D01*
X11548667Y-8842133D01*
X11552000Y-8838800D01*
X11558667Y-8828800D01*
X11562000Y-8815467D01*
X11562000Y-8788800D01*
X11558667Y-8782133D01*
X11555333Y-8778800D01*
X11548667Y-8775467D01*
X11535333Y-8775467D01*
X11528667Y-8778800D01*
X11525333Y-8782133D01*
X11522000Y-8788800D01*
X11522000Y-8805467D01*
X11525333Y-8812133D01*
X11528667Y-8815467D01*
X11535333Y-8818800D01*
X11548667Y-8818800D01*
X11555333Y-8815467D01*
X11558667Y-8812133D01*
X11562000Y-8805467D01*
X8134280Y-9047907D02*
X8094280Y-9047907D01*
X8114280Y-9047907D02*
X8114280Y-8977907D01*
X8107613Y-8987907D01*
X8100947Y-8994573D01*
X8094280Y-8997907D01*
X8177613Y-8977907D02*
X8184280Y-8977907D01*
X8190947Y-8981240D01*
X8194280Y-8984573D01*
X8197613Y-8991240D01*
X8200947Y-9004573D01*
X8200947Y-9021240D01*
X8197613Y-9034573D01*
X8194280Y-9041240D01*
X8190947Y-9044573D01*
X8184280Y-9047907D01*
X8177613Y-9047907D01*
X8170947Y-9044573D01*
X8167613Y-9041240D01*
X8164280Y-9034573D01*
X8160947Y-9021240D01*
X8160947Y-9004573D01*
X8164280Y-8991240D01*
X8167613Y-8984573D01*
X8170947Y-8981240D01*
X8177613Y-8977907D01*
X8260947Y-9001240D02*
X8260947Y-9047907D01*
X8230947Y-9001240D02*
X8230947Y-9037907D01*
X8234280Y-9044573D01*
X8240947Y-9047907D01*
X8250947Y-9047907D01*
X8257613Y-9044573D01*
X8260947Y-9041240D01*
X8317613Y-9011240D02*
X8294280Y-9011240D01*
X8294280Y-9047907D02*
X8294280Y-8977907D01*
X8327613Y-8977907D01*
X8164280Y-9184240D02*
X8160947Y-9187573D01*
X8150947Y-9190907D01*
X8144280Y-9190907D01*
X8134280Y-9187573D01*
X8127613Y-9180907D01*
X8124280Y-9174240D01*
X8120947Y-9160907D01*
X8120947Y-9150907D01*
X8124280Y-9137573D01*
X8127613Y-9130907D01*
X8134280Y-9124240D01*
X8144280Y-9120907D01*
X8150947Y-9120907D01*
X8160947Y-9124240D01*
X8164280Y-9127573D01*
X8230947Y-9190907D02*
X8190947Y-9190907D01*
X8210947Y-9190907D02*
X8210947Y-9120907D01*
X8204280Y-9130907D01*
X8197613Y-9137573D01*
X8190947Y-9140907D01*
X8274280Y-9120907D02*
X8280947Y-9120907D01*
X8287613Y-9124240D01*
X8290947Y-9127573D01*
X8294280Y-9134240D01*
X8297613Y-9147573D01*
X8297613Y-9164240D01*
X8294280Y-9177573D01*
X8290947Y-9184240D01*
X8287613Y-9187573D01*
X8280947Y-9190907D01*
X8274280Y-9190907D01*
X8267613Y-9187573D01*
X8264280Y-9184240D01*
X8260947Y-9177573D01*
X8257613Y-9164240D01*
X8257613Y-9147573D01*
X8260947Y-9134240D01*
X8264280Y-9127573D01*
X8267613Y-9124240D01*
X8274280Y-9120907D01*
X8109520Y-11077800D02*
X8109520Y-11124467D01*
X8092853Y-11051133D02*
X8076187Y-11101133D01*
X8119520Y-11101133D01*
X8139520Y-11054467D02*
X8186187Y-11054467D01*
X8156187Y-11124467D01*
X8226187Y-11054467D02*
X8232853Y-11054467D01*
X8239520Y-11057800D01*
X8242853Y-11061133D01*
X8246187Y-11067800D01*
X8249520Y-11081133D01*
X8249520Y-11097800D01*
X8246187Y-11111133D01*
X8242853Y-11117800D01*
X8239520Y-11121133D01*
X8232853Y-11124467D01*
X8226187Y-11124467D01*
X8219520Y-11121133D01*
X8216187Y-11117800D01*
X8212853Y-11111133D01*
X8209520Y-11097800D01*
X8209520Y-11081133D01*
X8212853Y-11067800D01*
X8216187Y-11061133D01*
X8219520Y-11057800D01*
X8226187Y-11054467D01*
X8309520Y-11077800D02*
X8309520Y-11124467D01*
X8279520Y-11077800D02*
X8279520Y-11114467D01*
X8282853Y-11121133D01*
X8289520Y-11124467D01*
X8299520Y-11124467D01*
X8306187Y-11121133D01*
X8309520Y-11117800D01*
X8366187Y-11087800D02*
X8342853Y-11087800D01*
X8342853Y-11124467D02*
X8342853Y-11054467D01*
X8376187Y-11054467D01*
X8179520Y-10682800D02*
X8176187Y-10686133D01*
X8166187Y-10689467D01*
X8159520Y-10689467D01*
X8149520Y-10686133D01*
X8142853Y-10679467D01*
X8139520Y-10672800D01*
X8136187Y-10659467D01*
X8136187Y-10649467D01*
X8139520Y-10636133D01*
X8142853Y-10629467D01*
X8149520Y-10622800D01*
X8159520Y-10619467D01*
X8166187Y-10619467D01*
X8176187Y-10622800D01*
X8179520Y-10626133D01*
X8246187Y-10689467D02*
X8206187Y-10689467D01*
X8226187Y-10689467D02*
X8226187Y-10619467D01*
X8219520Y-10629467D01*
X8212853Y-10636133D01*
X8206187Y-10639467D01*
X8312853Y-10689467D02*
X8272853Y-10689467D01*
X8292853Y-10689467D02*
X8292853Y-10619467D01*
X8286187Y-10629467D01*
X8279520Y-10636133D01*
X8272853Y-10639467D01*
X7772797Y-9035267D02*
X7739463Y-9035267D01*
X7739463Y-8965267D01*
X7796130Y-8998600D02*
X7819463Y-8998600D01*
X7829463Y-9035267D02*
X7796130Y-9035267D01*
X7796130Y-8965267D01*
X7829463Y-8965267D01*
X7859463Y-9035267D02*
X7859463Y-8965267D01*
X7876130Y-8965267D01*
X7886130Y-8968600D01*
X7892797Y-8975267D01*
X7896130Y-8981933D01*
X7899463Y-8995267D01*
X7899463Y-9005267D01*
X7896130Y-9018600D01*
X7892797Y-9025267D01*
X7886130Y-9031933D01*
X7876130Y-9035267D01*
X7859463Y-9035267D01*
X7966130Y-9035267D02*
X7926130Y-9035267D01*
X7946130Y-9035267D02*
X7946130Y-8965267D01*
X7939463Y-8975267D01*
X7932797Y-8981933D01*
X7926130Y-8985267D01*
X7799463Y-8892267D02*
X7799463Y-8822267D01*
X7816130Y-8822267D01*
X7826130Y-8825600D01*
X7832797Y-8832267D01*
X7836130Y-8838933D01*
X7839463Y-8852267D01*
X7839463Y-8862267D01*
X7836130Y-8875600D01*
X7832797Y-8882267D01*
X7826130Y-8888933D01*
X7816130Y-8892267D01*
X7799463Y-8892267D01*
X7906130Y-8892267D02*
X7866130Y-8892267D01*
X7886130Y-8892267D02*
X7886130Y-8822267D01*
X7879463Y-8832267D01*
X7872797Y-8838933D01*
X7866130Y-8842267D01*
X7772797Y-8759867D02*
X7739463Y-8759867D01*
X7739463Y-8689867D01*
X7796130Y-8723200D02*
X7819463Y-8723200D01*
X7829463Y-8759867D02*
X7796130Y-8759867D01*
X7796130Y-8689867D01*
X7829463Y-8689867D01*
X7859463Y-8759867D02*
X7859463Y-8689867D01*
X7876130Y-8689867D01*
X7886130Y-8693200D01*
X7892797Y-8699867D01*
X7896130Y-8706533D01*
X7899463Y-8719867D01*
X7899463Y-8729867D01*
X7896130Y-8743200D01*
X7892797Y-8749867D01*
X7886130Y-8756533D01*
X7876130Y-8759867D01*
X7859463Y-8759867D01*
X7942797Y-8689867D02*
X7949463Y-8689867D01*
X7956130Y-8693200D01*
X7959463Y-8696533D01*
X7962797Y-8703200D01*
X7966130Y-8716533D01*
X7966130Y-8733200D01*
X7962797Y-8746533D01*
X7959463Y-8753200D01*
X7956130Y-8756533D01*
X7949463Y-8759867D01*
X7942797Y-8759867D01*
X7936130Y-8756533D01*
X7932797Y-8753200D01*
X7929463Y-8746533D01*
X7926130Y-8733200D01*
X7926130Y-8716533D01*
X7929463Y-8703200D01*
X7932797Y-8696533D01*
X7936130Y-8693200D01*
X7942797Y-8689867D01*
X7799463Y-8616867D02*
X7799463Y-8546867D01*
X7816130Y-8546867D01*
X7826130Y-8550200D01*
X7832797Y-8556867D01*
X7836130Y-8563533D01*
X7839463Y-8576867D01*
X7839463Y-8586867D01*
X7836130Y-8600200D01*
X7832797Y-8606867D01*
X7826130Y-8613533D01*
X7816130Y-8616867D01*
X7799463Y-8616867D01*
X7866130Y-8553533D02*
X7869463Y-8550200D01*
X7876130Y-8546867D01*
X7892797Y-8546867D01*
X7899463Y-8550200D01*
X7902797Y-8553533D01*
X7906130Y-8560200D01*
X7906130Y-8566867D01*
X7902797Y-8576867D01*
X7862797Y-8616867D01*
X7906130Y-8616867D01*
X9127200Y-8701560D02*
X9130533Y-8691560D01*
X9133867Y-8688227D01*
X9140533Y-8684893D01*
X9150533Y-8684893D01*
X9157200Y-8688227D01*
X9160533Y-8691560D01*
X9163867Y-8698227D01*
X9163867Y-8724893D01*
X9093867Y-8724893D01*
X9093867Y-8701560D01*
X9097200Y-8694893D01*
X9100533Y-8691560D01*
X9107200Y-8688227D01*
X9113867Y-8688227D01*
X9120533Y-8691560D01*
X9123867Y-8694893D01*
X9127200Y-8701560D01*
X9127200Y-8724893D01*
X9163867Y-8624893D02*
X9127200Y-8624893D01*
X9120533Y-8628227D01*
X9117200Y-8634893D01*
X9117200Y-8648227D01*
X9120533Y-8654893D01*
X9160533Y-8624893D02*
X9163867Y-8631560D01*
X9163867Y-8648227D01*
X9160533Y-8654893D01*
X9153867Y-8658227D01*
X9147200Y-8658227D01*
X9140533Y-8654893D01*
X9137200Y-8648227D01*
X9137200Y-8631560D01*
X9133867Y-8624893D01*
X9163867Y-8591560D02*
X9117200Y-8591560D01*
X9130533Y-8591560D02*
X9123867Y-8588227D01*
X9120533Y-8584893D01*
X9117200Y-8578227D01*
X9117200Y-8571560D01*
X9163867Y-8548227D02*
X9117200Y-8548227D01*
X9130533Y-8548227D02*
X9123867Y-8544893D01*
X9120533Y-8541560D01*
X9117200Y-8534893D01*
X9117200Y-8528227D01*
X9160533Y-8478227D02*
X9163867Y-8484893D01*
X9163867Y-8498227D01*
X9160533Y-8504893D01*
X9153867Y-8508227D01*
X9127200Y-8508227D01*
X9120533Y-8504893D01*
X9117200Y-8498227D01*
X9117200Y-8484893D01*
X9120533Y-8478227D01*
X9127200Y-8474893D01*
X9133867Y-8474893D01*
X9140533Y-8508227D01*
X9163867Y-8434893D02*
X9160533Y-8441560D01*
X9153867Y-8444893D01*
X9093867Y-8444893D01*
X9170533Y-8424893D02*
X9170533Y-8371560D01*
X9093867Y-8334893D02*
X9143867Y-8334893D01*
X9153867Y-8338227D01*
X9160533Y-8344893D01*
X9163867Y-8354893D01*
X9163867Y-8361560D01*
X9163867Y-8271560D02*
X9127200Y-8271560D01*
X9120533Y-8274893D01*
X9117200Y-8281560D01*
X9117200Y-8294893D01*
X9120533Y-8301560D01*
X9160533Y-8271560D02*
X9163867Y-8278227D01*
X9163867Y-8294893D01*
X9160533Y-8301560D01*
X9153867Y-8304893D01*
X9147200Y-8304893D01*
X9140533Y-8301560D01*
X9137200Y-8294893D01*
X9137200Y-8278227D01*
X9133867Y-8271560D01*
X9160533Y-8208227D02*
X9163867Y-8214893D01*
X9163867Y-8228227D01*
X9160533Y-8234893D01*
X9157200Y-8238227D01*
X9150533Y-8241560D01*
X9130533Y-8241560D01*
X9123867Y-8238227D01*
X9120533Y-8234893D01*
X9117200Y-8228227D01*
X9117200Y-8214893D01*
X9120533Y-8208227D01*
X9163867Y-8178227D02*
X9093867Y-8178227D01*
X9137200Y-8171560D02*
X9163867Y-8151560D01*
X9117200Y-8151560D02*
X9143867Y-8178227D01*
X9170533Y-8138227D02*
X9170533Y-8084893D01*
X9160533Y-8071560D02*
X9163867Y-8061560D01*
X9163867Y-8044893D01*
X9160533Y-8038227D01*
X9157200Y-8034893D01*
X9150533Y-8031560D01*
X9143867Y-8031560D01*
X9137200Y-8034893D01*
X9133867Y-8038227D01*
X9130533Y-8044893D01*
X9127200Y-8058227D01*
X9123867Y-8064893D01*
X9120533Y-8068227D01*
X9113867Y-8071560D01*
X9107200Y-8071560D01*
X9100533Y-8068227D01*
X9097200Y-8064893D01*
X9093867Y-8058227D01*
X9093867Y-8041560D01*
X9097200Y-8031560D01*
X9117200Y-8008227D02*
X9163867Y-7994893D01*
X9130533Y-7981560D01*
X9163867Y-7968227D01*
X9117200Y-7954893D01*
X9163867Y-7928227D02*
X9117200Y-7928227D01*
X9093867Y-7928227D02*
X9097200Y-7931560D01*
X9100533Y-7928227D01*
X9097200Y-7924893D01*
X9093867Y-7928227D01*
X9100533Y-7928227D01*
X9117200Y-7904893D02*
X9117200Y-7878227D01*
X9093867Y-7894893D02*
X9153867Y-7894893D01*
X9160533Y-7891560D01*
X9163867Y-7884893D01*
X9163867Y-7878227D01*
X9160533Y-7824893D02*
X9163867Y-7831560D01*
X9163867Y-7844893D01*
X9160533Y-7851560D01*
X9157200Y-7854893D01*
X9150533Y-7858227D01*
X9130533Y-7858227D01*
X9123867Y-7854893D01*
X9120533Y-7851560D01*
X9117200Y-7844893D01*
X9117200Y-7831560D01*
X9120533Y-7824893D01*
X9163867Y-7794893D02*
X9093867Y-7794893D01*
X9163867Y-7764893D02*
X9127200Y-7764893D01*
X9120533Y-7768227D01*
X9117200Y-7774893D01*
X9117200Y-7784893D01*
X9120533Y-7791560D01*
X9123867Y-7794893D01*
X9170533Y-7748227D02*
X9170533Y-7694893D01*
X9163867Y-7678227D02*
X9093867Y-7678227D01*
X9093867Y-7651560D01*
X9097200Y-7644893D01*
X9100533Y-7641560D01*
X9107200Y-7638227D01*
X9117200Y-7638227D01*
X9123867Y-7641560D01*
X9127200Y-7644893D01*
X9130533Y-7651560D01*
X9130533Y-7678227D01*
X9163867Y-7608227D02*
X9117200Y-7608227D01*
X9093867Y-7608227D02*
X9097200Y-7611560D01*
X9100533Y-7608227D01*
X9097200Y-7604893D01*
X9093867Y-7608227D01*
X9100533Y-7608227D01*
X9117200Y-7574893D02*
X9163867Y-7574893D01*
X9123867Y-7574893D02*
X9120533Y-7571560D01*
X9117200Y-7564893D01*
X9117200Y-7554893D01*
X9120533Y-7548227D01*
X9127200Y-7544893D01*
X9163867Y-7544893D01*
X9093867Y-7518227D02*
X9093867Y-7474893D01*
X9120533Y-7498227D01*
X9120533Y-7488227D01*
X9123867Y-7481560D01*
X9127200Y-7478227D01*
X9133867Y-7474893D01*
X9150533Y-7474893D01*
X9157200Y-7478227D01*
X9160533Y-7481560D01*
X9163867Y-7488227D01*
X9163867Y-7508227D01*
X9160533Y-7514893D01*
X9157200Y-7518227D01*
X9163867Y-7404893D02*
X9130533Y-7428227D01*
X9163867Y-7444893D02*
X9093867Y-7444893D01*
X9093867Y-7418227D01*
X9097200Y-7411560D01*
X9100533Y-7408227D01*
X9107200Y-7404893D01*
X9117200Y-7404893D01*
X9123867Y-7408227D01*
X9127200Y-7411560D01*
X9130533Y-7418227D01*
X9130533Y-7444893D01*
X9163867Y-7374893D02*
X9117200Y-7374893D01*
X9093867Y-7374893D02*
X9097200Y-7378227D01*
X9100533Y-7374893D01*
X9097200Y-7371560D01*
X9093867Y-7374893D01*
X9100533Y-7374893D01*
X9117200Y-7341560D02*
X9163867Y-7341560D01*
X9123867Y-7341560D02*
X9120533Y-7338227D01*
X9117200Y-7331560D01*
X9117200Y-7321560D01*
X9120533Y-7314893D01*
X9127200Y-7311560D01*
X9163867Y-7311560D01*
X9117200Y-7248227D02*
X9173867Y-7248227D01*
X9180533Y-7251560D01*
X9183867Y-7254893D01*
X9187200Y-7261560D01*
X9187200Y-7271560D01*
X9183867Y-7278227D01*
X9160533Y-7248227D02*
X9163867Y-7254893D01*
X9163867Y-7268227D01*
X9160533Y-7274893D01*
X9157200Y-7278227D01*
X9150533Y-7281560D01*
X9130533Y-7281560D01*
X9123867Y-7278227D01*
X9120533Y-7274893D01*
X9117200Y-7268227D01*
X9117200Y-7254893D01*
X9120533Y-7248227D01*
X9893867Y-8009893D02*
X9943867Y-8009893D01*
X9953867Y-8013227D01*
X9960533Y-8019893D01*
X9963867Y-8029893D01*
X9963867Y-8036560D01*
X9963867Y-7939893D02*
X9963867Y-7979893D01*
X9963867Y-7959893D02*
X9893867Y-7959893D01*
X9903867Y-7966560D01*
X9910533Y-7973227D01*
X9913867Y-7979893D01*
X11643767Y-10913233D02*
X11643767Y-10953233D01*
X11643767Y-10933233D02*
X11573767Y-10933233D01*
X11583767Y-10939900D01*
X11590433Y-10946567D01*
X11593767Y-10953233D01*
X11573767Y-10869900D02*
X11573767Y-10863233D01*
X11577100Y-10856567D01*
X11580433Y-10853233D01*
X11587100Y-10849900D01*
X11600433Y-10846567D01*
X11617100Y-10846567D01*
X11630433Y-10849900D01*
X11637100Y-10853233D01*
X11640433Y-10856567D01*
X11643767Y-10863233D01*
X11643767Y-10869900D01*
X11640433Y-10876567D01*
X11637100Y-10879900D01*
X11630433Y-10883233D01*
X11617100Y-10886567D01*
X11600433Y-10886567D01*
X11587100Y-10883233D01*
X11580433Y-10879900D01*
X11577100Y-10876567D01*
X11573767Y-10869900D01*
X11643767Y-10816567D02*
X11573767Y-10816567D01*
X11643767Y-10776567D02*
X11603767Y-10806567D01*
X11573767Y-10776567D02*
X11613767Y-10816567D01*
X11786767Y-10876567D02*
X11753433Y-10899900D01*
X11786767Y-10916567D02*
X11716767Y-10916567D01*
X11716767Y-10889900D01*
X11720100Y-10883233D01*
X11723433Y-10879900D01*
X11730100Y-10876567D01*
X11740100Y-10876567D01*
X11746767Y-10879900D01*
X11750100Y-10883233D01*
X11753433Y-10889900D01*
X11753433Y-10916567D01*
X11786767Y-10809900D02*
X11786767Y-10849900D01*
X11786767Y-10829900D02*
X11716767Y-10829900D01*
X11726767Y-10836567D01*
X11733433Y-10843233D01*
X11736767Y-10849900D01*
X11345567Y-11750467D02*
X11345567Y-11790467D01*
X11345567Y-11770467D02*
X11275567Y-11770467D01*
X11285567Y-11777133D01*
X11292233Y-11783800D01*
X11295567Y-11790467D01*
X11275567Y-11707133D02*
X11275567Y-11700467D01*
X11278900Y-11693800D01*
X11282233Y-11690467D01*
X11288900Y-11687133D01*
X11302233Y-11683800D01*
X11318900Y-11683800D01*
X11332233Y-11687133D01*
X11338900Y-11690467D01*
X11342233Y-11693800D01*
X11345567Y-11700467D01*
X11345567Y-11707133D01*
X11342233Y-11713800D01*
X11338900Y-11717133D01*
X11332233Y-11720467D01*
X11318900Y-11723800D01*
X11302233Y-11723800D01*
X11288900Y-11720467D01*
X11282233Y-11717133D01*
X11278900Y-11713800D01*
X11275567Y-11707133D01*
X11275567Y-11640467D02*
X11275567Y-11633800D01*
X11278900Y-11627133D01*
X11282233Y-11623800D01*
X11288900Y-11620467D01*
X11302233Y-11617133D01*
X11318900Y-11617133D01*
X11332233Y-11620467D01*
X11338900Y-11623800D01*
X11342233Y-11627133D01*
X11345567Y-11633800D01*
X11345567Y-11640467D01*
X11342233Y-11647133D01*
X11338900Y-11650467D01*
X11332233Y-11653800D01*
X11318900Y-11657133D01*
X11302233Y-11657133D01*
X11288900Y-11653800D01*
X11282233Y-11650467D01*
X11278900Y-11647133D01*
X11275567Y-11640467D01*
X11345567Y-11587133D02*
X11275567Y-11587133D01*
X11345567Y-11547133D02*
X11305567Y-11577133D01*
X11275567Y-11547133D02*
X11315567Y-11587133D01*
X11202567Y-11680467D02*
X11169233Y-11703800D01*
X11202567Y-11720467D02*
X11132567Y-11720467D01*
X11132567Y-11693800D01*
X11135900Y-11687133D01*
X11139233Y-11683800D01*
X11145900Y-11680467D01*
X11155900Y-11680467D01*
X11162567Y-11683800D01*
X11165900Y-11687133D01*
X11169233Y-11693800D01*
X11169233Y-11720467D01*
X11139233Y-11653800D02*
X11135900Y-11650467D01*
X11132567Y-11643800D01*
X11132567Y-11627133D01*
X11135900Y-11620467D01*
X11139233Y-11617133D01*
X11145900Y-11613800D01*
X11152567Y-11613800D01*
X11162567Y-11617133D01*
X11202567Y-11657133D01*
X11202567Y-11613800D01*
X11866433Y-11365733D02*
X11863100Y-11362400D01*
X11859767Y-11355733D01*
X11859767Y-11339067D01*
X11863100Y-11332400D01*
X11866433Y-11329067D01*
X11873100Y-11325733D01*
X11879767Y-11325733D01*
X11889767Y-11329067D01*
X11929767Y-11369067D01*
X11929767Y-11325733D01*
X11923100Y-11295733D02*
X11926433Y-11292400D01*
X11929767Y-11295733D01*
X11926433Y-11299067D01*
X11923100Y-11295733D01*
X11929767Y-11295733D01*
X11866433Y-11265733D02*
X11863100Y-11262400D01*
X11859767Y-11255733D01*
X11859767Y-11239067D01*
X11863100Y-11232400D01*
X11866433Y-11229067D01*
X11873100Y-11225733D01*
X11879767Y-11225733D01*
X11889767Y-11229067D01*
X11929767Y-11269067D01*
X11929767Y-11225733D01*
X11929767Y-11195733D02*
X11859767Y-11195733D01*
X11903100Y-11189067D02*
X11929767Y-11169067D01*
X11883100Y-11169067D02*
X11909767Y-11195733D01*
X11786767Y-11279067D02*
X11753433Y-11302400D01*
X11786767Y-11319067D02*
X11716767Y-11319067D01*
X11716767Y-11292400D01*
X11720100Y-11285733D01*
X11723433Y-11282400D01*
X11730100Y-11279067D01*
X11740100Y-11279067D01*
X11746767Y-11282400D01*
X11750100Y-11285733D01*
X11753433Y-11292400D01*
X11753433Y-11319067D01*
X11716767Y-11255733D02*
X11716767Y-11212400D01*
X11743433Y-11235733D01*
X11743433Y-11225733D01*
X11746767Y-11219067D01*
X11750100Y-11215733D01*
X11756767Y-11212400D01*
X11773433Y-11212400D01*
X11780100Y-11215733D01*
X11783433Y-11219067D01*
X11786767Y-11225733D01*
X11786767Y-11245733D01*
X11783433Y-11252400D01*
X11780100Y-11255733D01*
X11929767Y-10519500D02*
X11929767Y-10559500D01*
X11929767Y-10539500D02*
X11859767Y-10539500D01*
X11869767Y-10546167D01*
X11876433Y-10552833D01*
X11879767Y-10559500D01*
X11859767Y-10476167D02*
X11859767Y-10469500D01*
X11863100Y-10462833D01*
X11866433Y-10459500D01*
X11873100Y-10456167D01*
X11886433Y-10452833D01*
X11903100Y-10452833D01*
X11916433Y-10456167D01*
X11923100Y-10459500D01*
X11926433Y-10462833D01*
X11929767Y-10469500D01*
X11929767Y-10476167D01*
X11926433Y-10482833D01*
X11923100Y-10486167D01*
X11916433Y-10489500D01*
X11903100Y-10492833D01*
X11886433Y-10492833D01*
X11873100Y-10489500D01*
X11866433Y-10486167D01*
X11863100Y-10482833D01*
X11859767Y-10476167D01*
X11859767Y-10409500D02*
X11859767Y-10402833D01*
X11863100Y-10396167D01*
X11866433Y-10392833D01*
X11873100Y-10389500D01*
X11886433Y-10386167D01*
X11903100Y-10386167D01*
X11916433Y-10389500D01*
X11923100Y-10392833D01*
X11926433Y-10396167D01*
X11929767Y-10402833D01*
X11929767Y-10409500D01*
X11926433Y-10416167D01*
X11923100Y-10419500D01*
X11916433Y-10422833D01*
X11903100Y-10426167D01*
X11886433Y-10426167D01*
X11873100Y-10422833D01*
X11866433Y-10419500D01*
X11863100Y-10416167D01*
X11859767Y-10409500D01*
X11929767Y-10356167D02*
X11859767Y-10356167D01*
X11903100Y-10349500D02*
X11929767Y-10329500D01*
X11883100Y-10329500D02*
X11909767Y-10356167D01*
X11786767Y-10456167D02*
X11753433Y-10479500D01*
X11786767Y-10496167D02*
X11716767Y-10496167D01*
X11716767Y-10469500D01*
X11720100Y-10462833D01*
X11723433Y-10459500D01*
X11730100Y-10456167D01*
X11740100Y-10456167D01*
X11746767Y-10459500D01*
X11750100Y-10462833D01*
X11753433Y-10469500D01*
X11753433Y-10496167D01*
X11740100Y-10396167D02*
X11786767Y-10396167D01*
X11713433Y-10412833D02*
X11763433Y-10429500D01*
X11763433Y-10386167D01*
X8691360Y-11170267D02*
X8738027Y-11170267D01*
X8664693Y-11186933D02*
X8714693Y-11203600D01*
X8714693Y-11160267D01*
X8731360Y-11133600D02*
X8734693Y-11130267D01*
X8738027Y-11133600D01*
X8734693Y-11136933D01*
X8731360Y-11133600D01*
X8738027Y-11133600D01*
X8668027Y-11106933D02*
X8668027Y-11060267D01*
X8738027Y-11090267D01*
X8738027Y-11033600D02*
X8668027Y-11033600D01*
X8738027Y-10993600D02*
X8698027Y-11023600D01*
X8668027Y-10993600D02*
X8708027Y-11033600D01*
X8881027Y-11110267D02*
X8847693Y-11133600D01*
X8881027Y-11150267D02*
X8811027Y-11150267D01*
X8811027Y-11123600D01*
X8814360Y-11116933D01*
X8817693Y-11113600D01*
X8824360Y-11110267D01*
X8834360Y-11110267D01*
X8841027Y-11113600D01*
X8844360Y-11116933D01*
X8847693Y-11123600D01*
X8847693Y-11150267D01*
X8811027Y-11046933D02*
X8811027Y-11080267D01*
X8844360Y-11083600D01*
X8841027Y-11080267D01*
X8837693Y-11073600D01*
X8837693Y-11056933D01*
X8841027Y-11050267D01*
X8844360Y-11046933D01*
X8851027Y-11043600D01*
X8867693Y-11043600D01*
X8874360Y-11046933D01*
X8877693Y-11050267D01*
X8881027Y-11056933D01*
X8881027Y-11073600D01*
X8877693Y-11080267D01*
X8874360Y-11083600D01*
X11614200Y-9782067D02*
X11580867Y-9782067D01*
X11577533Y-9815400D01*
X11580867Y-9812067D01*
X11587533Y-9808733D01*
X11604200Y-9808733D01*
X11610867Y-9812067D01*
X11614200Y-9815400D01*
X11617533Y-9822067D01*
X11617533Y-9838733D01*
X11614200Y-9845400D01*
X11610867Y-9848733D01*
X11604200Y-9852067D01*
X11587533Y-9852067D01*
X11580867Y-9848733D01*
X11577533Y-9845400D01*
X11650867Y-9852067D02*
X11664200Y-9852067D01*
X11670867Y-9848733D01*
X11674200Y-9845400D01*
X11680867Y-9835400D01*
X11684200Y-9822067D01*
X11684200Y-9795400D01*
X11680867Y-9788733D01*
X11677533Y-9785400D01*
X11670867Y-9782067D01*
X11657533Y-9782067D01*
X11650867Y-9785400D01*
X11647533Y-9788733D01*
X11644200Y-9795400D01*
X11644200Y-9812067D01*
X11647533Y-9818733D01*
X11650867Y-9822067D01*
X11657533Y-9825400D01*
X11670867Y-9825400D01*
X11677533Y-9822067D01*
X11680867Y-9818733D01*
X11684200Y-9812067D01*
X11727533Y-9782067D02*
X11734200Y-9782067D01*
X11740867Y-9785400D01*
X11744200Y-9788733D01*
X11747533Y-9795400D01*
X11750867Y-9808733D01*
X11750867Y-9825400D01*
X11747533Y-9838733D01*
X11744200Y-9845400D01*
X11740867Y-9848733D01*
X11734200Y-9852067D01*
X11727533Y-9852067D01*
X11720867Y-9848733D01*
X11717533Y-9845400D01*
X11714200Y-9838733D01*
X11710867Y-9825400D01*
X11710867Y-9808733D01*
X11714200Y-9795400D01*
X11717533Y-9788733D01*
X11720867Y-9785400D01*
X11727533Y-9782067D01*
X11780867Y-9852067D02*
X11780867Y-9782067D01*
X11820867Y-9852067D02*
X11790867Y-9812067D01*
X11820867Y-9782067D02*
X11780867Y-9822067D01*
X11687533Y-9709067D02*
X11664200Y-9675733D01*
X11647533Y-9709067D02*
X11647533Y-9639067D01*
X11674200Y-9639067D01*
X11680867Y-9642400D01*
X11684200Y-9645733D01*
X11687533Y-9652400D01*
X11687533Y-9662400D01*
X11684200Y-9669067D01*
X11680867Y-9672400D01*
X11674200Y-9675733D01*
X11647533Y-9675733D01*
X11747533Y-9639067D02*
X11734200Y-9639067D01*
X11727533Y-9642400D01*
X11724200Y-9645733D01*
X11717533Y-9655733D01*
X11714200Y-9669067D01*
X11714200Y-9695733D01*
X11717533Y-9702400D01*
X11720867Y-9705733D01*
X11727533Y-9709067D01*
X11740867Y-9709067D01*
X11747533Y-9705733D01*
X11750867Y-9702400D01*
X11754200Y-9695733D01*
X11754200Y-9679067D01*
X11750867Y-9672400D01*
X11747533Y-9669067D01*
X11740867Y-9665733D01*
X11727533Y-9665733D01*
X11720867Y-9669067D01*
X11717533Y-9672400D01*
X11714200Y-9679067D01*
X11212433Y-9567587D02*
X11172433Y-9567587D01*
X11192433Y-9567587D02*
X11192433Y-9497587D01*
X11185767Y-9507587D01*
X11179100Y-9514253D01*
X11172433Y-9517587D01*
X11235767Y-9497587D02*
X11282433Y-9497587D01*
X11252433Y-9567587D01*
X11339100Y-9520920D02*
X11339100Y-9567587D01*
X11322433Y-9494253D02*
X11305767Y-9544253D01*
X11349100Y-9544253D01*
X11375767Y-9567587D02*
X11375767Y-9497587D01*
X11415767Y-9567587D02*
X11385767Y-9527587D01*
X11415767Y-9497587D02*
X11375767Y-9537587D01*
X11282433Y-9424587D02*
X11259100Y-9391253D01*
X11242433Y-9424587D02*
X11242433Y-9354587D01*
X11269100Y-9354587D01*
X11275767Y-9357920D01*
X11279100Y-9361253D01*
X11282433Y-9367920D01*
X11282433Y-9377920D01*
X11279100Y-9384587D01*
X11275767Y-9387920D01*
X11269100Y-9391253D01*
X11242433Y-9391253D01*
X11305767Y-9354587D02*
X11352433Y-9354587D01*
X11322433Y-9424587D01*
X11298900Y-11069900D02*
X11345567Y-11069900D01*
X11272233Y-11086567D02*
X11322233Y-11103233D01*
X11322233Y-11059900D01*
X11338900Y-11033233D02*
X11342233Y-11029900D01*
X11345567Y-11033233D01*
X11342233Y-11036567D01*
X11338900Y-11033233D01*
X11345567Y-11033233D01*
X11275567Y-11006567D02*
X11275567Y-10959900D01*
X11345567Y-10989900D01*
X11345567Y-10933233D02*
X11275567Y-10933233D01*
X11345567Y-10893233D02*
X11305567Y-10923233D01*
X11275567Y-10893233D02*
X11315567Y-10933233D01*
X11345567Y-10809900D02*
X11275567Y-10809900D01*
X11275567Y-10793233D01*
X11278900Y-10783233D01*
X11285567Y-10776567D01*
X11292233Y-10773233D01*
X11305567Y-10769900D01*
X11315567Y-10769900D01*
X11328900Y-10773233D01*
X11335567Y-10776567D01*
X11342233Y-10783233D01*
X11345567Y-10793233D01*
X11345567Y-10809900D01*
X11345567Y-10739900D02*
X11275567Y-10739900D01*
X11345567Y-10699900D01*
X11275567Y-10699900D01*
X11345567Y-10666567D02*
X11275567Y-10666567D01*
X11275567Y-10639900D01*
X11278900Y-10633233D01*
X11282233Y-10629900D01*
X11288900Y-10626567D01*
X11298900Y-10626567D01*
X11305567Y-10629900D01*
X11308900Y-10633233D01*
X11312233Y-10639900D01*
X11312233Y-10666567D01*
X11202567Y-10876567D02*
X11169233Y-10899900D01*
X11202567Y-10916567D02*
X11132567Y-10916567D01*
X11132567Y-10889900D01*
X11135900Y-10883233D01*
X11139233Y-10879900D01*
X11145900Y-10876567D01*
X11155900Y-10876567D01*
X11162567Y-10879900D01*
X11165900Y-10883233D01*
X11169233Y-10889900D01*
X11169233Y-10916567D01*
X11162567Y-10836567D02*
X11159233Y-10843233D01*
X11155900Y-10846567D01*
X11149233Y-10849900D01*
X11145900Y-10849900D01*
X11139233Y-10846567D01*
X11135900Y-10843233D01*
X11132567Y-10836567D01*
X11132567Y-10823233D01*
X11135900Y-10816567D01*
X11139233Y-10813233D01*
X11145900Y-10809900D01*
X11149233Y-10809900D01*
X11155900Y-10813233D01*
X11159233Y-10816567D01*
X11162567Y-10823233D01*
X11162567Y-10836567D01*
X11165900Y-10843233D01*
X11169233Y-10846567D01*
X11175900Y-10849900D01*
X11189233Y-10849900D01*
X11195900Y-10846567D01*
X11199233Y-10843233D01*
X11202567Y-10836567D01*
X11202567Y-10823233D01*
X11199233Y-10816567D01*
X11195900Y-10813233D01*
X11189233Y-10809900D01*
X11175900Y-10809900D01*
X11169233Y-10813233D01*
X11165900Y-10816567D01*
X11162567Y-10823233D01*
X11012900Y-11471800D02*
X11059567Y-11471800D01*
X10986233Y-11488467D02*
X11036233Y-11505133D01*
X11036233Y-11461800D01*
X11052900Y-11435133D02*
X11056233Y-11431800D01*
X11059567Y-11435133D01*
X11056233Y-11438467D01*
X11052900Y-11435133D01*
X11059567Y-11435133D01*
X10989567Y-11408467D02*
X10989567Y-11361800D01*
X11059567Y-11391800D01*
X11059567Y-11335133D02*
X10989567Y-11335133D01*
X11059567Y-11295133D02*
X11019567Y-11325133D01*
X10989567Y-11295133D02*
X11029567Y-11335133D01*
X11059567Y-11211800D02*
X10989567Y-11211800D01*
X10989567Y-11195133D01*
X10992900Y-11185133D01*
X10999567Y-11178467D01*
X11006233Y-11175133D01*
X11019567Y-11171800D01*
X11029567Y-11171800D01*
X11042900Y-11175133D01*
X11049567Y-11178467D01*
X11056233Y-11185133D01*
X11059567Y-11195133D01*
X11059567Y-11211800D01*
X11059567Y-11141800D02*
X10989567Y-11141800D01*
X11059567Y-11101800D01*
X10989567Y-11101800D01*
X11059567Y-11068467D02*
X10989567Y-11068467D01*
X10989567Y-11041800D01*
X10992900Y-11035133D01*
X10996233Y-11031800D01*
X11002900Y-11028467D01*
X11012900Y-11028467D01*
X11019567Y-11031800D01*
X11022900Y-11035133D01*
X11026233Y-11041800D01*
X11026233Y-11068467D01*
X11202567Y-11278467D02*
X11169233Y-11301800D01*
X11202567Y-11318467D02*
X11132567Y-11318467D01*
X11132567Y-11291800D01*
X11135900Y-11285133D01*
X11139233Y-11281800D01*
X11145900Y-11278467D01*
X11155900Y-11278467D01*
X11162567Y-11281800D01*
X11165900Y-11285133D01*
X11169233Y-11291800D01*
X11169233Y-11318467D01*
X11202567Y-11245133D02*
X11202567Y-11231800D01*
X11199233Y-11225133D01*
X11195900Y-11221800D01*
X11185900Y-11215133D01*
X11172567Y-11211800D01*
X11145900Y-11211800D01*
X11139233Y-11215133D01*
X11135900Y-11218467D01*
X11132567Y-11225133D01*
X11132567Y-11238467D01*
X11135900Y-11245133D01*
X11139233Y-11248467D01*
X11145900Y-11251800D01*
X11162567Y-11251800D01*
X11169233Y-11248467D01*
X11172567Y-11245133D01*
X11175900Y-11238467D01*
X11175900Y-11225133D01*
X11172567Y-11218467D01*
X11169233Y-11215133D01*
X11162567Y-11211800D01*
X8820320Y-8675267D02*
X8863653Y-8675267D01*
X8840320Y-8701933D01*
X8850320Y-8701933D01*
X8856987Y-8705267D01*
X8860320Y-8708600D01*
X8863653Y-8715267D01*
X8863653Y-8731933D01*
X8860320Y-8738600D01*
X8856987Y-8741933D01*
X8850320Y-8745267D01*
X8830320Y-8745267D01*
X8823653Y-8741933D01*
X8820320Y-8738600D01*
X8886987Y-8675267D02*
X8930320Y-8675267D01*
X8906987Y-8701933D01*
X8916987Y-8701933D01*
X8923653Y-8705267D01*
X8926987Y-8708600D01*
X8930320Y-8715267D01*
X8930320Y-8731933D01*
X8926987Y-8738600D01*
X8923653Y-8741933D01*
X8916987Y-8745267D01*
X8896987Y-8745267D01*
X8890320Y-8741933D01*
X8886987Y-8738600D01*
X8973653Y-8675267D02*
X8980320Y-8675267D01*
X8986987Y-8678600D01*
X8990320Y-8681933D01*
X8993653Y-8688600D01*
X8996987Y-8701933D01*
X8996987Y-8718600D01*
X8993653Y-8731933D01*
X8990320Y-8738600D01*
X8986987Y-8741933D01*
X8980320Y-8745267D01*
X8973653Y-8745267D01*
X8966987Y-8741933D01*
X8963653Y-8738600D01*
X8960320Y-8731933D01*
X8956987Y-8718600D01*
X8956987Y-8701933D01*
X8960320Y-8688600D01*
X8963653Y-8681933D01*
X8966987Y-8678600D01*
X8973653Y-8675267D01*
X8865320Y-8888267D02*
X8841987Y-8854933D01*
X8825320Y-8888267D02*
X8825320Y-8818267D01*
X8851987Y-8818267D01*
X8858653Y-8821600D01*
X8861987Y-8824933D01*
X8865320Y-8831600D01*
X8865320Y-8841600D01*
X8861987Y-8848267D01*
X8858653Y-8851600D01*
X8851987Y-8854933D01*
X8825320Y-8854933D01*
X8931987Y-8888267D02*
X8891987Y-8888267D01*
X8911987Y-8888267D02*
X8911987Y-8818267D01*
X8905320Y-8828267D01*
X8898653Y-8834933D01*
X8891987Y-8838267D01*
X8975320Y-8818267D02*
X8981987Y-8818267D01*
X8988653Y-8821600D01*
X8991987Y-8824933D01*
X8995320Y-8831600D01*
X8998653Y-8844933D01*
X8998653Y-8861600D01*
X8995320Y-8874933D01*
X8991987Y-8881600D01*
X8988653Y-8884933D01*
X8981987Y-8888267D01*
X8975320Y-8888267D01*
X8968653Y-8884933D01*
X8965320Y-8881600D01*
X8961987Y-8874933D01*
X8958653Y-8861600D01*
X8958653Y-8844933D01*
X8961987Y-8831600D01*
X8965320Y-8824933D01*
X8968653Y-8821600D01*
X8975320Y-8818267D01*
X8820320Y-8403867D02*
X8863653Y-8403867D01*
X8840320Y-8430533D01*
X8850320Y-8430533D01*
X8856987Y-8433867D01*
X8860320Y-8437200D01*
X8863653Y-8443867D01*
X8863653Y-8460533D01*
X8860320Y-8467200D01*
X8856987Y-8470533D01*
X8850320Y-8473867D01*
X8830320Y-8473867D01*
X8823653Y-8470533D01*
X8820320Y-8467200D01*
X8886987Y-8403867D02*
X8930320Y-8403867D01*
X8906987Y-8430533D01*
X8916987Y-8430533D01*
X8923653Y-8433867D01*
X8926987Y-8437200D01*
X8930320Y-8443867D01*
X8930320Y-8460533D01*
X8926987Y-8467200D01*
X8923653Y-8470533D01*
X8916987Y-8473867D01*
X8896987Y-8473867D01*
X8890320Y-8470533D01*
X8886987Y-8467200D01*
X8973653Y-8403867D02*
X8980320Y-8403867D01*
X8986987Y-8407200D01*
X8990320Y-8410533D01*
X8993653Y-8417200D01*
X8996987Y-8430533D01*
X8996987Y-8447200D01*
X8993653Y-8460533D01*
X8990320Y-8467200D01*
X8986987Y-8470533D01*
X8980320Y-8473867D01*
X8973653Y-8473867D01*
X8966987Y-8470533D01*
X8963653Y-8467200D01*
X8960320Y-8460533D01*
X8956987Y-8447200D01*
X8956987Y-8430533D01*
X8960320Y-8417200D01*
X8963653Y-8410533D01*
X8966987Y-8407200D01*
X8973653Y-8403867D01*
X8865320Y-8616867D02*
X8841987Y-8583533D01*
X8825320Y-8616867D02*
X8825320Y-8546867D01*
X8851987Y-8546867D01*
X8858653Y-8550200D01*
X8861987Y-8553533D01*
X8865320Y-8560200D01*
X8865320Y-8570200D01*
X8861987Y-8576867D01*
X8858653Y-8580200D01*
X8851987Y-8583533D01*
X8825320Y-8583533D01*
X8931987Y-8616867D02*
X8891987Y-8616867D01*
X8911987Y-8616867D02*
X8911987Y-8546867D01*
X8905320Y-8556867D01*
X8898653Y-8563533D01*
X8891987Y-8566867D01*
X8998653Y-8616867D02*
X8958653Y-8616867D01*
X8978653Y-8616867D02*
X8978653Y-8546867D01*
X8971987Y-8556867D01*
X8965320Y-8563533D01*
X8958653Y-8566867D01*
X9126960Y-9165320D02*
X9126960Y-9211987D01*
X9110293Y-9138653D02*
X9093627Y-9188653D01*
X9136960Y-9188653D01*
X9163627Y-9205320D02*
X9166960Y-9208653D01*
X9163627Y-9211987D01*
X9160293Y-9208653D01*
X9163627Y-9205320D01*
X9163627Y-9211987D01*
X9190293Y-9141987D02*
X9236960Y-9141987D01*
X9206960Y-9211987D01*
X9263627Y-9211987D02*
X9263627Y-9141987D01*
X9303627Y-9211987D02*
X9273627Y-9171987D01*
X9303627Y-9141987D02*
X9263627Y-9181987D01*
X9386960Y-9211987D02*
X9386960Y-9141987D01*
X9403627Y-9141987D01*
X9413627Y-9145320D01*
X9420293Y-9151987D01*
X9423627Y-9158653D01*
X9426960Y-9171987D01*
X9426960Y-9181987D01*
X9423627Y-9195320D01*
X9420293Y-9201987D01*
X9413627Y-9208653D01*
X9403627Y-9211987D01*
X9386960Y-9211987D01*
X9456960Y-9211987D02*
X9456960Y-9141987D01*
X9496960Y-9211987D01*
X9496960Y-9141987D01*
X9530293Y-9211987D02*
X9530293Y-9141987D01*
X9556960Y-9141987D01*
X9563627Y-9145320D01*
X9566960Y-9148653D01*
X9570293Y-9155320D01*
X9570293Y-9165320D01*
X9566960Y-9171987D01*
X9563627Y-9175320D01*
X9556960Y-9178653D01*
X9530293Y-9178653D01*
X9286960Y-9068987D02*
X9263627Y-9035653D01*
X9246960Y-9068987D02*
X9246960Y-8998987D01*
X9273627Y-8998987D01*
X9280293Y-9002320D01*
X9283627Y-9005653D01*
X9286960Y-9012320D01*
X9286960Y-9022320D01*
X9283627Y-9028987D01*
X9280293Y-9032320D01*
X9273627Y-9035653D01*
X9246960Y-9035653D01*
X9353627Y-9068987D02*
X9313627Y-9068987D01*
X9333627Y-9068987D02*
X9333627Y-8998987D01*
X9326960Y-9008987D01*
X9320293Y-9015653D01*
X9313627Y-9018987D01*
X9380293Y-9005653D02*
X9383627Y-9002320D01*
X9390293Y-8998987D01*
X9406960Y-8998987D01*
X9413627Y-9002320D01*
X9416960Y-9005653D01*
X9420293Y-9012320D01*
X9420293Y-9018987D01*
X9416960Y-9028987D01*
X9376960Y-9068987D01*
X9420293Y-9068987D01*
X11281667Y-10868233D02*
X11281667Y-10861567D01*
X11285000Y-10854900D01*
X11288333Y-10851567D01*
X11295000Y-10848233D01*
X11308333Y-10844900D01*
X11325000Y-10844900D01*
X11338333Y-10848233D01*
X11345000Y-10851567D01*
X11348333Y-10854900D01*
X11351667Y-10861567D01*
X11351667Y-10868233D01*
X11348333Y-10874900D01*
X11345000Y-10878233D01*
X11338333Y-10881567D01*
X11325000Y-10884900D01*
X11308333Y-10884900D01*
X11295000Y-10881567D01*
X11288333Y-10878233D01*
X11285000Y-10874900D01*
X11281667Y-10868233D01*
X11494667Y-10909900D02*
X11461333Y-10933233D01*
X11494667Y-10949900D02*
X11424667Y-10949900D01*
X11424667Y-10923233D01*
X11428000Y-10916567D01*
X11431333Y-10913233D01*
X11438000Y-10909900D01*
X11448000Y-10909900D01*
X11454667Y-10913233D01*
X11458000Y-10916567D01*
X11461333Y-10923233D01*
X11461333Y-10949900D01*
X11494667Y-10843233D02*
X11494667Y-10883233D01*
X11494667Y-10863233D02*
X11424667Y-10863233D01*
X11434667Y-10869900D01*
X11441333Y-10876567D01*
X11444667Y-10883233D01*
X11424667Y-10819900D02*
X11424667Y-10776567D01*
X11451333Y-10799900D01*
X11451333Y-10789900D01*
X11454667Y-10783233D01*
X11458000Y-10779900D01*
X11464667Y-10776567D01*
X11481333Y-10776567D01*
X11488000Y-10779900D01*
X11491333Y-10783233D01*
X11494667Y-10789900D01*
X11494667Y-10809900D01*
X11491333Y-10816567D01*
X11488000Y-10819900D01*
X11281667Y-11270133D02*
X11281667Y-11263467D01*
X11285000Y-11256800D01*
X11288333Y-11253467D01*
X11295000Y-11250133D01*
X11308333Y-11246800D01*
X11325000Y-11246800D01*
X11338333Y-11250133D01*
X11345000Y-11253467D01*
X11348333Y-11256800D01*
X11351667Y-11263467D01*
X11351667Y-11270133D01*
X11348333Y-11276800D01*
X11345000Y-11280133D01*
X11338333Y-11283467D01*
X11325000Y-11286800D01*
X11308333Y-11286800D01*
X11295000Y-11283467D01*
X11288333Y-11280133D01*
X11285000Y-11276800D01*
X11281667Y-11270133D01*
X11494667Y-11311800D02*
X11461333Y-11335133D01*
X11494667Y-11351800D02*
X11424667Y-11351800D01*
X11424667Y-11325133D01*
X11428000Y-11318467D01*
X11431333Y-11315133D01*
X11438000Y-11311800D01*
X11448000Y-11311800D01*
X11454667Y-11315133D01*
X11458000Y-11318467D01*
X11461333Y-11325133D01*
X11461333Y-11351800D01*
X11494667Y-11245133D02*
X11494667Y-11285133D01*
X11494667Y-11265133D02*
X11424667Y-11265133D01*
X11434667Y-11271800D01*
X11441333Y-11278467D01*
X11444667Y-11285133D01*
X11448000Y-11185133D02*
X11494667Y-11185133D01*
X11421333Y-11201800D02*
X11471333Y-11218467D01*
X11471333Y-11175133D01*
X8581973Y-11772233D02*
X8585307Y-11762233D01*
X8585307Y-11745567D01*
X8581973Y-11738900D01*
X8578640Y-11735567D01*
X8571973Y-11732233D01*
X8565307Y-11732233D01*
X8558640Y-11735567D01*
X8555307Y-11738900D01*
X8551973Y-11745567D01*
X8548640Y-11758900D01*
X8545307Y-11765567D01*
X8541973Y-11768900D01*
X8535307Y-11772233D01*
X8528640Y-11772233D01*
X8521973Y-11768900D01*
X8518640Y-11765567D01*
X8515307Y-11758900D01*
X8515307Y-11742233D01*
X8518640Y-11732233D01*
X8515307Y-11708900D02*
X8585307Y-11692233D01*
X8535307Y-11678900D01*
X8585307Y-11665567D01*
X8515307Y-11648900D01*
X8585307Y-11585567D02*
X8585307Y-11625567D01*
X8585307Y-11605567D02*
X8515307Y-11605567D01*
X8525307Y-11612233D01*
X8531973Y-11618900D01*
X8535307Y-11625567D01*
X9781000Y-13123000D02*
X9804333Y-13123000D01*
X9814333Y-13159667D02*
X9781000Y-13159667D01*
X9781000Y-13089667D01*
X9814333Y-13089667D01*
X9841000Y-13156333D02*
X9851000Y-13159667D01*
X9867667Y-13159667D01*
X9874333Y-13156333D01*
X9877667Y-13153000D01*
X9881000Y-13146333D01*
X9881000Y-13139667D01*
X9877667Y-13133000D01*
X9874333Y-13129667D01*
X9867667Y-13126333D01*
X9854333Y-13123000D01*
X9847667Y-13119667D01*
X9844333Y-13116333D01*
X9841000Y-13109667D01*
X9841000Y-13103000D01*
X9844333Y-13096333D01*
X9847667Y-13093000D01*
X9854333Y-13089667D01*
X9871000Y-13089667D01*
X9881000Y-13093000D01*
X9911000Y-13159667D02*
X9911000Y-13089667D01*
X9937667Y-13089667D01*
X9944333Y-13093000D01*
X9947667Y-13096333D01*
X9951000Y-13103000D01*
X9951000Y-13113000D01*
X9947667Y-13119667D01*
X9944333Y-13123000D01*
X9937667Y-13126333D01*
X9911000Y-13126333D01*
X9981000Y-13133000D02*
X10034333Y-13133000D01*
X10104333Y-13159667D02*
X10064333Y-13159667D01*
X10084333Y-13159667D02*
X10084333Y-13089667D01*
X10077667Y-13099667D01*
X10071000Y-13106333D01*
X10064333Y-13109667D01*
X10131000Y-13096333D02*
X10134333Y-13093000D01*
X10141000Y-13089667D01*
X10157667Y-13089667D01*
X10164333Y-13093000D01*
X10167667Y-13096333D01*
X10171000Y-13103000D01*
X10171000Y-13109667D01*
X10167667Y-13119667D01*
X10127667Y-13159667D01*
X10171000Y-13159667D01*
X10201000Y-13123000D02*
X10224333Y-13123000D01*
X10234333Y-13159667D02*
X10201000Y-13159667D01*
X10201000Y-13089667D01*
X10234333Y-13089667D01*
X9897667Y-11891667D02*
X9897667Y-11948333D01*
X9901000Y-11955000D01*
X9904333Y-11958333D01*
X9911000Y-11961667D01*
X9924333Y-11961667D01*
X9931000Y-11958333D01*
X9934333Y-11955000D01*
X9937667Y-11948333D01*
X9937667Y-11891667D01*
X10007667Y-11961667D02*
X9967667Y-11961667D01*
X9987667Y-11961667D02*
X9987667Y-11891667D01*
X9981000Y-11901667D01*
X9974333Y-11908333D01*
X9967667Y-11911667D01*
X11814667Y-10510700D02*
X11814667Y-10470700D01*
X11884667Y-10490700D02*
X11814667Y-10490700D01*
X11884667Y-10414033D02*
X11884667Y-10447367D01*
X11814667Y-10447367D01*
X11814667Y-10400700D02*
X11884667Y-10377367D01*
X11814667Y-10354033D01*
X11814667Y-10337367D02*
X11814667Y-10290700D01*
X11884667Y-10320700D01*
X11814667Y-10234033D02*
X11814667Y-10247367D01*
X11818000Y-10254033D01*
X11821333Y-10257367D01*
X11831333Y-10264033D01*
X11844667Y-10267367D01*
X11871333Y-10267367D01*
X11878000Y-10264033D01*
X11881333Y-10260700D01*
X11884667Y-10254033D01*
X11884667Y-10240700D01*
X11881333Y-10234033D01*
X11878000Y-10230700D01*
X11871333Y-10227367D01*
X11854667Y-10227367D01*
X11848000Y-10230700D01*
X11844667Y-10234033D01*
X11841333Y-10240700D01*
X11841333Y-10254033D01*
X11844667Y-10260700D01*
X11848000Y-10264033D01*
X11854667Y-10267367D01*
X11814667Y-10204033D02*
X11814667Y-10157367D01*
X11884667Y-10187367D01*
X11891333Y-10147367D02*
X11891333Y-10094033D01*
X11884667Y-10077367D02*
X11814667Y-10077367D01*
X11814667Y-10060700D01*
X11818000Y-10050700D01*
X11824667Y-10044033D01*
X11831333Y-10040700D01*
X11844667Y-10037367D01*
X11854667Y-10037367D01*
X11868000Y-10040700D01*
X11874667Y-10044033D01*
X11881333Y-10050700D01*
X11884667Y-10060700D01*
X11884667Y-10077367D01*
X11818000Y-9970700D02*
X11814667Y-9977367D01*
X11814667Y-9987367D01*
X11818000Y-9997367D01*
X11824667Y-10004033D01*
X11831333Y-10007367D01*
X11844667Y-10010700D01*
X11854667Y-10010700D01*
X11868000Y-10007367D01*
X11874667Y-10004033D01*
X11881333Y-9997367D01*
X11884667Y-9987367D01*
X11884667Y-9980700D01*
X11881333Y-9970700D01*
X11878000Y-9967367D01*
X11854667Y-9967367D01*
X11854667Y-9980700D01*
X11884667Y-9937367D02*
X11814667Y-9937367D01*
X11884667Y-9897367D01*
X11814667Y-9897367D01*
X11891333Y-9880700D02*
X11891333Y-9827367D01*
X11864667Y-9814033D02*
X11864667Y-9780700D01*
X11884667Y-9820700D02*
X11814667Y-9797367D01*
X11884667Y-9774033D01*
X11884667Y-9750700D02*
X11814667Y-9750700D01*
X11814667Y-9734033D01*
X11818000Y-9724033D01*
X11824667Y-9717367D01*
X11831333Y-9714033D01*
X11844667Y-9710700D01*
X11854667Y-9710700D01*
X11868000Y-9714033D01*
X11874667Y-9717367D01*
X11881333Y-9724033D01*
X11884667Y-9734033D01*
X11884667Y-9750700D01*
X11814667Y-9660700D02*
X11864667Y-9660700D01*
X11874667Y-9664033D01*
X11881333Y-9670700D01*
X11884667Y-9680700D01*
X11884667Y-9687367D01*
X12087667Y-10132033D02*
X12144333Y-10132033D01*
X12151000Y-10128700D01*
X12154333Y-10125367D01*
X12157667Y-10118700D01*
X12157667Y-10105367D01*
X12154333Y-10098700D01*
X12151000Y-10095367D01*
X12144333Y-10092033D01*
X12087667Y-10092033D01*
X12094333Y-10062033D02*
X12091000Y-10058700D01*
X12087667Y-10052033D01*
X12087667Y-10035367D01*
X12091000Y-10028700D01*
X12094333Y-10025367D01*
X12101000Y-10022033D01*
X12107667Y-10022033D01*
X12117667Y-10025367D01*
X12157667Y-10065367D01*
X12157667Y-10022033D01*
X11359267Y-10425833D02*
X11359267Y-10385833D01*
X11429267Y-10405833D02*
X11359267Y-10405833D01*
X11429267Y-10329167D02*
X11429267Y-10362500D01*
X11359267Y-10362500D01*
X11359267Y-10315833D02*
X11429267Y-10292500D01*
X11359267Y-10269167D01*
X11359267Y-10252500D02*
X11359267Y-10205833D01*
X11429267Y-10235833D01*
X11359267Y-10149167D02*
X11359267Y-10162500D01*
X11362600Y-10169167D01*
X11365933Y-10172500D01*
X11375933Y-10179167D01*
X11389267Y-10182500D01*
X11415933Y-10182500D01*
X11422600Y-10179167D01*
X11425933Y-10175833D01*
X11429267Y-10169167D01*
X11429267Y-10155833D01*
X11425933Y-10149167D01*
X11422600Y-10145833D01*
X11415933Y-10142500D01*
X11399267Y-10142500D01*
X11392600Y-10145833D01*
X11389267Y-10149167D01*
X11385933Y-10155833D01*
X11385933Y-10169167D01*
X11389267Y-10175833D01*
X11392600Y-10179167D01*
X11399267Y-10182500D01*
X11359267Y-10119167D02*
X11359267Y-10072500D01*
X11429267Y-10102500D01*
X11435933Y-10062500D02*
X11435933Y-10009167D01*
X11429267Y-9992500D02*
X11359267Y-9992500D01*
X11359267Y-9975833D01*
X11362600Y-9965833D01*
X11369267Y-9959167D01*
X11375933Y-9955833D01*
X11389267Y-9952500D01*
X11399267Y-9952500D01*
X11412600Y-9955833D01*
X11419267Y-9959167D01*
X11425933Y-9965833D01*
X11429267Y-9975833D01*
X11429267Y-9992500D01*
X11429267Y-9882500D02*
X11395933Y-9905833D01*
X11429267Y-9922500D02*
X11359267Y-9922500D01*
X11359267Y-9895833D01*
X11362600Y-9889167D01*
X11365933Y-9885833D01*
X11372600Y-9882500D01*
X11382600Y-9882500D01*
X11389267Y-9885833D01*
X11392600Y-9889167D01*
X11395933Y-9895833D01*
X11395933Y-9922500D01*
X11359267Y-9862500D02*
X11429267Y-9839167D01*
X11359267Y-9815833D01*
X11435933Y-9809167D02*
X11435933Y-9755833D01*
X11409267Y-9742500D02*
X11409267Y-9709167D01*
X11429267Y-9749167D02*
X11359267Y-9725833D01*
X11429267Y-9702500D01*
X11429267Y-9679167D02*
X11359267Y-9679167D01*
X11359267Y-9662500D01*
X11362600Y-9652500D01*
X11369267Y-9645833D01*
X11375933Y-9642500D01*
X11389267Y-9639167D01*
X11399267Y-9639167D01*
X11412600Y-9642500D01*
X11419267Y-9645833D01*
X11425933Y-9652500D01*
X11429267Y-9662500D01*
X11429267Y-9679167D01*
X11359267Y-9589167D02*
X11409267Y-9589167D01*
X11419267Y-9592500D01*
X11425933Y-9599167D01*
X11429267Y-9609167D01*
X11429267Y-9615833D01*
X11554267Y-10055833D02*
X11610933Y-10055833D01*
X11617600Y-10052500D01*
X11620933Y-10049167D01*
X11624267Y-10042500D01*
X11624267Y-10029167D01*
X11620933Y-10022500D01*
X11617600Y-10019167D01*
X11610933Y-10015833D01*
X11554267Y-10015833D01*
X11554267Y-9989167D02*
X11554267Y-9945833D01*
X11580933Y-9969167D01*
X11580933Y-9959167D01*
X11584267Y-9952500D01*
X11587600Y-9949167D01*
X11594267Y-9945833D01*
X11610933Y-9945833D01*
X11617600Y-9949167D01*
X11620933Y-9952500D01*
X11624267Y-9959167D01*
X11624267Y-9979167D01*
X11620933Y-9985833D01*
X11617600Y-9989167D01*
X7859827Y-10255587D02*
X7826493Y-10255587D01*
X7826493Y-10185587D01*
X7883160Y-10255587D02*
X7883160Y-10185587D01*
X7906493Y-10235587D01*
X7929827Y-10185587D01*
X7929827Y-10255587D01*
X7999827Y-10255587D02*
X7959827Y-10255587D01*
X7979827Y-10255587D02*
X7979827Y-10185587D01*
X7973160Y-10195587D01*
X7966493Y-10202253D01*
X7959827Y-10205587D01*
X8066493Y-10255587D02*
X8026493Y-10255587D01*
X8046493Y-10255587D02*
X8046493Y-10185587D01*
X8039827Y-10195587D01*
X8033160Y-10202253D01*
X8026493Y-10205587D01*
X8133160Y-10255587D02*
X8093160Y-10255587D01*
X8113160Y-10255587D02*
X8113160Y-10185587D01*
X8106493Y-10195587D01*
X8099827Y-10202253D01*
X8093160Y-10205587D01*
X8156493Y-10185587D02*
X8203160Y-10185587D01*
X8173160Y-10255587D01*
X8229827Y-10228920D02*
X8283160Y-10228920D01*
X8309827Y-10185587D02*
X8353160Y-10185587D01*
X8329827Y-10212253D01*
X8339827Y-10212253D01*
X8346493Y-10215587D01*
X8349827Y-10218920D01*
X8353160Y-10225587D01*
X8353160Y-10242253D01*
X8349827Y-10248920D01*
X8346493Y-10252253D01*
X8339827Y-10255587D01*
X8319827Y-10255587D01*
X8313160Y-10252253D01*
X8309827Y-10248920D01*
X8383160Y-10248920D02*
X8386493Y-10252253D01*
X8383160Y-10255587D01*
X8379827Y-10252253D01*
X8383160Y-10248920D01*
X8383160Y-10255587D01*
X8409827Y-10185587D02*
X8453160Y-10185587D01*
X8429827Y-10212253D01*
X8439827Y-10212253D01*
X8446493Y-10215587D01*
X8449827Y-10218920D01*
X8453160Y-10225587D01*
X8453160Y-10242253D01*
X8449827Y-10248920D01*
X8446493Y-10252253D01*
X8439827Y-10255587D01*
X8419827Y-10255587D01*
X8413160Y-10252253D01*
X8409827Y-10248920D01*
X8099827Y-9827253D02*
X8156493Y-9827253D01*
X8163160Y-9823920D01*
X8166493Y-9820587D01*
X8169827Y-9813920D01*
X8169827Y-9800587D01*
X8166493Y-9793920D01*
X8163160Y-9790587D01*
X8156493Y-9787253D01*
X8099827Y-9787253D01*
X8123160Y-9723920D02*
X8169827Y-9723920D01*
X8096493Y-9740587D02*
X8146493Y-9757253D01*
X8146493Y-9713920D01*
X8978307Y-9587613D02*
X8978307Y-9627613D01*
X8978307Y-9607613D02*
X8908307Y-9607613D01*
X8918307Y-9614280D01*
X8924973Y-9620947D01*
X8928307Y-9627613D01*
X8908307Y-9544280D02*
X8908307Y-9537613D01*
X8911640Y-9530947D01*
X8914973Y-9527613D01*
X8921640Y-9524280D01*
X8934973Y-9520947D01*
X8951640Y-9520947D01*
X8964973Y-9524280D01*
X8971640Y-9527613D01*
X8974973Y-9530947D01*
X8978307Y-9537613D01*
X8978307Y-9544280D01*
X8974973Y-9550947D01*
X8971640Y-9554280D01*
X8964973Y-9557613D01*
X8951640Y-9560947D01*
X8934973Y-9560947D01*
X8921640Y-9557613D01*
X8914973Y-9554280D01*
X8911640Y-9550947D01*
X8908307Y-9544280D01*
X8908307Y-9477613D02*
X8908307Y-9470947D01*
X8911640Y-9464280D01*
X8914973Y-9460947D01*
X8921640Y-9457613D01*
X8934973Y-9454280D01*
X8951640Y-9454280D01*
X8964973Y-9457613D01*
X8971640Y-9460947D01*
X8974973Y-9464280D01*
X8978307Y-9470947D01*
X8978307Y-9477613D01*
X8974973Y-9484280D01*
X8971640Y-9487613D01*
X8964973Y-9490947D01*
X8951640Y-9494280D01*
X8934973Y-9494280D01*
X8921640Y-9490947D01*
X8914973Y-9487613D01*
X8911640Y-9484280D01*
X8908307Y-9477613D01*
X8931640Y-9424280D02*
X8978307Y-9424280D01*
X8938307Y-9424280D02*
X8934973Y-9420947D01*
X8931640Y-9414280D01*
X8931640Y-9404280D01*
X8934973Y-9397613D01*
X8941640Y-9394280D01*
X8978307Y-9394280D01*
X8941640Y-9337613D02*
X8941640Y-9360947D01*
X8978307Y-9360947D02*
X8908307Y-9360947D01*
X8908307Y-9327613D01*
X8828640Y-9524280D02*
X8831973Y-9527613D01*
X8835307Y-9537613D01*
X8835307Y-9544280D01*
X8831973Y-9554280D01*
X8825307Y-9560947D01*
X8818640Y-9564280D01*
X8805307Y-9567613D01*
X8795307Y-9567613D01*
X8781973Y-9564280D01*
X8775307Y-9560947D01*
X8768640Y-9554280D01*
X8765307Y-9544280D01*
X8765307Y-9537613D01*
X8768640Y-9527613D01*
X8771973Y-9524280D01*
X8835307Y-9457613D02*
X8835307Y-9497613D01*
X8835307Y-9477613D02*
X8765307Y-9477613D01*
X8775307Y-9484280D01*
X8781973Y-9490947D01*
X8785307Y-9497613D01*
X8771973Y-9430947D02*
X8768640Y-9427613D01*
X8765307Y-9420947D01*
X8765307Y-9404280D01*
X8768640Y-9397613D01*
X8771973Y-9394280D01*
X8778640Y-9390947D01*
X8785307Y-9390947D01*
X8795307Y-9394280D01*
X8835307Y-9434280D01*
X8835307Y-9390947D01*
X8835320Y-9323747D02*
X8795320Y-9323747D01*
X8815320Y-9323747D02*
X8815320Y-9253747D01*
X8808653Y-9263747D01*
X8801987Y-9270413D01*
X8795320Y-9273747D01*
X8878653Y-9253747D02*
X8885320Y-9253747D01*
X8891987Y-9257080D01*
X8895320Y-9260413D01*
X8898653Y-9267080D01*
X8901987Y-9280413D01*
X8901987Y-9297080D01*
X8898653Y-9310413D01*
X8895320Y-9317080D01*
X8891987Y-9320413D01*
X8885320Y-9323747D01*
X8878653Y-9323747D01*
X8871987Y-9320413D01*
X8868653Y-9317080D01*
X8865320Y-9310413D01*
X8861987Y-9297080D01*
X8861987Y-9280413D01*
X8865320Y-9267080D01*
X8868653Y-9260413D01*
X8871987Y-9257080D01*
X8878653Y-9253747D01*
X8961987Y-9277080D02*
X8961987Y-9323747D01*
X8931987Y-9277080D02*
X8931987Y-9313747D01*
X8935320Y-9320413D01*
X8941987Y-9323747D01*
X8951987Y-9323747D01*
X8958653Y-9320413D01*
X8961987Y-9317080D01*
X9018653Y-9287080D02*
X8995320Y-9287080D01*
X8995320Y-9323747D02*
X8995320Y-9253747D01*
X9028653Y-9253747D01*
X8865320Y-9174080D02*
X8861987Y-9177413D01*
X8851987Y-9180747D01*
X8845320Y-9180747D01*
X8835320Y-9177413D01*
X8828653Y-9170747D01*
X8825320Y-9164080D01*
X8821987Y-9150747D01*
X8821987Y-9140747D01*
X8825320Y-9127413D01*
X8828653Y-9120747D01*
X8835320Y-9114080D01*
X8845320Y-9110747D01*
X8851987Y-9110747D01*
X8861987Y-9114080D01*
X8865320Y-9117413D01*
X8931987Y-9180747D02*
X8891987Y-9180747D01*
X8911987Y-9180747D02*
X8911987Y-9110747D01*
X8905320Y-9120747D01*
X8898653Y-9127413D01*
X8891987Y-9130747D01*
X8955320Y-9110747D02*
X8998653Y-9110747D01*
X8975320Y-9137413D01*
X8985320Y-9137413D01*
X8991987Y-9140747D01*
X8995320Y-9144080D01*
X8998653Y-9150747D01*
X8998653Y-9167413D01*
X8995320Y-9174080D01*
X8991987Y-9177413D01*
X8985320Y-9180747D01*
X8965320Y-9180747D01*
X8958653Y-9177413D01*
X8955320Y-9174080D01*
X9501547Y-9987633D02*
X9501547Y-10027633D01*
X9501547Y-10007633D02*
X9431547Y-10007633D01*
X9441547Y-10014300D01*
X9448213Y-10020967D01*
X9451547Y-10027633D01*
X9431547Y-9944300D02*
X9431547Y-9937633D01*
X9434880Y-9930967D01*
X9438213Y-9927633D01*
X9444880Y-9924300D01*
X9458213Y-9920967D01*
X9474880Y-9920967D01*
X9488213Y-9924300D01*
X9494880Y-9927633D01*
X9498213Y-9930967D01*
X9501547Y-9937633D01*
X9501547Y-9944300D01*
X9498213Y-9950967D01*
X9494880Y-9954300D01*
X9488213Y-9957633D01*
X9474880Y-9960967D01*
X9458213Y-9960967D01*
X9444880Y-9957633D01*
X9438213Y-9954300D01*
X9434880Y-9950967D01*
X9431547Y-9944300D01*
X9431547Y-9877633D02*
X9431547Y-9870967D01*
X9434880Y-9864300D01*
X9438213Y-9860967D01*
X9444880Y-9857633D01*
X9458213Y-9854300D01*
X9474880Y-9854300D01*
X9488213Y-9857633D01*
X9494880Y-9860967D01*
X9498213Y-9864300D01*
X9501547Y-9870967D01*
X9501547Y-9877633D01*
X9498213Y-9884300D01*
X9494880Y-9887633D01*
X9488213Y-9890967D01*
X9474880Y-9894300D01*
X9458213Y-9894300D01*
X9444880Y-9890967D01*
X9438213Y-9887633D01*
X9434880Y-9884300D01*
X9431547Y-9877633D01*
X9454880Y-9824300D02*
X9501547Y-9824300D01*
X9461547Y-9824300D02*
X9458213Y-9820967D01*
X9454880Y-9814300D01*
X9454880Y-9804300D01*
X9458213Y-9797633D01*
X9464880Y-9794300D01*
X9501547Y-9794300D01*
X9464880Y-9737633D02*
X9464880Y-9760967D01*
X9501547Y-9760967D02*
X9431547Y-9760967D01*
X9431547Y-9727633D01*
X9351880Y-9924300D02*
X9355213Y-9927633D01*
X9358547Y-9937633D01*
X9358547Y-9944300D01*
X9355213Y-9954300D01*
X9348547Y-9960967D01*
X9341880Y-9964300D01*
X9328547Y-9967633D01*
X9318547Y-9967633D01*
X9305213Y-9964300D01*
X9298547Y-9960967D01*
X9291880Y-9954300D01*
X9288547Y-9944300D01*
X9288547Y-9937633D01*
X9291880Y-9927633D01*
X9295213Y-9924300D01*
X9358547Y-9857633D02*
X9358547Y-9897633D01*
X9358547Y-9877633D02*
X9288547Y-9877633D01*
X9298547Y-9884300D01*
X9305213Y-9890967D01*
X9308547Y-9897633D01*
X9311880Y-9797633D02*
X9358547Y-9797633D01*
X9285213Y-9814300D02*
X9335213Y-9830967D01*
X9335213Y-9787633D01*
X9239927Y-9956900D02*
X9239927Y-9996900D01*
X9239927Y-9976900D02*
X9169927Y-9976900D01*
X9179927Y-9983567D01*
X9186593Y-9990233D01*
X9189927Y-9996900D01*
X9169927Y-9913567D02*
X9169927Y-9906900D01*
X9173260Y-9900233D01*
X9176593Y-9896900D01*
X9183260Y-9893567D01*
X9196593Y-9890233D01*
X9213260Y-9890233D01*
X9226593Y-9893567D01*
X9233260Y-9896900D01*
X9236593Y-9900233D01*
X9239927Y-9906900D01*
X9239927Y-9913567D01*
X9236593Y-9920233D01*
X9233260Y-9923567D01*
X9226593Y-9926900D01*
X9213260Y-9930233D01*
X9196593Y-9930233D01*
X9183260Y-9926900D01*
X9176593Y-9923567D01*
X9173260Y-9920233D01*
X9169927Y-9913567D01*
X9193260Y-9830233D02*
X9239927Y-9830233D01*
X9193260Y-9860233D02*
X9229927Y-9860233D01*
X9236593Y-9856900D01*
X9239927Y-9850233D01*
X9239927Y-9840233D01*
X9236593Y-9833567D01*
X9233260Y-9830233D01*
X9203260Y-9773567D02*
X9203260Y-9796900D01*
X9239927Y-9796900D02*
X9169927Y-9796900D01*
X9169927Y-9763567D01*
X9090260Y-9926900D02*
X9093593Y-9930233D01*
X9096927Y-9940233D01*
X9096927Y-9946900D01*
X9093593Y-9956900D01*
X9086927Y-9963567D01*
X9080260Y-9966900D01*
X9066927Y-9970233D01*
X9056927Y-9970233D01*
X9043593Y-9966900D01*
X9036927Y-9963567D01*
X9030260Y-9956900D01*
X9026927Y-9946900D01*
X9026927Y-9940233D01*
X9030260Y-9930233D01*
X9033593Y-9926900D01*
X9096927Y-9860233D02*
X9096927Y-9900233D01*
X9096927Y-9880233D02*
X9026927Y-9880233D01*
X9036927Y-9886900D01*
X9043593Y-9893567D01*
X9046927Y-9900233D01*
X9026927Y-9796900D02*
X9026927Y-9830233D01*
X9060260Y-9833567D01*
X9056927Y-9830233D01*
X9053593Y-9823567D01*
X9053593Y-9806900D01*
X9056927Y-9800233D01*
X9060260Y-9796900D01*
X9066927Y-9793567D01*
X9083593Y-9793567D01*
X9090260Y-9796900D01*
X9093593Y-9800233D01*
X9096927Y-9806900D01*
X9096927Y-9823567D01*
X9093593Y-9830233D01*
X9090260Y-9833567D01*
X11079867Y-10515700D02*
X11079867Y-10555700D01*
X11079867Y-10535700D02*
X11009867Y-10535700D01*
X11019867Y-10542367D01*
X11026533Y-10549033D01*
X11029867Y-10555700D01*
X11009867Y-10472367D02*
X11009867Y-10465700D01*
X11013200Y-10459033D01*
X11016533Y-10455700D01*
X11023200Y-10452367D01*
X11036533Y-10449033D01*
X11053200Y-10449033D01*
X11066533Y-10452367D01*
X11073200Y-10455700D01*
X11076533Y-10459033D01*
X11079867Y-10465700D01*
X11079867Y-10472367D01*
X11076533Y-10479033D01*
X11073200Y-10482367D01*
X11066533Y-10485700D01*
X11053200Y-10489033D01*
X11036533Y-10489033D01*
X11023200Y-10485700D01*
X11016533Y-10482367D01*
X11013200Y-10479033D01*
X11009867Y-10472367D01*
X11033200Y-10389033D02*
X11079867Y-10389033D01*
X11033200Y-10419033D02*
X11069867Y-10419033D01*
X11076533Y-10415700D01*
X11079867Y-10409033D01*
X11079867Y-10399033D01*
X11076533Y-10392367D01*
X11073200Y-10389033D01*
X11043200Y-10332367D02*
X11043200Y-10355700D01*
X11079867Y-10355700D02*
X11009867Y-10355700D01*
X11009867Y-10322367D01*
X11216200Y-10485700D02*
X11219533Y-10489033D01*
X11222867Y-10499033D01*
X11222867Y-10505700D01*
X11219533Y-10515700D01*
X11212867Y-10522367D01*
X11206200Y-10525700D01*
X11192867Y-10529033D01*
X11182867Y-10529033D01*
X11169533Y-10525700D01*
X11162867Y-10522367D01*
X11156200Y-10515700D01*
X11152867Y-10505700D01*
X11152867Y-10499033D01*
X11156200Y-10489033D01*
X11159533Y-10485700D01*
X11222867Y-10419033D02*
X11222867Y-10459033D01*
X11222867Y-10439033D02*
X11152867Y-10439033D01*
X11162867Y-10445700D01*
X11169533Y-10452367D01*
X11172867Y-10459033D01*
X11152867Y-10359033D02*
X11152867Y-10372367D01*
X11156200Y-10379033D01*
X11159533Y-10382367D01*
X11169533Y-10389033D01*
X11182867Y-10392367D01*
X11209533Y-10392367D01*
X11216200Y-10389033D01*
X11219533Y-10385700D01*
X11222867Y-10379033D01*
X11222867Y-10365700D01*
X11219533Y-10359033D01*
X11216200Y-10355700D01*
X11209533Y-10352367D01*
X11192867Y-10352367D01*
X11186200Y-10355700D01*
X11182867Y-10359033D01*
X11179533Y-10365700D01*
X11179533Y-10379033D01*
X11182867Y-10385700D01*
X11186200Y-10389033D01*
X11192867Y-10392367D01*
X8978307Y-9998793D02*
X8978307Y-10038793D01*
X8978307Y-10018793D02*
X8908307Y-10018793D01*
X8918307Y-10025460D01*
X8924973Y-10032127D01*
X8928307Y-10038793D01*
X8908307Y-9955460D02*
X8908307Y-9948793D01*
X8911640Y-9942127D01*
X8914973Y-9938793D01*
X8921640Y-9935460D01*
X8934973Y-9932127D01*
X8951640Y-9932127D01*
X8964973Y-9935460D01*
X8971640Y-9938793D01*
X8974973Y-9942127D01*
X8978307Y-9948793D01*
X8978307Y-9955460D01*
X8974973Y-9962127D01*
X8971640Y-9965460D01*
X8964973Y-9968793D01*
X8951640Y-9972127D01*
X8934973Y-9972127D01*
X8921640Y-9968793D01*
X8914973Y-9965460D01*
X8911640Y-9962127D01*
X8908307Y-9955460D01*
X8908307Y-9888793D02*
X8908307Y-9882127D01*
X8911640Y-9875460D01*
X8914973Y-9872127D01*
X8921640Y-9868793D01*
X8934973Y-9865460D01*
X8951640Y-9865460D01*
X8964973Y-9868793D01*
X8971640Y-9872127D01*
X8974973Y-9875460D01*
X8978307Y-9882127D01*
X8978307Y-9888793D01*
X8974973Y-9895460D01*
X8971640Y-9898793D01*
X8964973Y-9902127D01*
X8951640Y-9905460D01*
X8934973Y-9905460D01*
X8921640Y-9902127D01*
X8914973Y-9898793D01*
X8911640Y-9895460D01*
X8908307Y-9888793D01*
X8931640Y-9835460D02*
X8978307Y-9835460D01*
X8938307Y-9835460D02*
X8934973Y-9832127D01*
X8931640Y-9825460D01*
X8931640Y-9815460D01*
X8934973Y-9808793D01*
X8941640Y-9805460D01*
X8978307Y-9805460D01*
X8941640Y-9748793D02*
X8941640Y-9772127D01*
X8978307Y-9772127D02*
X8908307Y-9772127D01*
X8908307Y-9738793D01*
X8828640Y-9935460D02*
X8831973Y-9938793D01*
X8835307Y-9948793D01*
X8835307Y-9955460D01*
X8831973Y-9965460D01*
X8825307Y-9972127D01*
X8818640Y-9975460D01*
X8805307Y-9978793D01*
X8795307Y-9978793D01*
X8781973Y-9975460D01*
X8775307Y-9972127D01*
X8768640Y-9965460D01*
X8765307Y-9955460D01*
X8765307Y-9948793D01*
X8768640Y-9938793D01*
X8771973Y-9935460D01*
X8835307Y-9868793D02*
X8835307Y-9908793D01*
X8835307Y-9888793D02*
X8765307Y-9888793D01*
X8775307Y-9895460D01*
X8781973Y-9902127D01*
X8785307Y-9908793D01*
X8765307Y-9845460D02*
X8765307Y-9798793D01*
X8835307Y-9828793D01*
X11252433Y-9566067D02*
X11212433Y-9566067D01*
X11232433Y-9566067D02*
X11232433Y-9496067D01*
X11225767Y-9506067D01*
X11219100Y-9512733D01*
X11212433Y-9516067D01*
X11312433Y-9519400D02*
X11312433Y-9566067D01*
X11282433Y-9519400D02*
X11282433Y-9556067D01*
X11285767Y-9562733D01*
X11292433Y-9566067D01*
X11302433Y-9566067D01*
X11309100Y-9562733D01*
X11312433Y-9559400D01*
X11369100Y-9529400D02*
X11345767Y-9529400D01*
X11345767Y-9566067D02*
X11345767Y-9496067D01*
X11379100Y-9496067D01*
X11249100Y-9702400D02*
X11245767Y-9705733D01*
X11235767Y-9709067D01*
X11229100Y-9709067D01*
X11219100Y-9705733D01*
X11212433Y-9699067D01*
X11209100Y-9692400D01*
X11205767Y-9679067D01*
X11205767Y-9669067D01*
X11209100Y-9655733D01*
X11212433Y-9649067D01*
X11219100Y-9642400D01*
X11229100Y-9639067D01*
X11235767Y-9639067D01*
X11245767Y-9642400D01*
X11249100Y-9645733D01*
X11315767Y-9709067D02*
X11275767Y-9709067D01*
X11295767Y-9709067D02*
X11295767Y-9639067D01*
X11289100Y-9649067D01*
X11282433Y-9655733D01*
X11275767Y-9659067D01*
X11355767Y-9669067D02*
X11349100Y-9665733D01*
X11345767Y-9662400D01*
X11342433Y-9655733D01*
X11342433Y-9652400D01*
X11345767Y-9645733D01*
X11349100Y-9642400D01*
X11355767Y-9639067D01*
X11369100Y-9639067D01*
X11375767Y-9642400D01*
X11379100Y-9645733D01*
X11382433Y-9652400D01*
X11382433Y-9655733D01*
X11379100Y-9662400D01*
X11375767Y-9665733D01*
X11369100Y-9669067D01*
X11355767Y-9669067D01*
X11349100Y-9672400D01*
X11345767Y-9675733D01*
X11342433Y-9682400D01*
X11342433Y-9695733D01*
X11345767Y-9702400D01*
X11349100Y-9705733D01*
X11355767Y-9709067D01*
X11369100Y-9709067D01*
X11375767Y-9705733D01*
X11379100Y-9702400D01*
X11382433Y-9695733D01*
X11382433Y-9682400D01*
X11379100Y-9675733D01*
X11375767Y-9672400D01*
X11369100Y-9669067D01*
X10681300Y-9089120D02*
X10681300Y-9135787D01*
X10664633Y-9062453D02*
X10647967Y-9112453D01*
X10691300Y-9112453D01*
X10711300Y-9065787D02*
X10757967Y-9065787D01*
X10727967Y-9135787D01*
X10797967Y-9065787D02*
X10804633Y-9065787D01*
X10811300Y-9069120D01*
X10814633Y-9072453D01*
X10817967Y-9079120D01*
X10821300Y-9092453D01*
X10821300Y-9109120D01*
X10817967Y-9122453D01*
X10814633Y-9129120D01*
X10811300Y-9132453D01*
X10804633Y-9135787D01*
X10797967Y-9135787D01*
X10791300Y-9132453D01*
X10787967Y-9129120D01*
X10784633Y-9122453D01*
X10781300Y-9109120D01*
X10781300Y-9092453D01*
X10784633Y-9079120D01*
X10787967Y-9072453D01*
X10791300Y-9069120D01*
X10797967Y-9065787D01*
X10851300Y-9089120D02*
X10851300Y-9159120D01*
X10851300Y-9092453D02*
X10857967Y-9089120D01*
X10871300Y-9089120D01*
X10877967Y-9092453D01*
X10881300Y-9095787D01*
X10884633Y-9102453D01*
X10884633Y-9122453D01*
X10881300Y-9129120D01*
X10877967Y-9132453D01*
X10871300Y-9135787D01*
X10857967Y-9135787D01*
X10851300Y-9132453D01*
X10937967Y-9099120D02*
X10914633Y-9099120D01*
X10914633Y-9135787D02*
X10914633Y-9065787D01*
X10947967Y-9065787D01*
X10751300Y-8986120D02*
X10747967Y-8989453D01*
X10737967Y-8992787D01*
X10731300Y-8992787D01*
X10721300Y-8989453D01*
X10714633Y-8982787D01*
X10711300Y-8976120D01*
X10707967Y-8962787D01*
X10707967Y-8952787D01*
X10711300Y-8939453D01*
X10714633Y-8932787D01*
X10721300Y-8926120D01*
X10731300Y-8922787D01*
X10737967Y-8922787D01*
X10747967Y-8926120D01*
X10751300Y-8929453D01*
X10817967Y-8992787D02*
X10777967Y-8992787D01*
X10797967Y-8992787D02*
X10797967Y-8922787D01*
X10791300Y-8932787D01*
X10784633Y-8939453D01*
X10777967Y-8942787D01*
X10851300Y-8992787D02*
X10864633Y-8992787D01*
X10871300Y-8989453D01*
X10874633Y-8986120D01*
X10881300Y-8976120D01*
X10884633Y-8962787D01*
X10884633Y-8936120D01*
X10881300Y-8929453D01*
X10877967Y-8926120D01*
X10871300Y-8922787D01*
X10857967Y-8922787D01*
X10851300Y-8926120D01*
X10847967Y-8929453D01*
X10844633Y-8936120D01*
X10844633Y-8952787D01*
X10847967Y-8959453D01*
X10851300Y-8962787D01*
X10857967Y-8966120D01*
X10871300Y-8966120D01*
X10877967Y-8962787D01*
X10881300Y-8959453D01*
X10884633Y-8952787D01*
X10705467Y-9796567D02*
X10705467Y-9836567D01*
X10705467Y-9816567D02*
X10635467Y-9816567D01*
X10645467Y-9823233D01*
X10652133Y-9829900D01*
X10655467Y-9836567D01*
X10658800Y-9736567D02*
X10705467Y-9736567D01*
X10658800Y-9766567D02*
X10695467Y-9766567D01*
X10702133Y-9763233D01*
X10705467Y-9756567D01*
X10705467Y-9746567D01*
X10702133Y-9739900D01*
X10698800Y-9736567D01*
X10668800Y-9679900D02*
X10668800Y-9703233D01*
X10705467Y-9703233D02*
X10635467Y-9703233D01*
X10635467Y-9669900D01*
X10555800Y-9799900D02*
X10559133Y-9803233D01*
X10562467Y-9813233D01*
X10562467Y-9819900D01*
X10559133Y-9829900D01*
X10552467Y-9836567D01*
X10545800Y-9839900D01*
X10532467Y-9843233D01*
X10522467Y-9843233D01*
X10509133Y-9839900D01*
X10502467Y-9836567D01*
X10495800Y-9829900D01*
X10492467Y-9819900D01*
X10492467Y-9813233D01*
X10495800Y-9803233D01*
X10499133Y-9799900D01*
X10499133Y-9773233D02*
X10495800Y-9769900D01*
X10492467Y-9763233D01*
X10492467Y-9746567D01*
X10495800Y-9739900D01*
X10499133Y-9736567D01*
X10505800Y-9733233D01*
X10512467Y-9733233D01*
X10522467Y-9736567D01*
X10562467Y-9776567D01*
X10562467Y-9733233D01*
X10492467Y-9689900D02*
X10492467Y-9683233D01*
X10495800Y-9676567D01*
X10499133Y-9673233D01*
X10505800Y-9669900D01*
X10519133Y-9666567D01*
X10535800Y-9666567D01*
X10549133Y-9669900D01*
X10555800Y-9673233D01*
X10559133Y-9676567D01*
X10562467Y-9683233D01*
X10562467Y-9689900D01*
X10559133Y-9696567D01*
X10555800Y-9699900D01*
X10549133Y-9703233D01*
X10535800Y-9706567D01*
X10519133Y-9706567D01*
X10505800Y-9703233D01*
X10499133Y-9699900D01*
X10495800Y-9696567D01*
X10492467Y-9689900D01*
X7806130Y-8484467D02*
X7772797Y-8484467D01*
X7772797Y-8414467D01*
X7829463Y-8447800D02*
X7852797Y-8447800D01*
X7862797Y-8484467D02*
X7829463Y-8484467D01*
X7829463Y-8414467D01*
X7862797Y-8414467D01*
X7892797Y-8484467D02*
X7892797Y-8414467D01*
X7909463Y-8414467D01*
X7919463Y-8417800D01*
X7926130Y-8424467D01*
X7929463Y-8431133D01*
X7932797Y-8444467D01*
X7932797Y-8454467D01*
X7929463Y-8467800D01*
X7926130Y-8474467D01*
X7919463Y-8481133D01*
X7909463Y-8484467D01*
X7892797Y-8484467D01*
X7799463Y-8341467D02*
X7799463Y-8271467D01*
X7816130Y-8271467D01*
X7826130Y-8274800D01*
X7832797Y-8281467D01*
X7836130Y-8288133D01*
X7839463Y-8301467D01*
X7839463Y-8311467D01*
X7836130Y-8324800D01*
X7832797Y-8331467D01*
X7826130Y-8338133D01*
X7816130Y-8341467D01*
X7799463Y-8341467D01*
X7862797Y-8271467D02*
X7906130Y-8271467D01*
X7882797Y-8298133D01*
X7892797Y-8298133D01*
X7899463Y-8301467D01*
X7902797Y-8304800D01*
X7906130Y-8311467D01*
X7906130Y-8328133D01*
X7902797Y-8334800D01*
X7899463Y-8338133D01*
X7892797Y-8341467D01*
X7872797Y-8341467D01*
X7866130Y-8338133D01*
X7862797Y-8334800D01*
X8953927Y-9492613D02*
X8953927Y-9532613D01*
X8953927Y-9512613D02*
X8883927Y-9512613D01*
X8893927Y-9519280D01*
X8900593Y-9525947D01*
X8903927Y-9532613D01*
X8883927Y-9449280D02*
X8883927Y-9442613D01*
X8887260Y-9435947D01*
X8890593Y-9432613D01*
X8897260Y-9429280D01*
X8910593Y-9425947D01*
X8927260Y-9425947D01*
X8940593Y-9429280D01*
X8947260Y-9432613D01*
X8950593Y-9435947D01*
X8953927Y-9442613D01*
X8953927Y-9449280D01*
X8950593Y-9455947D01*
X8947260Y-9459280D01*
X8940593Y-9462613D01*
X8927260Y-9465947D01*
X8910593Y-9465947D01*
X8897260Y-9462613D01*
X8890593Y-9459280D01*
X8887260Y-9455947D01*
X8883927Y-9449280D01*
X9096927Y-9524280D02*
X9063593Y-9547613D01*
X9096927Y-9564280D02*
X9026927Y-9564280D01*
X9026927Y-9537613D01*
X9030260Y-9530947D01*
X9033593Y-9527613D01*
X9040260Y-9524280D01*
X9050260Y-9524280D01*
X9056927Y-9527613D01*
X9060260Y-9530947D01*
X9063593Y-9537613D01*
X9063593Y-9564280D01*
X9096927Y-9457613D02*
X9096927Y-9497613D01*
X9096927Y-9477613D02*
X9026927Y-9477613D01*
X9036927Y-9484280D01*
X9043593Y-9490947D01*
X9046927Y-9497613D01*
X9026927Y-9394280D02*
X9026927Y-9427613D01*
X9060260Y-9430947D01*
X9056927Y-9427613D01*
X9053593Y-9420947D01*
X9053593Y-9404280D01*
X9056927Y-9397613D01*
X9060260Y-9394280D01*
X9066927Y-9390947D01*
X9083593Y-9390947D01*
X9090260Y-9394280D01*
X9093593Y-9397613D01*
X9096927Y-9404280D01*
X9096927Y-9420947D01*
X9093593Y-9427613D01*
X9090260Y-9430947D01*
X11033200Y-10069107D02*
X11079867Y-10069107D01*
X11006533Y-10085773D02*
X11056533Y-10102440D01*
X11056533Y-10059107D01*
X11073200Y-10032440D02*
X11076533Y-10029107D01*
X11079867Y-10032440D01*
X11076533Y-10035773D01*
X11073200Y-10032440D01*
X11079867Y-10032440D01*
X11009867Y-10005773D02*
X11009867Y-9959107D01*
X11079867Y-9989107D01*
X11079867Y-9932440D02*
X11009867Y-9932440D01*
X11079867Y-9892440D02*
X11039867Y-9922440D01*
X11009867Y-9892440D02*
X11049867Y-9932440D01*
X11222867Y-10042440D02*
X11189533Y-10065773D01*
X11222867Y-10082440D02*
X11152867Y-10082440D01*
X11152867Y-10055773D01*
X11156200Y-10049107D01*
X11159533Y-10045773D01*
X11166200Y-10042440D01*
X11176200Y-10042440D01*
X11182867Y-10045773D01*
X11186200Y-10049107D01*
X11189533Y-10055773D01*
X11189533Y-10082440D01*
X11222867Y-9975773D02*
X11222867Y-10015773D01*
X11222867Y-9995773D02*
X11152867Y-9995773D01*
X11162867Y-10002440D01*
X11169533Y-10009107D01*
X11172867Y-10015773D01*
X11152867Y-9915773D02*
X11152867Y-9929107D01*
X11156200Y-9935773D01*
X11159533Y-9939107D01*
X11169533Y-9945773D01*
X11182867Y-9949107D01*
X11209533Y-9949107D01*
X11216200Y-9945773D01*
X11219533Y-9942440D01*
X11222867Y-9935773D01*
X11222867Y-9922440D01*
X11219533Y-9915773D01*
X11216200Y-9912440D01*
X11209533Y-9909107D01*
X11192867Y-9909107D01*
X11186200Y-9912440D01*
X11182867Y-9915773D01*
X11179533Y-9922440D01*
X11179533Y-9935773D01*
X11182867Y-9942440D01*
X11186200Y-9945773D01*
X11192867Y-9949107D01*
X9501547Y-9569280D02*
X9431547Y-9569280D01*
X9431547Y-9552613D01*
X9434880Y-9542613D01*
X9441547Y-9535947D01*
X9448213Y-9532613D01*
X9461547Y-9529280D01*
X9471547Y-9529280D01*
X9484880Y-9532613D01*
X9491547Y-9535947D01*
X9498213Y-9542613D01*
X9501547Y-9552613D01*
X9501547Y-9569280D01*
X9501547Y-9499280D02*
X9431547Y-9499280D01*
X9501547Y-9459280D01*
X9431547Y-9459280D01*
X9501547Y-9425947D02*
X9431547Y-9425947D01*
X9431547Y-9399280D01*
X9434880Y-9392613D01*
X9438213Y-9389280D01*
X9444880Y-9385947D01*
X9454880Y-9385947D01*
X9461547Y-9389280D01*
X9464880Y-9392613D01*
X9468213Y-9399280D01*
X9468213Y-9425947D01*
X9358547Y-9524280D02*
X9325213Y-9547613D01*
X9358547Y-9564280D02*
X9288547Y-9564280D01*
X9288547Y-9537613D01*
X9291880Y-9530947D01*
X9295213Y-9527613D01*
X9301880Y-9524280D01*
X9311880Y-9524280D01*
X9318547Y-9527613D01*
X9321880Y-9530947D01*
X9325213Y-9537613D01*
X9325213Y-9564280D01*
X9358547Y-9457613D02*
X9358547Y-9497613D01*
X9358547Y-9477613D02*
X9288547Y-9477613D01*
X9298547Y-9484280D01*
X9305213Y-9490947D01*
X9308547Y-9497613D01*
X9288547Y-9434280D02*
X9288547Y-9387613D01*
X9358547Y-9417613D01*
X8820320Y-8418467D02*
X8863653Y-8418467D01*
X8840320Y-8445133D01*
X8850320Y-8445133D01*
X8856987Y-8448467D01*
X8860320Y-8451800D01*
X8863653Y-8458467D01*
X8863653Y-8475133D01*
X8860320Y-8481800D01*
X8856987Y-8485133D01*
X8850320Y-8488467D01*
X8830320Y-8488467D01*
X8823653Y-8485133D01*
X8820320Y-8481800D01*
X8886987Y-8418467D02*
X8930320Y-8418467D01*
X8906987Y-8445133D01*
X8916987Y-8445133D01*
X8923653Y-8448467D01*
X8926987Y-8451800D01*
X8930320Y-8458467D01*
X8930320Y-8475133D01*
X8926987Y-8481800D01*
X8923653Y-8485133D01*
X8916987Y-8488467D01*
X8896987Y-8488467D01*
X8890320Y-8485133D01*
X8886987Y-8481800D01*
X8973653Y-8418467D02*
X8980320Y-8418467D01*
X8986987Y-8421800D01*
X8990320Y-8425133D01*
X8993653Y-8431800D01*
X8996987Y-8445133D01*
X8996987Y-8461800D01*
X8993653Y-8475133D01*
X8990320Y-8481800D01*
X8986987Y-8485133D01*
X8980320Y-8488467D01*
X8973653Y-8488467D01*
X8966987Y-8485133D01*
X8963653Y-8481800D01*
X8960320Y-8475133D01*
X8956987Y-8461800D01*
X8956987Y-8445133D01*
X8960320Y-8431800D01*
X8963653Y-8425133D01*
X8966987Y-8421800D01*
X8973653Y-8418467D01*
X8865320Y-8345467D02*
X8841987Y-8312133D01*
X8825320Y-8345467D02*
X8825320Y-8275467D01*
X8851987Y-8275467D01*
X8858653Y-8278800D01*
X8861987Y-8282133D01*
X8865320Y-8288800D01*
X8865320Y-8298800D01*
X8861987Y-8305467D01*
X8858653Y-8308800D01*
X8851987Y-8312133D01*
X8825320Y-8312133D01*
X8931987Y-8345467D02*
X8891987Y-8345467D01*
X8911987Y-8345467D02*
X8911987Y-8275467D01*
X8905320Y-8285467D01*
X8898653Y-8292133D01*
X8891987Y-8295467D01*
X8971987Y-8305467D02*
X8965320Y-8302133D01*
X8961987Y-8298800D01*
X8958653Y-8292133D01*
X8958653Y-8288800D01*
X8961987Y-8282133D01*
X8965320Y-8278800D01*
X8971987Y-8275467D01*
X8985320Y-8275467D01*
X8991987Y-8278800D01*
X8995320Y-8282133D01*
X8998653Y-8288800D01*
X8998653Y-8292133D01*
X8995320Y-8298800D01*
X8991987Y-8302133D01*
X8985320Y-8305467D01*
X8971987Y-8305467D01*
X8965320Y-8308800D01*
X8961987Y-8312133D01*
X8958653Y-8318800D01*
X8958653Y-8332133D01*
X8961987Y-8338800D01*
X8965320Y-8342133D01*
X8971987Y-8345467D01*
X8985320Y-8345467D01*
X8991987Y-8342133D01*
X8995320Y-8338800D01*
X8998653Y-8332133D01*
X8998653Y-8318800D01*
X8995320Y-8312133D01*
X8991987Y-8308800D01*
X8985320Y-8305467D01*
X9168880Y-10368267D02*
X9215547Y-10368267D01*
X9142213Y-10384933D02*
X9192213Y-10401600D01*
X9192213Y-10358267D01*
X9208880Y-10331600D02*
X9212213Y-10328267D01*
X9215547Y-10331600D01*
X9212213Y-10334933D01*
X9208880Y-10331600D01*
X9215547Y-10331600D01*
X9145547Y-10304933D02*
X9145547Y-10258267D01*
X9215547Y-10288267D01*
X9215547Y-10231600D02*
X9145547Y-10231600D01*
X9215547Y-10191600D02*
X9175547Y-10221600D01*
X9145547Y-10191600D02*
X9185547Y-10231600D01*
X9358547Y-10341600D02*
X9325213Y-10364933D01*
X9358547Y-10381600D02*
X9288547Y-10381600D01*
X9288547Y-10354933D01*
X9291880Y-10348267D01*
X9295213Y-10344933D01*
X9301880Y-10341600D01*
X9311880Y-10341600D01*
X9318547Y-10344933D01*
X9321880Y-10348267D01*
X9325213Y-10354933D01*
X9325213Y-10381600D01*
X9358547Y-10274933D02*
X9358547Y-10314933D01*
X9358547Y-10294933D02*
X9288547Y-10294933D01*
X9298547Y-10301600D01*
X9305213Y-10308267D01*
X9308547Y-10314933D01*
X9358547Y-10241600D02*
X9358547Y-10228267D01*
X9355213Y-10221600D01*
X9351880Y-10218267D01*
X9341880Y-10211600D01*
X9328547Y-10208267D01*
X9301880Y-10208267D01*
X9295213Y-10211600D01*
X9291880Y-10214933D01*
X9288547Y-10221600D01*
X9288547Y-10234933D01*
X9291880Y-10241600D01*
X9295213Y-10244933D01*
X9301880Y-10248267D01*
X9318547Y-10248267D01*
X9325213Y-10244933D01*
X9328547Y-10241600D01*
X9331880Y-10234933D01*
X9331880Y-10221600D01*
X9328547Y-10214933D01*
X9325213Y-10211600D01*
X9318547Y-10208267D01*
X10372800Y-10225367D02*
X10419467Y-10225367D01*
X10346133Y-10242033D02*
X10396133Y-10258700D01*
X10396133Y-10215367D01*
X10412800Y-10188700D02*
X10416133Y-10185367D01*
X10419467Y-10188700D01*
X10416133Y-10192033D01*
X10412800Y-10188700D01*
X10419467Y-10188700D01*
X10349467Y-10162033D02*
X10349467Y-10115367D01*
X10419467Y-10145367D01*
X10419467Y-10088700D02*
X10349467Y-10088700D01*
X10419467Y-10048700D02*
X10379467Y-10078700D01*
X10349467Y-10048700D02*
X10389467Y-10088700D01*
X10562467Y-10198700D02*
X10529133Y-10222033D01*
X10562467Y-10238700D02*
X10492467Y-10238700D01*
X10492467Y-10212033D01*
X10495800Y-10205367D01*
X10499133Y-10202033D01*
X10505800Y-10198700D01*
X10515800Y-10198700D01*
X10522467Y-10202033D01*
X10525800Y-10205367D01*
X10529133Y-10212033D01*
X10529133Y-10238700D01*
X10499133Y-10172033D02*
X10495800Y-10168700D01*
X10492467Y-10162033D01*
X10492467Y-10145367D01*
X10495800Y-10138700D01*
X10499133Y-10135367D01*
X10505800Y-10132033D01*
X10512467Y-10132033D01*
X10522467Y-10135367D01*
X10562467Y-10175367D01*
X10562467Y-10132033D01*
X10492467Y-10088700D02*
X10492467Y-10082033D01*
X10495800Y-10075367D01*
X10499133Y-10072033D01*
X10505800Y-10068700D01*
X10519133Y-10065367D01*
X10535800Y-10065367D01*
X10549133Y-10068700D01*
X10555800Y-10072033D01*
X10559133Y-10075367D01*
X10562467Y-10082033D01*
X10562467Y-10088700D01*
X10559133Y-10095367D01*
X10555800Y-10098700D01*
X10549133Y-10102033D01*
X10535800Y-10105367D01*
X10519133Y-10105367D01*
X10505800Y-10102033D01*
X10499133Y-10098700D01*
X10495800Y-10095367D01*
X10492467Y-10088700D01*
X10801500Y-9566067D02*
X10801500Y-9496067D01*
X10818167Y-9496067D01*
X10828167Y-9499400D01*
X10834833Y-9506067D01*
X10838167Y-9512733D01*
X10841500Y-9526067D01*
X10841500Y-9536067D01*
X10838167Y-9549400D01*
X10834833Y-9556067D01*
X10828167Y-9562733D01*
X10818167Y-9566067D01*
X10801500Y-9566067D01*
X10871500Y-9566067D02*
X10871500Y-9496067D01*
X10911500Y-9566067D01*
X10911500Y-9496067D01*
X10944833Y-9566067D02*
X10944833Y-9496067D01*
X10971500Y-9496067D01*
X10978167Y-9499400D01*
X10981500Y-9502733D01*
X10984833Y-9509400D01*
X10984833Y-9519400D01*
X10981500Y-9526067D01*
X10978167Y-9529400D01*
X10971500Y-9532733D01*
X10944833Y-9532733D01*
X10846500Y-9709067D02*
X10823167Y-9675733D01*
X10806500Y-9709067D02*
X10806500Y-9639067D01*
X10833167Y-9639067D01*
X10839833Y-9642400D01*
X10843167Y-9645733D01*
X10846500Y-9652400D01*
X10846500Y-9662400D01*
X10843167Y-9669067D01*
X10839833Y-9672400D01*
X10833167Y-9675733D01*
X10806500Y-9675733D01*
X10873167Y-9645733D02*
X10876500Y-9642400D01*
X10883167Y-9639067D01*
X10899833Y-9639067D01*
X10906500Y-9642400D01*
X10909833Y-9645733D01*
X10913167Y-9652400D01*
X10913167Y-9659067D01*
X10909833Y-9669067D01*
X10869833Y-9709067D01*
X10913167Y-9709067D01*
X10979833Y-9709067D02*
X10939833Y-9709067D01*
X10959833Y-9709067D02*
X10959833Y-9639067D01*
X10953167Y-9649067D01*
X10946500Y-9655733D01*
X10939833Y-9659067D01*
X7540000Y-12151667D02*
X7540000Y-12081667D01*
X7563333Y-12131667D01*
X7586667Y-12081667D01*
X7586667Y-12151667D01*
X7630000Y-12151667D02*
X7623333Y-12148333D01*
X7620000Y-12145000D01*
X7616667Y-12138333D01*
X7616667Y-12118333D01*
X7620000Y-12111667D01*
X7623333Y-12108333D01*
X7630000Y-12105000D01*
X7640000Y-12105000D01*
X7646667Y-12108333D01*
X7650000Y-12111667D01*
X7653333Y-12118333D01*
X7653333Y-12138333D01*
X7650000Y-12145000D01*
X7646667Y-12148333D01*
X7640000Y-12151667D01*
X7630000Y-12151667D01*
X7713333Y-12105000D02*
X7713333Y-12151667D01*
X7683333Y-12105000D02*
X7683333Y-12141667D01*
X7686667Y-12148333D01*
X7693333Y-12151667D01*
X7703333Y-12151667D01*
X7710000Y-12148333D01*
X7713333Y-12145000D01*
X7746667Y-12105000D02*
X7746667Y-12151667D01*
X7746667Y-12111667D02*
X7750000Y-12108333D01*
X7756667Y-12105000D01*
X7766667Y-12105000D01*
X7773333Y-12108333D01*
X7776667Y-12115000D01*
X7776667Y-12151667D01*
X7800000Y-12105000D02*
X7826667Y-12105000D01*
X7810000Y-12081667D02*
X7810000Y-12141667D01*
X7813333Y-12148333D01*
X7820000Y-12151667D01*
X7826667Y-12151667D01*
X7850000Y-12151667D02*
X7850000Y-12105000D01*
X7850000Y-12081667D02*
X7846667Y-12085000D01*
X7850000Y-12088333D01*
X7853333Y-12085000D01*
X7850000Y-12081667D01*
X7850000Y-12088333D01*
X7883333Y-12105000D02*
X7883333Y-12151667D01*
X7883333Y-12111667D02*
X7886667Y-12108333D01*
X7893333Y-12105000D01*
X7903333Y-12105000D01*
X7910000Y-12108333D01*
X7913333Y-12115000D01*
X7913333Y-12151667D01*
X7976667Y-12105000D02*
X7976667Y-12161667D01*
X7973333Y-12168333D01*
X7970000Y-12171667D01*
X7963333Y-12175000D01*
X7953333Y-12175000D01*
X7946667Y-12171667D01*
X7976667Y-12148333D02*
X7970000Y-12151667D01*
X7956667Y-12151667D01*
X7950000Y-12148333D01*
X7946667Y-12145000D01*
X7943333Y-12138333D01*
X7943333Y-12118333D01*
X7946667Y-12111667D01*
X7950000Y-12108333D01*
X7956667Y-12105000D01*
X7970000Y-12105000D01*
X7976667Y-12108333D01*
X8010000Y-12151667D02*
X8010000Y-12081667D01*
X8010000Y-12115000D02*
X8050000Y-12115000D01*
X8050000Y-12151667D02*
X8050000Y-12081667D01*
X8093333Y-12151667D02*
X8086667Y-12148333D01*
X8083333Y-12145000D01*
X8080000Y-12138333D01*
X8080000Y-12118333D01*
X8083333Y-12111667D01*
X8086667Y-12108333D01*
X8093333Y-12105000D01*
X8103333Y-12105000D01*
X8110000Y-12108333D01*
X8113333Y-12111667D01*
X8116667Y-12118333D01*
X8116667Y-12138333D01*
X8113333Y-12145000D01*
X8110000Y-12148333D01*
X8103333Y-12151667D01*
X8093333Y-12151667D01*
X8156667Y-12151667D02*
X8150000Y-12148333D01*
X8146667Y-12141667D01*
X8146667Y-12081667D01*
X8210000Y-12148333D02*
X8203333Y-12151667D01*
X8190000Y-12151667D01*
X8183333Y-12148333D01*
X8180000Y-12141667D01*
X8180000Y-12115000D01*
X8183333Y-12108333D01*
X8190000Y-12105000D01*
X8203333Y-12105000D01*
X8210000Y-12108333D01*
X8213333Y-12115000D01*
X8213333Y-12121667D01*
X8180000Y-12128333D01*
X8226667Y-12158333D02*
X8280000Y-12158333D01*
X8296667Y-12151667D02*
X8296667Y-12081667D01*
X8323333Y-12081667D01*
X8330000Y-12085000D01*
X8333333Y-12088333D01*
X8336667Y-12095000D01*
X8336667Y-12105000D01*
X8333333Y-12111667D01*
X8330000Y-12115000D01*
X8323333Y-12118333D01*
X8296667Y-12118333D01*
X8396667Y-12151667D02*
X8396667Y-12115000D01*
X8393333Y-12108333D01*
X8386667Y-12105000D01*
X8373333Y-12105000D01*
X8366667Y-12108333D01*
X8396667Y-12148333D02*
X8390000Y-12151667D01*
X8373333Y-12151667D01*
X8366667Y-12148333D01*
X8363333Y-12141667D01*
X8363333Y-12135000D01*
X8366667Y-12128333D01*
X8373333Y-12125000D01*
X8390000Y-12125000D01*
X8396667Y-12121667D01*
X8460000Y-12151667D02*
X8460000Y-12081667D01*
X8460000Y-12148333D02*
X8453333Y-12151667D01*
X8440000Y-12151667D01*
X8433333Y-12148333D01*
X8430000Y-12145000D01*
X8426667Y-12138333D01*
X8426667Y-12118333D01*
X8430000Y-12111667D01*
X8433333Y-12108333D01*
X8440000Y-12105000D01*
X8453333Y-12105000D01*
X8460000Y-12108333D01*
X7976667Y-11831667D02*
X7976667Y-11761667D01*
X7976667Y-11795000D02*
X8016667Y-11795000D01*
X8016667Y-11831667D02*
X8016667Y-11761667D01*
X8086667Y-11831667D02*
X8046667Y-11831667D01*
X8066667Y-11831667D02*
X8066667Y-11761667D01*
X8060000Y-11771667D01*
X8053333Y-11778333D01*
X8046667Y-11781667D01*
X11540000Y-12151667D02*
X11540000Y-12081667D01*
X11563333Y-12131667D01*
X11586667Y-12081667D01*
X11586667Y-12151667D01*
X11630000Y-12151667D02*
X11623333Y-12148333D01*
X11620000Y-12145000D01*
X11616667Y-12138333D01*
X11616667Y-12118333D01*
X11620000Y-12111667D01*
X11623333Y-12108333D01*
X11630000Y-12105000D01*
X11640000Y-12105000D01*
X11646667Y-12108333D01*
X11650000Y-12111667D01*
X11653333Y-12118333D01*
X11653333Y-12138333D01*
X11650000Y-12145000D01*
X11646667Y-12148333D01*
X11640000Y-12151667D01*
X11630000Y-12151667D01*
X11713333Y-12105000D02*
X11713333Y-12151667D01*
X11683333Y-12105000D02*
X11683333Y-12141667D01*
X11686667Y-12148333D01*
X11693333Y-12151667D01*
X11703333Y-12151667D01*
X11710000Y-12148333D01*
X11713333Y-12145000D01*
X11746667Y-12105000D02*
X11746667Y-12151667D01*
X11746667Y-12111667D02*
X11750000Y-12108333D01*
X11756667Y-12105000D01*
X11766667Y-12105000D01*
X11773333Y-12108333D01*
X11776667Y-12115000D01*
X11776667Y-12151667D01*
X11800000Y-12105000D02*
X11826667Y-12105000D01*
X11810000Y-12081667D02*
X11810000Y-12141667D01*
X11813333Y-12148333D01*
X11820000Y-12151667D01*
X11826667Y-12151667D01*
X11850000Y-12151667D02*
X11850000Y-12105000D01*
X11850000Y-12081667D02*
X11846667Y-12085000D01*
X11850000Y-12088333D01*
X11853333Y-12085000D01*
X11850000Y-12081667D01*
X11850000Y-12088333D01*
X11883333Y-12105000D02*
X11883333Y-12151667D01*
X11883333Y-12111667D02*
X11886667Y-12108333D01*
X11893333Y-12105000D01*
X11903333Y-12105000D01*
X11910000Y-12108333D01*
X11913333Y-12115000D01*
X11913333Y-12151667D01*
X11976667Y-12105000D02*
X11976667Y-12161667D01*
X11973333Y-12168333D01*
X11970000Y-12171667D01*
X11963333Y-12175000D01*
X11953333Y-12175000D01*
X11946667Y-12171667D01*
X11976667Y-12148333D02*
X11970000Y-12151667D01*
X11956667Y-12151667D01*
X11950000Y-12148333D01*
X11946667Y-12145000D01*
X11943333Y-12138333D01*
X11943333Y-12118333D01*
X11946667Y-12111667D01*
X11950000Y-12108333D01*
X11956667Y-12105000D01*
X11970000Y-12105000D01*
X11976667Y-12108333D01*
X12010000Y-12151667D02*
X12010000Y-12081667D01*
X12010000Y-12115000D02*
X12050000Y-12115000D01*
X12050000Y-12151667D02*
X12050000Y-12081667D01*
X12093333Y-12151667D02*
X12086667Y-12148333D01*
X12083333Y-12145000D01*
X12080000Y-12138333D01*
X12080000Y-12118333D01*
X12083333Y-12111667D01*
X12086667Y-12108333D01*
X12093333Y-12105000D01*
X12103333Y-12105000D01*
X12110000Y-12108333D01*
X12113333Y-12111667D01*
X12116667Y-12118333D01*
X12116667Y-12138333D01*
X12113333Y-12145000D01*
X12110000Y-12148333D01*
X12103333Y-12151667D01*
X12093333Y-12151667D01*
X12156667Y-12151667D02*
X12150000Y-12148333D01*
X12146667Y-12141667D01*
X12146667Y-12081667D01*
X12210000Y-12148333D02*
X12203333Y-12151667D01*
X12190000Y-12151667D01*
X12183333Y-12148333D01*
X12180000Y-12141667D01*
X12180000Y-12115000D01*
X12183333Y-12108333D01*
X12190000Y-12105000D01*
X12203333Y-12105000D01*
X12210000Y-12108333D01*
X12213333Y-12115000D01*
X12213333Y-12121667D01*
X12180000Y-12128333D01*
X12226667Y-12158333D02*
X12280000Y-12158333D01*
X12296667Y-12151667D02*
X12296667Y-12081667D01*
X12323333Y-12081667D01*
X12330000Y-12085000D01*
X12333333Y-12088333D01*
X12336667Y-12095000D01*
X12336667Y-12105000D01*
X12333333Y-12111667D01*
X12330000Y-12115000D01*
X12323333Y-12118333D01*
X12296667Y-12118333D01*
X12396667Y-12151667D02*
X12396667Y-12115000D01*
X12393333Y-12108333D01*
X12386667Y-12105000D01*
X12373333Y-12105000D01*
X12366667Y-12108333D01*
X12396667Y-12148333D02*
X12390000Y-12151667D01*
X12373333Y-12151667D01*
X12366667Y-12148333D01*
X12363333Y-12141667D01*
X12363333Y-12135000D01*
X12366667Y-12128333D01*
X12373333Y-12125000D01*
X12390000Y-12125000D01*
X12396667Y-12121667D01*
X12460000Y-12151667D02*
X12460000Y-12081667D01*
X12460000Y-12148333D02*
X12453333Y-12151667D01*
X12440000Y-12151667D01*
X12433333Y-12148333D01*
X12430000Y-12145000D01*
X12426667Y-12138333D01*
X12426667Y-12118333D01*
X12430000Y-12111667D01*
X12433333Y-12108333D01*
X12440000Y-12105000D01*
X12453333Y-12105000D01*
X12460000Y-12108333D01*
X11976667Y-11831667D02*
X11976667Y-11761667D01*
X11976667Y-11795000D02*
X12016667Y-11795000D01*
X12016667Y-11831667D02*
X12016667Y-11761667D01*
X12046667Y-11768333D02*
X12050000Y-11765000D01*
X12056667Y-11761667D01*
X12073333Y-11761667D01*
X12080000Y-11765000D01*
X12083333Y-11768333D01*
X12086667Y-11775000D01*
X12086667Y-11781667D01*
X12083333Y-11791667D01*
X12043333Y-11831667D01*
X12086667Y-11831667D01*
X11140000Y-8251667D02*
X11140000Y-8181667D01*
X11163333Y-8231667D01*
X11186667Y-8181667D01*
X11186667Y-8251667D01*
X11230000Y-8251667D02*
X11223333Y-8248333D01*
X11220000Y-8245000D01*
X11216667Y-8238333D01*
X11216667Y-8218333D01*
X11220000Y-8211667D01*
X11223333Y-8208333D01*
X11230000Y-8205000D01*
X11240000Y-8205000D01*
X11246667Y-8208333D01*
X11250000Y-8211667D01*
X11253333Y-8218333D01*
X11253333Y-8238333D01*
X11250000Y-8245000D01*
X11246667Y-8248333D01*
X11240000Y-8251667D01*
X11230000Y-8251667D01*
X11313333Y-8205000D02*
X11313333Y-8251667D01*
X11283333Y-8205000D02*
X11283333Y-8241667D01*
X11286667Y-8248333D01*
X11293333Y-8251667D01*
X11303333Y-8251667D01*
X11310000Y-8248333D01*
X11313333Y-8245000D01*
X11346667Y-8205000D02*
X11346667Y-8251667D01*
X11346667Y-8211667D02*
X11350000Y-8208333D01*
X11356667Y-8205000D01*
X11366667Y-8205000D01*
X11373333Y-8208333D01*
X11376667Y-8215000D01*
X11376667Y-8251667D01*
X11400000Y-8205000D02*
X11426667Y-8205000D01*
X11410000Y-8181667D02*
X11410000Y-8241667D01*
X11413333Y-8248333D01*
X11420000Y-8251667D01*
X11426667Y-8251667D01*
X11450000Y-8251667D02*
X11450000Y-8205000D01*
X11450000Y-8181667D02*
X11446667Y-8185000D01*
X11450000Y-8188333D01*
X11453333Y-8185000D01*
X11450000Y-8181667D01*
X11450000Y-8188333D01*
X11483333Y-8205000D02*
X11483333Y-8251667D01*
X11483333Y-8211667D02*
X11486667Y-8208333D01*
X11493333Y-8205000D01*
X11503333Y-8205000D01*
X11510000Y-8208333D01*
X11513333Y-8215000D01*
X11513333Y-8251667D01*
X11576667Y-8205000D02*
X11576667Y-8261667D01*
X11573333Y-8268333D01*
X11570000Y-8271667D01*
X11563333Y-8275000D01*
X11553333Y-8275000D01*
X11546667Y-8271667D01*
X11576667Y-8248333D02*
X11570000Y-8251667D01*
X11556667Y-8251667D01*
X11550000Y-8248333D01*
X11546667Y-8245000D01*
X11543333Y-8238333D01*
X11543333Y-8218333D01*
X11546667Y-8211667D01*
X11550000Y-8208333D01*
X11556667Y-8205000D01*
X11570000Y-8205000D01*
X11576667Y-8208333D01*
X11610000Y-8251667D02*
X11610000Y-8181667D01*
X11610000Y-8215000D02*
X11650000Y-8215000D01*
X11650000Y-8251667D02*
X11650000Y-8181667D01*
X11693333Y-8251667D02*
X11686667Y-8248333D01*
X11683333Y-8245000D01*
X11680000Y-8238333D01*
X11680000Y-8218333D01*
X11683333Y-8211667D01*
X11686667Y-8208333D01*
X11693333Y-8205000D01*
X11703333Y-8205000D01*
X11710000Y-8208333D01*
X11713333Y-8211667D01*
X11716667Y-8218333D01*
X11716667Y-8238333D01*
X11713333Y-8245000D01*
X11710000Y-8248333D01*
X11703333Y-8251667D01*
X11693333Y-8251667D01*
X11756667Y-8251667D02*
X11750000Y-8248333D01*
X11746667Y-8241667D01*
X11746667Y-8181667D01*
X11810000Y-8248333D02*
X11803333Y-8251667D01*
X11790000Y-8251667D01*
X11783333Y-8248333D01*
X11780000Y-8241667D01*
X11780000Y-8215000D01*
X11783333Y-8208333D01*
X11790000Y-8205000D01*
X11803333Y-8205000D01*
X11810000Y-8208333D01*
X11813333Y-8215000D01*
X11813333Y-8221667D01*
X11780000Y-8228333D01*
X11826667Y-8258333D02*
X11880000Y-8258333D01*
X11896667Y-8251667D02*
X11896667Y-8181667D01*
X11923333Y-8181667D01*
X11930000Y-8185000D01*
X11933333Y-8188333D01*
X11936667Y-8195000D01*
X11936667Y-8205000D01*
X11933333Y-8211667D01*
X11930000Y-8215000D01*
X11923333Y-8218333D01*
X11896667Y-8218333D01*
X11996667Y-8251667D02*
X11996667Y-8215000D01*
X11993333Y-8208333D01*
X11986667Y-8205000D01*
X11973333Y-8205000D01*
X11966667Y-8208333D01*
X11996667Y-8248333D02*
X11990000Y-8251667D01*
X11973333Y-8251667D01*
X11966667Y-8248333D01*
X11963333Y-8241667D01*
X11963333Y-8235000D01*
X11966667Y-8228333D01*
X11973333Y-8225000D01*
X11990000Y-8225000D01*
X11996667Y-8221667D01*
X12060000Y-8251667D02*
X12060000Y-8181667D01*
X12060000Y-8248333D02*
X12053333Y-8251667D01*
X12040000Y-8251667D01*
X12033333Y-8248333D01*
X12030000Y-8245000D01*
X12026667Y-8238333D01*
X12026667Y-8218333D01*
X12030000Y-8211667D01*
X12033333Y-8208333D01*
X12040000Y-8205000D01*
X12053333Y-8205000D01*
X12060000Y-8208333D01*
X11576667Y-7931667D02*
X11576667Y-7861667D01*
X11576667Y-7895000D02*
X11616667Y-7895000D01*
X11616667Y-7931667D02*
X11616667Y-7861667D01*
X11643333Y-7861667D02*
X11686667Y-7861667D01*
X11663333Y-7888333D01*
X11673333Y-7888333D01*
X11680000Y-7891667D01*
X11683333Y-7895000D01*
X11686667Y-7901667D01*
X11686667Y-7918333D01*
X11683333Y-7925000D01*
X11680000Y-7928333D01*
X11673333Y-7931667D01*
X11653333Y-7931667D01*
X11646667Y-7928333D01*
X11643333Y-7925000D01*
X7940000Y-8251667D02*
X7940000Y-8181667D01*
X7963333Y-8231667D01*
X7986667Y-8181667D01*
X7986667Y-8251667D01*
X8030000Y-8251667D02*
X8023333Y-8248333D01*
X8020000Y-8245000D01*
X8016667Y-8238333D01*
X8016667Y-8218333D01*
X8020000Y-8211667D01*
X8023333Y-8208333D01*
X8030000Y-8205000D01*
X8040000Y-8205000D01*
X8046667Y-8208333D01*
X8050000Y-8211667D01*
X8053333Y-8218333D01*
X8053333Y-8238333D01*
X8050000Y-8245000D01*
X8046667Y-8248333D01*
X8040000Y-8251667D01*
X8030000Y-8251667D01*
X8113333Y-8205000D02*
X8113333Y-8251667D01*
X8083333Y-8205000D02*
X8083333Y-8241667D01*
X8086667Y-8248333D01*
X8093333Y-8251667D01*
X8103333Y-8251667D01*
X8110000Y-8248333D01*
X8113333Y-8245000D01*
X8146667Y-8205000D02*
X8146667Y-8251667D01*
X8146667Y-8211667D02*
X8150000Y-8208333D01*
X8156667Y-8205000D01*
X8166667Y-8205000D01*
X8173333Y-8208333D01*
X8176667Y-8215000D01*
X8176667Y-8251667D01*
X8200000Y-8205000D02*
X8226667Y-8205000D01*
X8210000Y-8181667D02*
X8210000Y-8241667D01*
X8213333Y-8248333D01*
X8220000Y-8251667D01*
X8226667Y-8251667D01*
X8250000Y-8251667D02*
X8250000Y-8205000D01*
X8250000Y-8181667D02*
X8246667Y-8185000D01*
X8250000Y-8188333D01*
X8253333Y-8185000D01*
X8250000Y-8181667D01*
X8250000Y-8188333D01*
X8283333Y-8205000D02*
X8283333Y-8251667D01*
X8283333Y-8211667D02*
X8286667Y-8208333D01*
X8293333Y-8205000D01*
X8303333Y-8205000D01*
X8310000Y-8208333D01*
X8313333Y-8215000D01*
X8313333Y-8251667D01*
X8376667Y-8205000D02*
X8376667Y-8261667D01*
X8373333Y-8268333D01*
X8370000Y-8271667D01*
X8363333Y-8275000D01*
X8353333Y-8275000D01*
X8346667Y-8271667D01*
X8376667Y-8248333D02*
X8370000Y-8251667D01*
X8356667Y-8251667D01*
X8350000Y-8248333D01*
X8346667Y-8245000D01*
X8343333Y-8238333D01*
X8343333Y-8218333D01*
X8346667Y-8211667D01*
X8350000Y-8208333D01*
X8356667Y-8205000D01*
X8370000Y-8205000D01*
X8376667Y-8208333D01*
X8410000Y-8251667D02*
X8410000Y-8181667D01*
X8410000Y-8215000D02*
X8450000Y-8215000D01*
X8450000Y-8251667D02*
X8450000Y-8181667D01*
X8493333Y-8251667D02*
X8486667Y-8248333D01*
X8483333Y-8245000D01*
X8480000Y-8238333D01*
X8480000Y-8218333D01*
X8483333Y-8211667D01*
X8486667Y-8208333D01*
X8493333Y-8205000D01*
X8503333Y-8205000D01*
X8510000Y-8208333D01*
X8513333Y-8211667D01*
X8516667Y-8218333D01*
X8516667Y-8238333D01*
X8513333Y-8245000D01*
X8510000Y-8248333D01*
X8503333Y-8251667D01*
X8493333Y-8251667D01*
X8556667Y-8251667D02*
X8550000Y-8248333D01*
X8546667Y-8241667D01*
X8546667Y-8181667D01*
X8610000Y-8248333D02*
X8603333Y-8251667D01*
X8590000Y-8251667D01*
X8583333Y-8248333D01*
X8580000Y-8241667D01*
X8580000Y-8215000D01*
X8583333Y-8208333D01*
X8590000Y-8205000D01*
X8603333Y-8205000D01*
X8610000Y-8208333D01*
X8613333Y-8215000D01*
X8613333Y-8221667D01*
X8580000Y-8228333D01*
X8626667Y-8258333D02*
X8680000Y-8258333D01*
X8696667Y-8251667D02*
X8696667Y-8181667D01*
X8723333Y-8181667D01*
X8730000Y-8185000D01*
X8733333Y-8188333D01*
X8736667Y-8195000D01*
X8736667Y-8205000D01*
X8733333Y-8211667D01*
X8730000Y-8215000D01*
X8723333Y-8218333D01*
X8696667Y-8218333D01*
X8796667Y-8251667D02*
X8796667Y-8215000D01*
X8793333Y-8208333D01*
X8786667Y-8205000D01*
X8773333Y-8205000D01*
X8766667Y-8208333D01*
X8796667Y-8248333D02*
X8790000Y-8251667D01*
X8773333Y-8251667D01*
X8766667Y-8248333D01*
X8763333Y-8241667D01*
X8763333Y-8235000D01*
X8766667Y-8228333D01*
X8773333Y-8225000D01*
X8790000Y-8225000D01*
X8796667Y-8221667D01*
X8860000Y-8251667D02*
X8860000Y-8181667D01*
X8860000Y-8248333D02*
X8853333Y-8251667D01*
X8840000Y-8251667D01*
X8833333Y-8248333D01*
X8830000Y-8245000D01*
X8826667Y-8238333D01*
X8826667Y-8218333D01*
X8830000Y-8211667D01*
X8833333Y-8208333D01*
X8840000Y-8205000D01*
X8853333Y-8205000D01*
X8860000Y-8208333D01*
X8376667Y-7931667D02*
X8376667Y-7861667D01*
X8376667Y-7895000D02*
X8416667Y-7895000D01*
X8416667Y-7931667D02*
X8416667Y-7861667D01*
X8480000Y-7885000D02*
X8480000Y-7931667D01*
X8463333Y-7858333D02*
X8446667Y-7908333D01*
X8490000Y-7908333D01*
D13*
X11518508Y-8037394D02*
X11513747Y-8042156D01*
X11499461Y-8046918D01*
X11489937Y-8046918D01*
X11475651Y-8042156D01*
X11466128Y-8032632D01*
X11461366Y-8023108D01*
X11456604Y-8004061D01*
X11456604Y-7989775D01*
X11461366Y-7970728D01*
X11466128Y-7961204D01*
X11475651Y-7951680D01*
X11489937Y-7946918D01*
X11499461Y-7946918D01*
X11513747Y-7951680D01*
X11518508Y-7956442D01*
X11575651Y-8046918D02*
X11566128Y-8042156D01*
X11561366Y-8037394D01*
X11556604Y-8027870D01*
X11556604Y-7999299D01*
X11561366Y-7989775D01*
X11566128Y-7985013D01*
X11575651Y-7980251D01*
X11589937Y-7980251D01*
X11599461Y-7985013D01*
X11604223Y-7989775D01*
X11608985Y-7999299D01*
X11608985Y-8027870D01*
X11604223Y-8037394D01*
X11599461Y-8042156D01*
X11589937Y-8046918D01*
X11575651Y-8046918D01*
X11651842Y-7980251D02*
X11651842Y-8046918D01*
X11651842Y-7989775D02*
X11656604Y-7985013D01*
X11666128Y-7980251D01*
X11680413Y-7980251D01*
X11689937Y-7985013D01*
X11694699Y-7994537D01*
X11694699Y-8046918D01*
X11742318Y-7980251D02*
X11742318Y-8046918D01*
X11742318Y-7989775D02*
X11747080Y-7985013D01*
X11756604Y-7980251D01*
X11770889Y-7980251D01*
X11780413Y-7985013D01*
X11785175Y-7994537D01*
X11785175Y-8046918D01*
X11808985Y-8056442D02*
X11885175Y-8056442D01*
X11928032Y-7946918D02*
X11937556Y-7946918D01*
X11947080Y-7951680D01*
X11951842Y-7956442D01*
X11956604Y-7965966D01*
X11961366Y-7985013D01*
X11961366Y-8008823D01*
X11956604Y-8027870D01*
X11951842Y-8037394D01*
X11947080Y-8042156D01*
X11937556Y-8046918D01*
X11928032Y-8046918D01*
X11918508Y-8042156D01*
X11913747Y-8037394D01*
X11908985Y-8027870D01*
X11904223Y-8008823D01*
X11904223Y-7985013D01*
X11908985Y-7965966D01*
X11913747Y-7956442D01*
X11918508Y-7951680D01*
X11928032Y-7946918D01*
X12056604Y-8046918D02*
X11999461Y-8046918D01*
X12028032Y-8046918D02*
X12028032Y-7946918D01*
X12018508Y-7961204D01*
X12008985Y-7970728D01*
X11999461Y-7975489D01*
X12089937Y-8046918D02*
X12142318Y-7980251D01*
X12089937Y-7980251D02*
X12142318Y-8046918D01*
X12199461Y-7946918D02*
X12208985Y-7946918D01*
X12218508Y-7951680D01*
X12223270Y-7956442D01*
X12228032Y-7965966D01*
X12232794Y-7985013D01*
X12232794Y-8008823D01*
X12228032Y-8027870D01*
X12223270Y-8037394D01*
X12218508Y-8042156D01*
X12208985Y-8046918D01*
X12199461Y-8046918D01*
X12189937Y-8042156D01*
X12185175Y-8037394D01*
X12180413Y-8027870D01*
X12175651Y-8008823D01*
X12175651Y-7985013D01*
X12180413Y-7965966D01*
X12185175Y-7956442D01*
X12189937Y-7951680D01*
X12199461Y-7946918D01*
X12323270Y-7946918D02*
X12275651Y-7946918D01*
X12270889Y-7994537D01*
X12275651Y-7989775D01*
X12285175Y-7985013D01*
X12308985Y-7985013D01*
X12318508Y-7989775D01*
X12323270Y-7994537D01*
X12328032Y-8004061D01*
X12328032Y-8027870D01*
X12323270Y-8037394D01*
X12318508Y-8042156D01*
X12308985Y-8046918D01*
X12285175Y-8046918D01*
X12275651Y-8042156D01*
X12270889Y-8037394D01*
X12347080Y-8056442D02*
X12423270Y-8056442D01*
X12480413Y-7994537D02*
X12447080Y-7994537D01*
X12447080Y-8046918D02*
X12447080Y-7946918D01*
X12494699Y-7946918D01*
X12570889Y-8042156D02*
X12561366Y-8046918D01*
X12542318Y-8046918D01*
X12532794Y-8042156D01*
X12528032Y-8032632D01*
X12528032Y-7994537D01*
X12532794Y-7985013D01*
X12542318Y-7980251D01*
X12561366Y-7980251D01*
X12570889Y-7985013D01*
X12575651Y-7994537D01*
X12575651Y-8004061D01*
X12528032Y-8013585D01*
X12618508Y-8046918D02*
X12618508Y-7980251D01*
X12618508Y-7989775D02*
X12623270Y-7985013D01*
X12632794Y-7980251D01*
X12647080Y-7980251D01*
X12656604Y-7985013D01*
X12661366Y-7994537D01*
X12661366Y-8046918D01*
X12661366Y-7994537D02*
X12666128Y-7985013D01*
X12675651Y-7980251D01*
X12689937Y-7980251D01*
X12699461Y-7985013D01*
X12704223Y-7994537D01*
X12704223Y-8046918D01*
X12794699Y-8046918D02*
X12794699Y-7994537D01*
X12789937Y-7985013D01*
X12780413Y-7980251D01*
X12761366Y-7980251D01*
X12751842Y-7985013D01*
X12794699Y-8042156D02*
X12785175Y-8046918D01*
X12761366Y-8046918D01*
X12751842Y-8042156D01*
X12747080Y-8032632D01*
X12747080Y-8023108D01*
X12751842Y-8013585D01*
X12761366Y-8008823D01*
X12785175Y-8008823D01*
X12794699Y-8004061D01*
X12856604Y-8046918D02*
X12847080Y-8042156D01*
X12842318Y-8032632D01*
X12842318Y-7946918D01*
X12932794Y-8042156D02*
X12923270Y-8046918D01*
X12904223Y-8046918D01*
X12894699Y-8042156D01*
X12889937Y-8032632D01*
X12889937Y-7994537D01*
X12894699Y-7985013D01*
X12904223Y-7980251D01*
X12923270Y-7980251D01*
X12932794Y-7985013D01*
X12937556Y-7994537D01*
X12937556Y-8004061D01*
X12889937Y-8013585D01*
X12142318Y-8776013D02*
X12213747Y-8776013D01*
X12228032Y-8780775D01*
X12237556Y-8790299D01*
X12242318Y-8804585D01*
X12242318Y-8814109D01*
X12151842Y-8733156D02*
X12147080Y-8728394D01*
X12142318Y-8718870D01*
X12142318Y-8695061D01*
X12147080Y-8685537D01*
X12151842Y-8680775D01*
X12161366Y-8676013D01*
X12170889Y-8676013D01*
X12185175Y-8680775D01*
X12242318Y-8737918D01*
X12242318Y-8676013D01*
M02*
